SplineFontDB: 3.2
FontName: pychess
FullName: pychess
FamilyName: pychess
Weight: Book
Version: 1.0
ItalicAngle: 0
UnderlinePosition: 0
UnderlineWidth: 0
Ascent: 960
Descent: 64
InvalidEm: 0
sfntRevision: 0x00010000
LayerCount: 2
Layer: 0 1 "Back" 1
Layer: 1 1 "Fore" 0
XUID: [1021 269 1293685311 8267129]
StyleMap: 0x0040
FSType: 0
OS2Version: 3
OS2_WeightWidthSlopeOnly: 0
OS2_UseTypoMetrics: 0
CreationTime: 1679950231
ModificationTime: 1683494455
PfmFamily: 81
TTFWeight: 400
TTFWidth: 5
LineGap: 0
VLineGap: 0
Panose: 0 0 0 0 0 0 0 0 0 0
OS2TypoAscent: 960
OS2TypoAOffset: 0
OS2TypoDescent: -64
OS2TypoDOffset: 0
OS2TypoLinegap: 64
OS2WinAscent: 960
OS2WinAOffset: 0
OS2WinDescent: 64
OS2WinDOffset: 0
HheadAscent: 960
HheadAOffset: 0
HheadDescent: -64
HheadDOffset: 0
OS2SubXSize: 665
OS2SubYSize: 716
OS2SubXOff: 0
OS2SubYOff: 143
OS2SupXSize: 665
OS2SupYSize: 716
OS2SupXOff: 0
OS2SupYOff: 491
OS2StrikeYSize: 51
OS2StrikeYPos: 265
OS2CapHeight: 886
OS2XHeight: 886
OS2CodePages: 00000001.00000000
OS2UnicodeRanges: 00000001.100060a0.00000000.00000000
DEI: 91125
ShortTable: maxp 16
  1
  0
  117
  1064
  18
  0
  0
  2
  0
  0
  0
  0
  0
  0
  0
  0
EndShort
LangName: 1033 "" "" "Regular" "pychess" "" "Version 1.0" "" "" "" "" "Font generated by IcoMoon."
GaspTable: 1 65535 15 1
Encoding: UnicodeFull
UnicodeInterp: none
NameList: AGL For New Fonts
DisplaySize: -128
AntiAlias: 1
FitToEm: 0
WinInfo: 52 26 9
BeginChars: 1114113 119

StartChar: uni0000
Encoding: 0 0 1
Width: 0
Flags: W
LayerCount: 2
Fore
SplineSet
0 0 m 1,0,-1
 0 0 l 1,1,-1
 0 0 l 1,2,-1
 0 0 l 1,0,-1
EndSplineSet
EndChar

StartChar: uni0001
Encoding: 1 1 2
Width: 0
Flags: W
LayerCount: 2
Fore
SplineSet
0 0 m 1,0,-1
 0 0 l 1,1,-1
 0 0 l 1,2,-1
 0 0 l 1,0,-1
EndSplineSet
EndChar

StartChar: space
Encoding: 32 32 3
Width: 0
Flags: W
LayerCount: 2
Fore
SplineSet
0 0 m 1,0,-1
 0 0 l 1,1,-1
 0 0 l 1,2,-1
 0 0 l 1,0,-1
EndSplineSet
EndChar

StartChar: exclam
Encoding: 33 33 4
Width: 1024
Flags: W
LayerCount: 2
Fore
SplineSet
516 940 m 1,0,-1
 408 866 l 1,1,2
 417 857 417 857 425.5 849.5 c 128,-1,3
 434 842 434 842 442 834 c 0,4,5
 454 827 454 827 458.5 817.5 c 128,-1,6
 463 808 463 808 454 796 c 1,7,8
 451 781 451 781 438.5 775 c 128,-1,9
 426 769 426 769 412 766 c 0,10,11
 375 754 375 754 337.5 738 c 128,-1,12
 300 722 300 722 264 704 c 1,13,14
 234 694 234 694 211 673 c 128,-1,15
 188 652 188 652 164 634 c 0,16,17
 152 621 152 621 142 606 c 128,-1,18
 132 591 132 591 124 576 c 0,19,20
 118 557 118 557 109.5 537 c 128,-1,21
 101 517 101 517 102 496 c 0,22,23
 101 468 101 468 111.5 441.5 c 128,-1,24
 122 415 122 415 130 388 c 0,25,26
 140 366 140 366 156 345.5 c 128,-1,27
 172 325 172 325 184 304 c 0,28,29
 215 262 215 262 252.5 226 c 128,-1,30
 290 190 290 190 328 154 c 0,31,32
 352 133 352 133 380.5 116.5 c 128,-1,33
 409 100 409 100 436 82 c 1,34,35
 376 81 376 81 317.5 79.5 c 128,-1,36
 259 78 259 78 200 78 c 1,37,38
 199 47 199 47 198.5 16.5 c 128,-1,39
 198 -14 198 -14 198 -46 c 1,40,-1
 832 -46 l 1,41,-1
 834 74 l 1,42,43
 774 75 774 75 714 76.5 c 128,-1,44
 654 78 654 78 594 80 c 1,45,46
 607 89 607 89 619.5 99 c 128,-1,47
 632 109 632 109 646 118 c 0,48,49
 673 139 673 139 702.5 158.5 c 128,-1,50
 732 178 732 178 756 204 c 0,51,52
 780 231 780 231 806 255.5 c 128,-1,53
 832 280 832 280 850 310 c 0,54,55
 866 331 866 331 878.5 355.5 c 128,-1,56
 891 380 891 380 902 404 c 0,57,58
 914 426 914 426 918.5 451 c 128,-1,59
 923 476 923 476 922 502 c 0,60,61
 921 524 921 524 916.5 547 c 128,-1,62
 912 570 912 570 898 590 c 0,63,64
 889 609 889 609 874 624 c 128,-1,65
 859 639 859 639 842 654 c 0,66,67
 829 669 829 669 812.5 680 c 128,-1,68
 796 691 796 691 778 700 c 0,69,70
 735 725 735 725 687 742.5 c 128,-1,71
 639 760 639 760 592 780 c 0,72,73
 582 786 582 786 579 797.5 c 128,-1,74
 576 809 576 809 570 820 c 1,75,-1
 622 860 l 1,76,77
 595 879 595 879 569 899.5 c 128,-1,78
 543 920 543 920 516 940 c 1,0,-1
516 738 m 0,79,80
 568 738 568 738 614 718.5 c 128,-1,81
 660 699 660 699 698 658 c 0,82,83
 737 619 737 619 756.5 568.5 c 128,-1,84
 776 518 776 518 776 458 c 0,85,86
 776 397 776 397 756.5 346 c 128,-1,87
 737 295 737 295 698 254 c 0,88,89
 659 212 659 212 612.5 192 c 128,-1,90
 566 172 566 172 510 172 c 0,91,92
 453 172 453 172 406 191.5 c 128,-1,93
 359 211 359 211 320 252 c 0,94,95
 283 291 283 291 263.5 343 c 128,-1,96
 244 395 244 395 244 458 c 0,97,98
 244 522 244 522 266 574.5 c 128,-1,99
 288 627 288 627 332 668 c 0,100,101
 371 704 371 704 416.5 721 c 128,-1,102
 462 738 462 738 516 738 c 0,79,80
508 710 m 0,103,104
 472 710 472 710 442.5 696.5 c 128,-1,105
 413 683 413 683 392 656 c 0,106,107
 364 622 364 622 350 573 c 128,-1,108
 336 524 336 524 336 458 c 256,109,110
 336 392 336 392 350.5 341 c 128,-1,111
 365 290 365 290 394 254 c 0,112,113
 415 227 415 227 443.5 213.5 c 128,-1,114
 472 200 472 200 508 200 c 0,115,116
 547 200 547 200 578.5 215 c 128,-1,117
 610 230 610 230 634 260 c 0,118,119
 659 290 659 290 671.5 336.5 c 128,-1,120
 684 383 684 383 684 448 c 0,121,122
 684 517 684 517 670.5 569 c 128,-1,123
 657 621 657 621 630 656 c 0,124,125
 608 683 608 683 577.5 696.5 c 128,-1,126
 547 710 547 710 508 710 c 0,103,104
EndSplineSet
EndChar

StartChar: quotedbl
Encoding: 34 34 5
Width: 1024
Flags: W
LayerCount: 2
Fore
SplineSet
12 -56 m 0,0,1
 5 -53 5 -53 3.5 -50 c 128,-1,2
 2 -47 2 -47 2 -32 c 2,3,-1
 0 -22 l 1,4,-1
 40 -2 l 1,5,-1
 180 140 l 1,6,-1
 180 150 l 2,7,8
 180 157 180 157 178 162.5 c 128,-1,9
 176 168 176 168 164 188 c 0,10,11
 157 198 157 198 151.5 208.5 c 128,-1,12
 146 219 146 219 146 222 c 0,13,14
 145 228 145 228 142 255 c 128,-1,15
 139 282 139 282 140 282 c 1,16,17
 140 283 140 283 144 283.5 c 128,-1,18
 148 284 148 284 154 286 c 0,19,20
 163 286 163 286 164.5 285.5 c 128,-1,21
 166 285 166 285 168 282 c 0,22,23
 168 281 168 281 168 270.5 c 128,-1,24
 168 260 168 260 168 248 c 0,25,26
 168 221 168 221 170 215.5 c 128,-1,27
 172 210 172 210 184 210 c 0,28,29
 191 210 191 210 198 212.5 c 128,-1,30
 205 215 205 215 226 226 c 2,31,-1
 256 242 l 1,32,-1
 334 320 l 2,33,34
 367 353 367 353 396 383 c 128,-1,35
 425 413 425 413 434 422 c 2,36,-1
 458 444 l 1,37,-1
 458 464 l 1,38,-1
 242 678 l 1,39,-1
 28 894 l 1,40,-1
 20 918 l 2,41,42
 13 943 13 943 12 948.5 c 128,-1,43
 11 954 11 954 14 954 c 0,44,45
 15 954 15 954 24 951.5 c 128,-1,46
 33 949 33 949 44 946 c 2,47,-1
 70 938 l 1,48,-1
 164 844 l 2,49,50
 184 825 184 825 211 798 c 256,51,52
 238 771 238 771 267.5 742 c 128,-1,53
 297 713 297 713 326 684 c 256,54,55
 355 655 355 655 380 630 c 0,56,57
 476 534 476 534 491.5 520.5 c 128,-1,58
 507 507 507 507 518 510 c 0,59,60
 521 510 521 510 551.5 540 c 128,-1,61
 582 570 582 570 642 630 c 0,62,63
 667 655 667 655 696 684 c 0,64,65
 726 713 726 713 755.5 742 c 128,-1,66
 785 771 785 771 812 798 c 0,67,68
 838 824 838 824 858 844 c 2,69,-1
 954 938 l 1,70,-1
 980 946 l 2,71,72
 990 949 990 949 998 951.5 c 128,-1,73
 1006 954 1006 954 1008 954 c 0,74,75
 1012 954 1012 954 1012 949 c 128,-1,76
 1012 944 1012 944 1004 918 c 2,77,-1
 996 894 l 1,78,-1
 566 464 l 1,79,-1
 566 446 l 1,80,-1
 768 242 l 1,81,-1
 798 226 l 2,82,83
 817 216 817 216 823.5 213 c 128,-1,84
 830 210 830 210 838 210 c 0,85,86
 850 210 850 210 852 215.5 c 128,-1,87
 854 221 854 221 854 248 c 0,88,89
 854 260 854 260 855 270 c 128,-1,90
 856 280 856 280 856 282 c 0,91,92
 857 285 857 285 859 285.5 c 128,-1,93
 861 286 861 286 870 286 c 0,94,95
 874 285 874 285 878 284.5 c 128,-1,96
 882 284 882 284 884 282 c 2,97,98
 884 282 884 282 882 258.5 c 128,-1,99
 880 235 880 235 878 224 c 0,100,101
 878 221 878 221 870.5 206.5 c 128,-1,102
 863 192 863 192 846 166 c 0,103,104
 845 163 845 163 843.5 159.5 c 128,-1,105
 842 156 842 156 842 150 c 2,106,-1
 842 140 l 1,107,-1
 984 -2 l 1,108,-1
 1022 -22 l 1,109,-1
 1022 -32 l 2,110,111
 1022 -47 1022 -47 1020.5 -50 c 128,-1,112
 1019 -53 1019 -53 1008 -56 c 0,113,114
 1004 -56 1004 -56 999 -57 c 128,-1,115
 994 -58 994 -58 992 -58 c 0,116,117
 991 -57 991 -57 987.5 -52 c 128,-1,118
 984 -47 984 -47 978 -36 c 2,119,-1
 968 -16 l 1,120,-1
 902 50 l 2,121,122
 874 78 874 78 852.5 99 c 128,-1,123
 831 120 831 120 828 122 c 0,124,125
 825 123 825 123 822.5 124 c 128,-1,126
 820 125 820 125 814 124 c 0,127,128
 808 124 808 124 802.5 121.5 c 128,-1,129
 797 119 797 119 782 108 c 0,130,131
 758 93 758 93 752 90.5 c 128,-1,132
 746 88 746 88 732 86 c 0,133,134
 725 86 725 86 715.5 85 c 128,-1,135
 706 84 706 84 700 82 c 0,136,137
 691 81 691 81 688.5 81.5 c 128,-1,138
 686 82 686 82 684 84 c 0,139,140
 681 87 681 87 681 95 c 128,-1,141
 681 103 681 103 682 106 c 0,142,143
 683 107 683 107 687.5 108.5 c 128,-1,144
 692 110 692 110 716 110 c 256,145,146
 740 110 740 110 744.5 110.5 c 128,-1,147
 749 111 749 111 752 114 c 0,148,149
 755 115 755 115 755.5 118 c 128,-1,150
 756 121 756 121 756 126 c 0,151,152
 756 132 756 132 754 138.5 c 128,-1,153
 752 145 752 145 744 160 c 0,154,155
 740 170 740 170 734.5 179.5 c 128,-1,156
 729 189 729 189 726 194 c 0,157,158
 723 198 723 198 694 228 c 128,-1,159
 665 258 665 258 620 302 c 2,160,-1
 520 400 l 1,161,-1
 510 400 l 1,162,-1
 502 398 l 1,163,-1
 454 354 l 2,164,165
 435 335 435 335 406 305 c 128,-1,166
 377 275 377 275 354 254 c 2,167,-1
 300 200 l 1,168,-1
 284 168 l 2,169,170
 278 156 278 156 273 145.5 c 128,-1,171
 268 135 268 135 268 132 c 0,172,173
 267 126 267 126 268 120 c 128,-1,174
 269 114 269 114 274 112 c 0,175,176
 275 112 275 112 284.5 111 c 128,-1,177
 294 110 294 110 308 110 c 0,178,179
 320 110 320 110 330 110 c 128,-1,180
 340 110 340 110 342 110 c 0,181,182
 343 109 343 109 343 97 c 128,-1,183
 343 85 343 85 340 82 c 0,184,185
 339 81 339 81 333.5 81.5 c 128,-1,186
 328 82 328 82 314 82 c 0,187,188
 286 85 286 85 277 88 c 128,-1,189
 268 91 268 91 244 106 c 0,190,191
 225 118 225 118 218.5 121 c 128,-1,192
 212 124 212 124 206 124 c 0,193,194
 202 124 202 124 198.5 122.5 c 128,-1,195
 195 121 195 121 192 118 c 0,196,197
 191 117 191 117 169 97 c 128,-1,198
 147 77 147 77 120 50 c 2,199,-1
 54 -16 l 1,200,-1
 34 -56 l 1,201,-1
 28 -56 l 2,202,203
 25 -56 25 -56 20 -56 c 128,-1,204
 15 -56 15 -56 12 -56 c 0,0,1
EndSplineSet
EndChar

StartChar: numbersign
Encoding: 35 35 6
Width: 1024
Flags: W
LayerCount: 2
Fore
SplineSet
628 518 m 256,0,1
 628 548 628 548 620.5 572 c 128,-1,2
 613 596 613 596 598 614 c 0,3,4
 583 630 583 630 562 639 c 128,-1,5
 541 648 541 648 514 648 c 0,6,7
 496 648 496 648 478 644 c 128,-1,8
 460 640 460 640 442 632 c 0,9,10
 426 623 426 623 410 611 c 128,-1,11
 394 599 394 599 380 582 c 0,12,13
 367 567 367 567 355 547.5 c 128,-1,14
 343 528 343 528 334 504 c 256,15,16
 325 480 325 480 321.5 454.5 c 128,-1,17
 318 429 318 429 318 402 c 0,18,19
 318 371 318 371 325.5 345.5 c 128,-1,20
 333 320 333 320 348 302 c 0,21,22
 363 286 363 286 384 277 c 128,-1,23
 405 268 405 268 434 268 c 0,24,25
 461 268 461 268 486 277 c 128,-1,26
 511 286 511 286 534 306 c 0,27,28
 556 325 556 325 574 348 c 128,-1,29
 592 371 592 371 604 400 c 0,30,31
 616 428 616 428 622 458 c 128,-1,32
 628 488 628 488 628 518 c 256,0,1
950 448 m 2,33,34
 950 417 950 417 945.5 388.5 c 128,-1,35
 941 360 941 360 930 336 c 0,36,37
 920 311 920 311 905.5 291.5 c 128,-1,38
 891 272 891 272 874 258 c 0,39,40
 856 245 856 245 837 234.5 c 128,-1,41
 818 224 818 224 798 216 c 0,42,43
 779 209 779 209 758 204.5 c 128,-1,44
 737 200 737 200 716 200 c 0,45,46
 715 200 715 200 712 200 c 128,-1,47
 709 200 709 200 706 198 c 0,48,49
 703 197 703 197 701.5 195.5 c 128,-1,50
 700 194 700 194 698 194 c 0,51,52
 670 194 670 194 650 201.5 c 128,-1,53
 630 209 630 209 616 224 c 0,54,55
 609 234 609 234 604.5 245.5 c 128,-1,56
 600 257 600 257 598 272 c 1,57,58
 583 253 583 253 564 237.5 c 128,-1,59
 545 222 545 222 522 210 c 0,60,61
 500 197 500 197 474.5 190.5 c 128,-1,62
 449 184 449 184 422 184 c 0,63,64
 377 184 377 184 341.5 197.5 c 128,-1,65
 306 211 306 211 280 238 c 0,66,67
 255 265 255 265 242.5 303.5 c 128,-1,68
 230 342 230 342 230 392 c 0,69,70
 230 437 230 437 239 478.5 c 128,-1,71
 248 520 248 520 268 558 c 0,72,73
 286 595 286 595 311.5 626 c 128,-1,74
 337 657 337 657 370 678 c 0,75,76
 401 700 401 700 436.5 711 c 128,-1,77
 472 722 472 722 510 722 c 0,78,79
 535 722 535 722 556.5 717.5 c 128,-1,80
 578 713 578 713 598 702 c 0,81,82
 617 693 617 693 632.5 678.5 c 128,-1,83
 648 664 648 664 660 646 c 1,84,-1
 660 656 l 1,85,-1
 666 688 l 2,86,87
 667 689 667 689 667.5 691.5 c 128,-1,88
 668 694 668 694 670 696 c 0,89,90
 671 697 671 697 672.5 697.5 c 128,-1,91
 674 698 674 698 676 698 c 2,92,-1
 742 698 l 2,93,94
 743 698 743 698 745.5 696.5 c 128,-1,95
 748 695 748 695 750 692 c 0,96,97
 751 691 751 691 751.5 689 c 128,-1,98
 752 687 752 687 752 684 c 2,99,-1
 684 332 l 2,100,101
 683 326 683 326 681.5 319 c 128,-1,102
 680 312 680 312 680 306 c 0,103,104
 680 294 680 294 681.5 286.5 c 128,-1,105
 683 279 683 279 688 276 c 0,106,107
 691 272 691 272 697 270 c 128,-1,108
 703 268 703 268 714 268 c 0,109,110
 721 268 721 268 729 269 c 128,-1,111
 737 270 737 270 746 272 c 0,112,113
 753 272 753 272 763.5 275.5 c 128,-1,114
 774 279 774 279 788 284 c 0,115,116
 800 290 800 290 810.5 297.5 c 128,-1,117
 821 305 821 305 832 314 c 0,118,119
 841 323 841 323 848.5 335 c 128,-1,120
 856 347 856 347 864 364 c 0,121,122
 871 382 871 382 874.5 401.5 c 128,-1,123
 878 421 878 421 878 442 c 0,124,125
 878 526 878 526 853 592.5 c 128,-1,126
 828 659 828 659 778 710 c 0,127,128
 729 759 729 759 662.5 783.5 c 128,-1,129
 596 808 596 808 512 808 c 0,130,131
 475 808 475 808 440 801 c 128,-1,132
 405 794 405 794 370 780 c 0,133,134
 336 765 336 765 307 745.5 c 128,-1,135
 278 726 278 726 254 702 c 0,136,137
 229 677 229 677 209.5 648 c 128,-1,138
 190 619 190 619 176 584 c 0,139,140
 161 551 161 551 153.5 515.5 c 128,-1,141
 146 480 146 480 146 442 c 0,142,143
 146 406 146 406 153.5 370.5 c 128,-1,144
 161 335 161 335 176 300 c 0,145,146
 189 267 189 267 208.5 237.5 c 128,-1,147
 228 208 228 208 254 184 c 0,148,149
 278 160 278 160 306.5 140.5 c 128,-1,150
 335 121 335 121 370 106 c 0,151,152
 404 91 404 91 439 84.5 c 128,-1,153
 474 78 474 78 512 78 c 0,154,155
 576 78 576 78 634.5 98 c 128,-1,156
 693 118 693 118 744 160 c 0,157,158
 747 161 747 161 750 162.5 c 128,-1,159
 753 164 753 164 758 164 c 0,160,161
 761 164 761 164 764 162.5 c 128,-1,162
 767 161 767 161 770 158 c 2,163,-1
 792 130 l 2,164,165
 795 126 795 126 795.5 122.5 c 128,-1,166
 796 119 796 119 796 116 c 0,167,168
 796 112 796 112 794.5 108.5 c 128,-1,169
 793 105 793 105 790 102 c 0,170,171
 760 80 760 80 728 61 c 128,-1,172
 696 42 696 42 660 30 c 0,173,174
 624 17 624 17 587 10.5 c 128,-1,175
 550 4 550 4 512 4 c 0,176,177
 467 4 467 4 425 12.5 c 128,-1,178
 383 21 383 21 342 38 c 0,179,180
 302 56 302 56 266.5 79.5 c 128,-1,181
 231 103 231 103 202 132 c 0,182,183
 172 162 172 162 149 196.5 c 128,-1,184
 126 231 126 231 108 272 c 0,185,186
 90 312 90 312 82 355 c 128,-1,187
 74 398 74 398 74 442 c 0,188,189
 74 487 74 487 82 530 c 128,-1,190
 90 573 90 573 108 614 c 0,191,192
 126 654 126 654 149 689 c 128,-1,193
 172 724 172 724 202 754 c 0,194,195
 230 782 230 782 265.5 805.5 c 128,-1,196
 301 829 301 829 342 846 c 0,197,198
 382 864 382 864 424.5 873 c 128,-1,199
 467 882 467 882 512 882 c 0,200,201
 561 882 561 882 606 874 c 0,202,203
 650 867 650 867 689.5 852 c 128,-1,204
 729 837 729 837 764 814 c 256,205,206
 799 791 799 791 830 760 c 0,207,208
 860 730 860 730 882 695 c 0,209,210
 905 660 905 660 920 620.5 c 128,-1,211
 935 581 935 581 942 536 c 0,212,213
 950 492 950 492 950 442 c 2,214,-1
 950 448 l 2,33,34
EndSplineSet
EndChar

StartChar: dollar
Encoding: 36 36 7
Width: 1024
Flags: W
LayerCount: 2
Fore
SplineSet
506 926 m 1,0,1
 454 886 454 886 358 801 c 0,2,3
 262 717 262 717 180.5 631.5 c 128,-1,4
 99 546 99 546 61 482 c 0,5,6
 24 418 24 418 90 418 c 2,7,-1
 212 418 l 1,8,-1
 212 -10 l 1,9,-1
 812 -10 l 1,10,-1
 812 418 l 1,11,-1
 946 418 l 2,12,13
 1014 418 1014 418 975 482 c 0,14,15
 935 546 935 546 849 631.5 c 128,-1,16
 763 717 763 717 662 801 c 256,17,18
 561 885 561 885 506 926 c 1,0,1
522 644 m 0,19,20
 547 644 547 644 571.5 641 c 128,-1,21
 596 638 596 638 622 632 c 0,22,23
 647 626 647 626 669 618.5 c 128,-1,24
 691 611 691 611 708 602 c 1,25,-1
 708 502 l 1,26,-1
 704 502 l 1,27,28
 686 515 686 515 664 526 c 128,-1,29
 642 537 642 537 616 546 c 0,30,31
 591 555 591 555 565.5 559.5 c 128,-1,32
 540 564 540 564 514 564 c 0,33,34
 489 564 489 564 467.5 559.5 c 128,-1,35
 446 555 446 555 428 544 c 0,36,37
 410 535 410 535 401 520.5 c 128,-1,38
 392 506 392 506 392 486 c 0,39,40
 392 468 392 468 397.5 455.5 c 128,-1,41
 403 443 403 443 414 434 c 0,42,43
 424 425 424 425 441 418 c 128,-1,44
 458 411 458 411 482 406 c 0,45,46
 495 403 495 403 509 400 c 128,-1,47
 523 397 523 397 540 394 c 0,48,49
 556 391 556 391 569.5 388 c 128,-1,50
 583 385 583 385 594 382 c 0,51,52
 627 375 627 375 651.5 362.5 c 128,-1,53
 676 350 676 350 694 332 c 0,54,55
 712 313 712 313 721 288.5 c 128,-1,56
 730 264 730 264 730 234 c 0,57,58
 730 195 730 195 714 163.5 c 128,-1,59
 698 132 698 132 666 108 c 0,60,61
 635 84 635 84 592.5 71 c 128,-1,62
 550 58 550 58 494 58 c 0,63,64
 463 58 463 58 435 62 c 128,-1,65
 407 66 407 66 380 74 c 0,66,67
 355 81 355 81 333.5 89 c 128,-1,68
 312 97 312 97 294 106 c 1,69,-1
 294 212 l 1,70,-1
 298 212 l 1,71,72
 320 194 320 194 345.5 181.5 c 128,-1,73
 371 169 371 169 398 158 c 0,74,75
 425 148 425 148 450.5 143 c 128,-1,76
 476 138 476 138 502 138 c 0,77,78
 533 138 533 138 557.5 142.5 c 128,-1,79
 582 147 582 147 600 158 c 0,80,81
 616 168 616 168 625 183.5 c 128,-1,82
 634 199 634 199 634 222 c 0,83,84
 634 238 634 238 629.5 250.5 c 128,-1,85
 625 263 625 263 616 272 c 0,86,87
 606 279 606 279 587.5 286.5 c 128,-1,88
 569 294 569 294 542 300 c 0,89,90
 532 303 532 303 519.5 305 c 128,-1,91
 507 307 507 307 490 310 c 0,92,93
 474 313 474 313 459 316 c 128,-1,94
 444 319 444 319 432 324 c 0,95,96
 395 333 395 333 369 347.5 c 128,-1,97
 343 362 343 362 326 380 c 0,98,99
 311 399 311 399 303.5 422 c 128,-1,100
 296 445 296 445 296 474 c 0,101,102
 296 490 296 490 300 506.5 c 128,-1,103
 304 523 304 523 310 538 c 0,104,105
 317 553 317 553 328 566.5 c 128,-1,106
 339 580 339 580 354 592 c 0,107,108
 367 604 367 604 385 613 c 128,-1,109
 403 622 403 622 424 630 c 0,110,111
 446 637 446 637 470.5 640.5 c 128,-1,112
 495 644 495 644 522 644 c 0,19,20
EndSplineSet
EndChar

StartChar: percent
Encoding: 37 37 8
Width: 1024
Flags: W
LayerCount: 2
Fore
SplineSet
506 926 m 1,0,1
 454 886 454 886 358 806 c 0,2,3
 262 727 262 727 180.5 647.5 c 128,-1,4
 99 568 99 568 61 509 c 0,5,6
 24 450 24 450 90 450 c 2,7,-1
 212 450 l 1,8,-1
 212 -10 l 1,9,-1
 812 -10 l 1,10,-1
 812 450 l 1,11,12
 840 443 840 443 893 446.5 c 128,-1,13
 946 450 946 450 946 450 c 1,14,15
 1014 450 1014 450 975 509 c 0,16,17
 935 568 935 568 849 647.5 c 128,-1,18
 763 727 763 727 662 806 c 256,19,20
 561 885 561 885 506 926 c 1,0,1
514 546 m 0,21,22
 590 546 590 546 655 540 c 128,-1,23
 720 534 720 534 732 522 c 0,24,25
 744 511 744 511 750 446 c 256,26,27
 756 381 756 381 756 305 c 128,-1,28
 756 229 756 229 750 163 c 0,29,30
 744 98 744 98 732 86 c 0,31,32
 721 75 721 75 655 69 c 0,33,34
 590 64 590 64 514 64 c 128,-1,35
 438 64 438 64 373 69 c 0,36,37
 307 75 307 75 296 86 c 0,38,39
 285 98 285 98 279 163 c 0,40,41
 274 229 274 229 274 305 c 128,-1,42
 274 381 274 381 279 446 c 0,43,44
 285 511 285 511 296 522 c 0,45,46
 308 534 308 534 372.5 540 c 128,-1,47
 437 546 437 546 514 546 c 0,21,22
406 498 m 0,48,49
 384 498 384 498 368 482.5 c 128,-1,50
 352 467 352 467 352 444 c 0,51,52
 352 420 352 420 367.5 404 c 128,-1,53
 383 388 383 388 406 388 c 0,54,55
 430 388 430 388 446 404 c 128,-1,56
 462 420 462 420 462 444 c 0,57,58
 462 466 462 466 446 482 c 128,-1,59
 430 498 430 498 406 498 c 0,48,49
624 498 m 0,60,61
 602 498 602 498 585 482.5 c 128,-1,62
 568 467 568 467 568 444 c 0,63,64
 568 420 568 420 584.5 404 c 128,-1,65
 601 388 601 388 624 388 c 0,66,67
 646 388 646 388 663 404 c 128,-1,68
 680 420 680 420 680 444 c 0,69,70
 680 466 680 466 663.5 482 c 128,-1,71
 647 498 647 498 624 498 c 0,60,61
404 358 m 0,72,73
 382 358 382 358 366 342.5 c 128,-1,74
 350 327 350 327 350 304 c 0,75,76
 350 282 350 282 365.5 265 c 128,-1,77
 381 248 381 248 404 248 c 0,78,79
 426 248 426 248 443 264.5 c 128,-1,80
 460 281 460 281 460 304 c 0,81,82
 460 326 460 326 443.5 342 c 128,-1,83
 427 358 427 358 404 358 c 0,72,73
622 358 m 0,84,85
 600 358 600 358 583 342.5 c 128,-1,86
 566 327 566 327 566 304 c 0,87,88
 566 282 566 282 582.5 265 c 128,-1,89
 599 248 599 248 622 248 c 0,90,91
 644 248 644 248 660 264.5 c 128,-1,92
 676 281 676 281 676 304 c 0,93,94
 676 326 676 326 660.5 342 c 128,-1,95
 645 358 645 358 622 358 c 0,84,85
406 218 m 0,96,97
 382 218 382 218 366 202.5 c 128,-1,98
 350 187 350 187 350 164 c 0,99,100
 350 142 350 142 366 125 c 128,-1,101
 382 108 382 108 406 108 c 0,102,103
 428 108 428 108 444 124.5 c 128,-1,104
 460 141 460 141 460 164 c 0,105,106
 460 186 460 186 444.5 202 c 128,-1,107
 429 218 429 218 406 218 c 0,96,97
622 218 m 0,108,109
 600 218 600 218 584 202.5 c 128,-1,110
 568 187 568 187 568 164 c 0,111,112
 568 142 568 142 583.5 125 c 128,-1,113
 599 108 599 108 622 108 c 0,114,115
 644 108 644 108 661 124.5 c 128,-1,116
 678 141 678 141 678 164 c 0,117,118
 678 186 678 186 661.5 202 c 128,-1,119
 645 218 645 218 622 218 c 0,108,109
EndSplineSet
EndChar

StartChar: ampersand
Encoding: 38 38 9
Width: 1024
Flags: W
LayerCount: 2
Fore
SplineSet
506 926 m 1,0,1
 454 886 454 886 358 798 c 256,2,3
 262 710 262 710 180.5 620.5 c 128,-1,4
 99 531 99 531 61 464 c 0,5,6
 24 396 24 396 90 396 c 2,7,-1
 212 396 l 1,8,-1
 212 -10 l 1,9,-1
 812 -10 l 1,10,-1
 812 396 l 1,11,-1
 946 396 l 2,12,13
 1014 396 1014 396 975 464 c 0,14,15
 935 531 935 531 849 620.5 c 128,-1,16
 763 710 763 710 662 798 c 0,17,18
 561 885 561 885 506 926 c 1,0,1
484 744 m 1,19,20
 496 744 496 744 498 720 c 128,-1,21
 500 696 500 696 500 696 c 1,22,23
 561 691 561 691 608 666 c 0,24,25
 656 641 656 641 688 588.5 c 128,-1,26
 720 536 720 536 735 452 c 0,27,28
 751 368 751 368 748 246 c 1,29,-1
 392 246 l 1,30,31
 392 345 392 345 458.5 371 c 128,-1,32
 525 397 525 397 518 534 c 1,33,34
 500 506 500 506 463.5 477 c 128,-1,35
 427 448 427 448 406 434 c 0,36,37
 372 410 372 410 363 388.5 c 128,-1,38
 354 367 354 367 328 370 c 1,39,40
 316 382 316 382 330 400 c 128,-1,41
 344 418 344 418 328 418 c 0,42,43
 318 418 318 418 322.5 406.5 c 128,-1,44
 327 395 327 395 314 386 c 1,45,46
 302 386 302 386 277 387.5 c 128,-1,47
 252 389 252 389 252 448 c 0,48,49
 252 460 252 460 266 491 c 0,50,51
 281 521 281 521 298 553 c 128,-1,52
 315 585 315 585 330 609 c 0,53,54
 344 634 344 634 344 634 c 257,55,56
 344 634 344 634 359 652 c 128,-1,57
 374 670 374 670 376 690 c 1,58,59
 367 700 367 700 367.5 712 c 128,-1,60
 368 724 368 724 368 736 c 1,61,62
 380 748 380 748 397 722 c 128,-1,63
 414 696 414 696 414 696 c 1,64,-1
 446 696 l 1,65,66
 446 696 446 696 455 714 c 128,-1,67
 464 732 464 732 484 744 c 1,19,20
406 634 m 1,68,-1
 386 620 l 1,69,-1
 368 610 l 1,70,71
 371 604 371 604 376.5 601.5 c 128,-1,72
 382 599 382 599 388 600 c 0,73,74
 394 600 394 600 398.5 603 c 128,-1,75
 403 606 403 606 406 612 c 0,76,77
 409 616 409 616 409 622 c 128,-1,78
 409 628 409 628 406 634 c 1,68,-1
352 244 m 1,79,-1
 720 244 l 1,80,-1
 720 200 l 1,81,-1
 714 200 l 1,82,-1
 770 146 l 1,83,-1
 770 44 l 1,84,-1
 688 44 l 1,85,-1
 688 84 l 1,86,-1
 586 84 l 1,87,-1
 586 44 l 1,88,-1
 486 44 l 1,89,-1
 486 84 l 1,90,-1
 384 84 l 1,91,-1
 384 44 l 1,92,-1
 302 44 l 1,93,-1
 302 146 l 1,94,-1
 358 200 l 1,95,-1
 352 200 l 1,96,-1
 352 244 l 1,79,-1
EndSplineSet
EndChar

StartChar: quotesingle
Encoding: 39 39 10
Width: 1024
Flags: W
LayerCount: 2
Fore
SplineSet
404 752 m 1,0,1
 359 717 359 717 276 639 c 256,2,3
 193 561 193 561 123 481.5 c 128,-1,4
 53 402 53 402 21 342 c 256,5,6
 -11 282 -11 282 46 282 c 2,7,-1
 150 282 l 1,8,-1
 150 -56 l 1,9,-1
 668 -56 l 1,10,-1
 668 282 l 1,11,-1
 784 282 l 2,12,13
 843 282 843 282 809 342 c 256,14,15
 775 402 775 402 701 481.5 c 128,-1,16
 627 561 627 561 540 639 c 0,17,18
 452 717 452 717 404 752 c 1,0,1
386 594 m 1,19,20
 396 594 396 594 398 574 c 128,-1,21
 400 554 400 554 400 554 c 1,22,23
 452 549 452 549 493 527 c 256,24,25
 534 505 534 505 561.5 459.5 c 128,-1,26
 589 414 589 414 603 342 c 0,27,28
 616 270 616 270 614 164 c 1,29,-1
 306 164 l 1,30,31
 306 249 306 249 364 272 c 128,-1,32
 422 295 422 295 416 414 c 1,33,34
 400 389 400 389 369 363.5 c 128,-1,35
 338 338 338 338 318 326 c 0,36,37
 288 307 288 307 281.5 288 c 128,-1,38
 275 269 275 269 252 272 c 1,39,40
 242 281 242 281 253.5 296.5 c 128,-1,41
 265 312 265 312 252 312 c 0,42,43
 242 312 242 312 246 303 c 128,-1,44
 250 294 250 294 238 286 c 1,45,46
 229 286 229 286 206.5 287.5 c 128,-1,47
 184 289 184 289 184 340 c 0,48,49
 184 350 184 350 197 376 c 256,50,51
 210 402 210 402 225 429.5 c 128,-1,52
 240 457 240 457 253 479 c 0,53,54
 266 500 266 500 266 500 c 257,55,56
 266 500 266 500 278 515.5 c 128,-1,57
 290 531 290 531 292 546 c 1,58,59
 285 556 285 556 285.5 566.5 c 128,-1,60
 286 577 286 577 286 588 c 1,61,62
 295 597 295 597 310.5 575.5 c 128,-1,63
 326 554 326 554 326 554 c 1,64,-1
 352 554 l 1,65,66
 352 554 352 554 360 568.5 c 128,-1,67
 368 583 368 583 386 594 c 1,19,20
318 498 m 1,68,-1
 286 478 l 2,69,70
 287 474 287 474 292 471.5 c 128,-1,71
 297 469 297 469 302 470 c 0,72,73
 306 470 306 470 311 472.5 c 128,-1,74
 316 475 316 475 318 480 c 0,75,76
 321 484 321 484 321 489.5 c 128,-1,77
 321 495 321 495 318 498 c 1,68,-1
272 162 m 1,78,-1
 588 162 l 1,79,-1
 588 124 l 1,80,-1
 584 124 l 1,81,-1
 632 78 l 1,82,-1
 632 -10 l 1,83,-1
 562 -10 l 1,84,-1
 562 24 l 1,85,-1
 474 24 l 1,86,-1
 474 -10 l 1,87,-1
 386 -10 l 1,88,-1
 386 24 l 1,89,-1
 300 24 l 1,90,-1
 300 -10 l 1,91,-1
 230 -10 l 1,92,-1
 230 78 l 1,93,-1
 276 124 l 1,94,-1
 272 124 l 1,95,-1
 272 162 l 1,78,-1
820 952 m 256,96,97
 757 952 757 952 702 947.5 c 128,-1,98
 647 943 647 943 638 932 c 0,99,100
 628 922 628 922 623 868 c 0,101,102
 619 813 619 813 619 750 c 128,-1,103
 619 687 619 687 623 632 c 0,104,105
 628 578 628 578 638 568 c 256,106,107
 648 558 648 558 702 553 c 0,108,109
 757 549 757 549 820 549 c 128,-1,110
 883 549 883 549 938 553 c 0,111,112
 992 558 992 558 1002 568 c 256,113,114
 1012 578 1012 578 1017 632 c 0,115,116
 1021 687 1021 687 1021 750 c 128,-1,117
 1021 813 1021 813 1017 868 c 0,118,119
 1012 922 1012 922 1002 932 c 256,120,121
 992 942 992 942 937.5 947 c 128,-1,122
 883 952 883 952 820 952 c 256,96,97
730 912 m 0,123,124
 749 912 749 912 762.5 899 c 128,-1,125
 776 886 776 886 776 866 c 0,126,127
 776 848 776 848 763 834 c 128,-1,128
 750 820 750 820 730 820 c 0,129,130
 711 820 711 820 697.5 834 c 128,-1,131
 684 848 684 848 684 866 c 0,132,133
 684 885 684 885 697 898.5 c 128,-1,134
 710 912 710 912 730 912 c 0,123,124
912 912 m 0,135,136
 930 912 930 912 944 899 c 128,-1,137
 958 886 958 886 958 866 c 0,138,139
 958 848 958 848 944 834 c 128,-1,140
 930 820 930 820 912 820 c 0,141,142
 893 820 893 820 879.5 834 c 128,-1,143
 866 848 866 848 866 866 c 0,144,145
 866 885 866 885 879 898.5 c 128,-1,146
 892 912 892 912 912 912 c 0,135,136
728 796 m 0,147,148
 747 796 747 796 760.5 783 c 128,-1,149
 774 770 774 770 774 750 c 0,150,151
 774 731 774 731 761 717.5 c 128,-1,152
 748 704 748 704 728 704 c 0,153,154
 709 704 709 704 695.5 717 c 128,-1,155
 682 730 682 730 682 750 c 0,156,157
 682 769 682 769 695 782.5 c 128,-1,158
 708 796 708 796 728 796 c 0,147,148
910 796 m 0,159,160
 919 796 919 796 927.5 792 c 128,-1,161
 936 788 936 788 942 782 c 256,162,163
 948 776 948 776 952 767.5 c 128,-1,164
 956 759 956 759 956 750 c 0,165,166
 956 731 956 731 942 717.5 c 128,-1,167
 928 704 928 704 910 704 c 0,168,169
 891 704 891 704 877.5 717 c 128,-1,170
 864 730 864 730 864 750 c 0,171,172
 864 769 864 769 877 782.5 c 128,-1,173
 890 796 890 796 910 796 c 0,159,160
728 680 m 0,174,175
 747 680 747 680 760.5 666 c 128,-1,176
 774 652 774 652 774 634 c 0,177,178
 774 615 774 615 761 601.5 c 128,-1,179
 748 588 748 588 728 588 c 0,180,181
 710 588 710 588 696 601 c 128,-1,182
 682 614 682 614 682 634 c 0,183,184
 682 652 682 652 696 666 c 128,-1,185
 710 680 710 680 728 680 c 0,174,175
910 680 m 0,186,187
 929 680 929 680 942.5 666 c 128,-1,188
 956 652 956 652 956 634 c 0,189,190
 956 615 956 615 943 601.5 c 128,-1,191
 930 588 930 588 910 588 c 0,192,193
 891 588 891 588 877.5 601 c 128,-1,194
 864 614 864 614 864 634 c 0,195,196
 864 652 864 652 877 666 c 128,-1,197
 890 680 890 680 910 680 c 0,186,187
EndSplineSet
EndChar

StartChar: parenleft
Encoding: 40 40 11
Width: 1024
Flags: W
LayerCount: 2
Fore
SplineSet
508 908 m 1,0,-1
 396 798 l 1,1,-1
 240 820 l 1,2,-1
 214 666 l 1,3,-1
 76 592 l 1,4,-1
 144 452 l 1,5,-1
 76 310 l 1,6,-1
 214 238 l 1,7,-1
 242 82 l 1,8,-1
 396 106 l 1,9,-1
 510 -4 l 1,10,-1
 622 106 l 1,11,-1
 778 84 l 1,12,-1
 804 238 l 1,13,-1
 942 312 l 1,14,-1
 874 452 l 1,15,-1
 942 594 l 1,16,-1
 804 666 l 1,17,-1
 776 822 l 1,18,-1
 620 798 l 1,19,-1
 508 908 l 1,0,-1
508 782 m 256,20,21
 576 782 576 782 636 756 c 256,22,23
 696 730 696 730 741 685 c 128,-1,24
 786 640 786 640 812 580 c 256,25,26
 838 520 838 520 838 452 c 256,27,28
 838 384 838 384 812 324 c 256,29,30
 786 264 786 264 741 219 c 128,-1,31
 696 174 696 174 636 148 c 256,32,33
 576 122 576 122 508 122 c 256,34,35
 440 122 440 122 380 148 c 256,36,37
 320 174 320 174 275.5 219 c 128,-1,38
 231 264 231 264 206 324 c 0,39,40
 180 384 180 384 180 452 c 256,41,42
 180 520 180 520 206 580 c 0,43,44
 231 640 231 640 275.5 685 c 128,-1,45
 320 730 320 730 380 756 c 256,46,47
 440 782 440 782 508 782 c 256,20,21
EndSplineSet
EndChar

StartChar: parenright
Encoding: 41 41 12
Width: 1024
Flags: W
LayerCount: 2
Fore
SplineSet
512 924 m 1,0,-1
 190 812 l 1,1,-1
 102 -28 l 1,2,-1
 922 -28 l 1,3,-1
 834 812 l 1,4,-1
 512 924 l 1,0,-1
484 668 m 1,5,-1
 536 668 l 2,6,7
 548 665 548 665 548 660.5 c 128,-1,8
 548 656 548 656 538 648 c 1,9,-1
 538 602 l 1,10,-1
 772 602 l 1,11,-1
 772 558 l 1,12,-1
 254 558 l 1,13,-1
 254 602 l 1,14,-1
 484 602 l 1,15,-1
 484 668 l 1,5,-1
332 512 m 1,16,-1
 690 512 l 1,17,-1
 690 330 l 1,18,-1
 644 330 l 1,19,-1
 644 344 l 1,20,-1
 542 344 l 1,21,-1
 542 170 l 2,22,23
 542 152 542 152 533 142 c 128,-1,24
 524 132 524 132 504 132 c 2,25,-1
 444 132 l 1,26,-1
 434 184 l 1,27,-1
 486 184 l 2,28,29
 490 184 490 184 493 186.5 c 128,-1,30
 496 189 496 189 496 194 c 2,31,-1
 496 344 l 1,32,-1
 378 344 l 1,33,-1
 378 322 l 1,34,-1
 332 322 l 1,35,-1
 332 512 l 1,16,-1
378 468 m 1,36,-1
 378 388 l 1,37,-1
 644 388 l 1,38,-1
 644 468 l 1,39,-1
 378 468 l 1,36,-1
392 308 m 1,40,-1
 434 268 l 2,41,42
 438 262 438 262 434.5 260.5 c 128,-1,43
 431 259 431 259 420 260 c 1,44,45
 393 229 393 229 358.5 202 c 128,-1,46
 324 175 324 175 280 152 c 1,47,-1
 252 206 l 1,48,49
 295 227 295 227 330.5 252.5 c 128,-1,50
 366 278 366 278 392 308 c 1,40,-1
628 308 m 1,51,52
 652 275 652 275 686.5 251 c 128,-1,53
 721 227 721 227 768 210 c 1,54,-1
 738 158 l 1,55,56
 690 176 690 176 651.5 205.5 c 128,-1,57
 613 235 613 235 584 276 c 1,58,-1
 628 308 l 1,51,52
EndSplineSet
EndChar

StartChar: asterisk
Encoding: 42 42 13
Width: 1024
Flags: W
LayerCount: 2
Fore
SplineSet
512 926 m 1,0,1
 457 886 457 886 358 802 c 256,2,3
 259 718 259 718 176 633.5 c 128,-1,4
 93 549 93 549 55 486 c 0,5,6
 18 422 18 422 86 422 c 2,7,-1
 204 422 l 1,8,-1
 204 -10 l 1,9,-1
 820 -10 l 1,10,-1
 820 422 l 1,11,-1
 942 422 l 2,12,13
 1008 424 1008 424 969 488 c 256,14,15
 930 552 930 552 846 636 c 128,-1,16
 762 720 762 720 663 803 c 0,17,18
 565 885 565 885 512 926 c 1,0,1
512 610 m 1,19,-1
 580 546 l 1,20,-1
 672 558 l 1,21,-1
 688 466 l 1,22,-1
 770 424 l 1,23,-1
 730 340 l 1,24,-1
 772 256 l 1,25,-1
 688 212 l 1,26,-1
 672 120 l 1,27,-1
 580 132 l 1,28,-1
 514 68 l 1,29,-1
 446 132 l 1,30,-1
 354 118 l 1,31,-1
 338 210 l 1,32,-1
 256 254 l 1,33,-1
 296 338 l 1,34,-1
 254 422 l 1,35,-1
 336 466 l 1,36,-1
 352 558 l 1,37,-1
 446 546 l 1,38,-1
 512 610 l 1,19,-1
512 534 m 0,39,40
 472 534 472 534 436 519 c 256,41,42
 400 504 400 504 373.5 477.5 c 128,-1,43
 347 451 347 451 331 415 c 0,44,45
 316 379 316 379 316 338 c 0,46,47
 316 298 316 298 331 262 c 0,48,49
 347 226 347 226 373.5 199.5 c 128,-1,50
 400 173 400 173 436 157 c 0,51,52
 471 142 471 142 512 142 c 256,53,54
 553 142 553 142 589 157 c 0,55,56
 625 173 625 173 651.5 199.5 c 128,-1,57
 678 226 678 226 693 262 c 0,58,59
 708 297 708 297 708 338 c 256,60,61
 708 379 708 379 693 415 c 256,62,63
 678 451 678 451 651.5 477.5 c 128,-1,64
 625 504 625 504 589 519 c 256,65,66
 553 534 553 534 512 534 c 0,39,40
EndSplineSet
EndChar

StartChar: plus
Encoding: 43 43 14
Width: 1024
Flags: W
LayerCount: 2
Fore
SplineSet
512 926 m 1,0,1
 457 886 457 886 358 802 c 256,2,3
 259 718 259 718 176 633.5 c 128,-1,4
 93 549 93 549 55 486 c 0,5,6
 18 422 18 422 86 422 c 2,7,-1
 204 422 l 1,8,-1
 204 -10 l 1,9,-1
 820 -10 l 1,10,-1
 820 422 l 1,11,-1
 942 422 l 2,12,13
 1008 424 1008 424 969 488 c 256,14,15
 930 552 930 552 846 636 c 128,-1,16
 762 720 762 720 663 803 c 0,17,18
 565 885 565 885 512 926 c 1,0,1
632 560 m 256,19,20
 659 560 659 560 677.5 540.5 c 128,-1,21
 696 521 696 521 696 494 c 256,22,23
 696 467 696 467 677.5 448.5 c 128,-1,24
 659 430 659 430 632 430 c 256,25,26
 605 430 605 430 586.5 448.5 c 128,-1,27
 568 467 568 467 568 494 c 256,28,29
 568 521 568 521 586.5 540.5 c 128,-1,30
 605 560 605 560 632 560 c 256,19,20
408 488 m 0,31,32
 433 488 433 488 452.5 469.5 c 128,-1,33
 472 451 472 451 472 424 c 256,34,35
 472 397 472 397 453 377.5 c 128,-1,36
 434 358 434 358 408 358 c 0,37,38
 381 358 381 358 362.5 377.5 c 128,-1,39
 344 397 344 397 344 424 c 256,40,41
 344 451 344 451 362.5 469.5 c 128,-1,42
 381 488 381 488 408 488 c 0,31,32
742 270 m 1,43,-1
 708 212 l 2,44,45
 696 188 696 188 672 161.5 c 128,-1,46
 648 135 648 135 580 162 c 2,47,-1
 502 196 l 2,48,49
 400 238 400 238 399 178 c 128,-1,50
 398 118 398 118 278 202 c 1,51,52
 278 202 278 202 310 194.5 c 128,-1,53
 342 187 342 187 362 188 c 0,54,55
 389 189 389 189 404.5 214 c 128,-1,56
 420 239 420 239 446 242 c 0,57,58
 495 246 495 246 539.5 204.5 c 128,-1,59
 584 163 584 163 632 170 c 0,60,61
 668 176 668 176 705 223 c 128,-1,62
 742 270 742 270 742 270 c 1,43,-1
EndSplineSet
EndChar

StartChar: comma
Encoding: 44 44 15
Width: 1024
Flags: W
LayerCount: 2
Fore
SplineSet
310 832 m 1,0,1
 285 817 285 817 272.5 795.5 c 128,-1,2
 260 774 260 774 260 774 c 1,3,-1
 222 774 l 1,4,5
 222 774 222 774 200 805.5 c 128,-1,6
 178 837 178 837 164 822 c 1,7,8
 164 809 164 809 163 794 c 128,-1,9
 162 779 162 779 174 764 c 1,10,11
 171 740 171 740 152.5 718 c 128,-1,12
 134 696 134 696 134 696 c 257,13,14
 134 696 134 696 116 665 c 0,15,16
 97 634 97 634 75 593.5 c 128,-1,17
 53 553 53 553 34 515 c 0,18,19
 16 476 16 476 16 462 c 0,20,21
 16 389 16 389 48 386.5 c 128,-1,22
 80 384 80 384 94 384 c 1,23,24
 112 394 112 394 105.5 408 c 128,-1,25
 99 422 99 422 114 422 c 0,26,27
 135 422 135 422 117 400 c 128,-1,28
 99 378 99 378 114 364 c 1,29,30
 147 358 147 358 157.5 385 c 128,-1,31
 168 412 168 412 212 442 c 0,32,33
 239 460 239 460 284.5 496 c 128,-1,34
 330 532 330 532 354 570 c 1,35,36
 358 484 358 484 334 439 c 0,37,38
 309 395 309 395 277.5 364 c 128,-1,39
 246 333 246 333 219 301 c 0,40,41
 192 270 192 270 192 208 c 1,42,-1
 642 208 l 1,43,44
 645 325 645 325 634 413 c 0,45,46
 623 502 623 502 599.5 566 c 128,-1,47
 576 630 576 630 541 672 c 256,48,49
 506 714 506 714 460 738 c 0,50,51
 442 748 442 748 424 754.5 c 128,-1,52
 406 761 406 761 388 764 c 1,53,-1
 388 764 l 1,54,55
 375 767 375 767 360 769.5 c 128,-1,56
 345 772 345 772 330 774 c 1,57,58
 330 774 330 774 327.5 803 c 128,-1,59
 325 832 325 832 310 832 c 1,0,1
210 694 m 1,60,61
 214 688 214 688 214.5 681 c 128,-1,62
 215 674 215 674 212 666 c 0,63,64
 208 660 208 660 202 656 c 128,-1,65
 196 652 196 652 188 650 c 0,66,67
 181 650 181 650 174 654 c 128,-1,68
 167 658 167 658 164 664 c 1,69,-1
 188 678 l 1,70,-1
 210 694 l 1,60,61
154 202 m 1,71,-1
 154 148 l 1,72,-1
 160 148 l 1,73,-1
 90 80 l 1,74,-1
 90 -48 l 1,75,-1
 192 -48 l 1,76,-1
 192 4 l 1,77,-1
 320 4 l 1,78,-1
 320 -48 l 1,79,-1
 448 -48 l 1,80,-1
 448 4 l 1,81,-1
 576 4 l 1,82,-1
 576 -48 l 1,83,-1
 678 -48 l 1,84,-1
 678 80 l 1,85,-1
 608 148 l 1,86,-1
 616 148 l 1,87,-1
 616 202 l 1,88,-1
 154 202 l 1,71,-1
816 952 m 0,89,90
 753 952 753 952 699 947.5 c 128,-1,91
 645 943 645 943 634 934 c 0,92,93
 624 924 624 924 619 870 c 0,94,95
 615 815 615 815 615 751 c 128,-1,96
 615 687 615 687 619 633 c 0,97,98
 624 578 624 578 634 568 c 0,99,100
 644 559 644 559 698 555 c 0,101,102
 753 550 753 550 816 550 c 128,-1,103
 879 550 879 550 934 554 c 0,104,105
 988 559 988 559 998 568 c 0,106,107
 1008 578 1008 578 1013 632 c 0,108,109
 1017 687 1017 687 1017 751 c 128,-1,110
 1017 815 1017 815 1013 869 c 0,111,112
 1008 924 1008 924 998 934 c 0,113,114
 989 943 989 943 935 947.5 c 128,-1,115
 881 952 881 952 816 952 c 0,89,90
726 912 m 0,116,117
 745 912 745 912 758.5 899 c 128,-1,118
 772 886 772 886 772 866 c 0,119,120
 772 848 772 848 759 834 c 128,-1,121
 746 820 746 820 726 820 c 0,122,123
 708 820 708 820 694 834 c 128,-1,124
 680 848 680 848 680 866 c 0,125,126
 680 885 680 885 694 898.5 c 128,-1,127
 708 912 708 912 726 912 c 0,116,117
908 912 m 0,128,129
 927 912 927 912 940.5 899 c 128,-1,130
 954 886 954 886 954 866 c 0,131,132
 954 848 954 848 941 834 c 128,-1,133
 928 820 928 820 908 820 c 0,134,135
 889 820 889 820 875.5 834 c 128,-1,136
 862 848 862 848 862 866 c 0,137,138
 862 885 862 885 875 898.5 c 128,-1,139
 888 912 888 912 908 912 c 0,128,129
724 796 m 0,140,141
 743 796 743 796 756.5 783 c 128,-1,142
 770 770 770 770 770 750 c 0,143,144
 770 731 770 731 757 717.5 c 128,-1,145
 744 704 744 704 724 704 c 0,146,147
 706 704 706 704 692 717 c 128,-1,148
 678 730 678 730 678 750 c 0,149,150
 678 769 678 769 692 782.5 c 128,-1,151
 706 796 706 796 724 796 c 0,140,141
906 796 m 0,152,153
 915 796 915 796 923.5 793 c 128,-1,154
 932 790 932 790 938 782 c 0,155,156
 945 776 945 776 948.5 767.5 c 128,-1,157
 952 759 952 759 952 750 c 0,158,159
 952 731 952 731 939 717.5 c 128,-1,160
 926 704 926 704 906 704 c 0,161,162
 887 704 887 704 873.5 717 c 128,-1,163
 860 730 860 730 860 750 c 0,164,165
 860 769 860 769 873 782.5 c 128,-1,166
 886 796 886 796 906 796 c 0,152,153
726 680 m 0,167,168
 744 680 744 680 758 667 c 128,-1,169
 772 654 772 654 772 634 c 0,170,171
 772 615 772 615 758 601.5 c 128,-1,172
 744 588 744 588 726 588 c 0,173,174
 707 588 707 588 693.5 601 c 128,-1,175
 680 614 680 614 680 634 c 0,176,177
 680 653 680 653 693 666.5 c 128,-1,178
 706 680 706 680 726 680 c 0,167,168
906 680 m 0,179,180
 925 680 925 680 938.5 667 c 128,-1,181
 952 654 952 654 952 634 c 0,182,183
 952 615 952 615 939 601.5 c 128,-1,184
 926 588 926 588 906 588 c 0,185,186
 888 588 888 588 874 601 c 128,-1,187
 860 614 860 614 860 634 c 0,188,189
 860 653 860 653 874 666.5 c 128,-1,190
 888 680 888 680 906 680 c 0,179,180
EndSplineSet
EndChar

StartChar: hyphen
Encoding: 45 45 16
Width: 1024
Flags: W
LayerCount: 2
Fore
SplineSet
512 844 m 0,0,1
 479 844 479 844 461.5 822 c 128,-1,2
 444 800 444 800 436 764 c 1,3,4
 363 763 363 763 289 751 c 256,5,6
 215 739 215 739 156.5 710.5 c 128,-1,7
 98 682 98 682 61 634 c 0,8,9
 24 585 24 585 24 510 c 0,10,11
 24 434 24 434 67.5 382.5 c 128,-1,12
 111 331 111 331 198 250 c 1,13,-1
 198 136 l 1,14,15
 272 94 272 94 348 73 c 0,16,17
 423 52 423 52 499.5 52 c 128,-1,18
 576 52 576 52 653 73 c 256,19,20
 730 94 730 94 808 136 c 1,21,-1
 810 248 l 1,22,23
 839 276 839 276 873 305 c 0,24,25
 906 333 906 333 934.5 364.5 c 128,-1,26
 963 396 963 396 981 433 c 0,27,28
 1000 470 1000 470 1000 516 c 0,29,30
 1000 582 1000 582 963 625.5 c 128,-1,31
 926 669 926 669 876 698 c 0,32,33
 818 731 818 731 742.5 744 c 128,-1,34
 667 757 667 757 590 762 c 1,35,36
 583 799 583 799 562 821.5 c 128,-1,37
 541 844 541 844 512 844 c 0,0,1
512 822 m 0,38,39
 525 822 525 822 541 810.5 c 128,-1,40
 557 799 557 799 562 764 c 1,41,-1
 462 764 l 1,42,43
 466 797 466 797 481.5 809.5 c 128,-1,44
 497 822 497 822 512 822 c 0,38,39
482 734 m 0,45,46
 492 734 492 734 501.5 734 c 128,-1,47
 511 734 511 734 520 734 c 0,48,49
 563 733 563 733 607 730 c 0,50,51
 652 727 652 727 695.5 720.5 c 128,-1,52
 739 714 739 714 779 702 c 0,53,54
 819 691 819 691 854 672 c 0,55,56
 899 648 899 648 934.5 609 c 128,-1,57
 970 570 970 570 970 510 c 0,58,59
 970 470 970 470 951 436 c 0,60,61
 931 403 931 403 902.5 377.5 c 128,-1,62
 874 352 874 352 842 335 c 256,63,64
 810 318 810 318 784 310 c 1,65,66
 705 335 705 335 637 348 c 0,67,68
 568 360 568 360 501.5 359.5 c 128,-1,69
 435 359 435 359 367 346 c 256,70,71
 299 333 299 333 222 308 c 1,72,73
 200 314 200 314 170 332 c 0,74,75
 141 351 141 351 115.5 377.5 c 128,-1,76
 90 404 90 404 72 437 c 0,77,78
 54 469 54 469 54 504 c 0,79,80
 54 577 54 577 94 622 c 256,81,82
 134 667 134 667 196 692 c 128,-1,83
 258 717 258 717 334 725 c 0,84,85
 410 734 410 734 482 734 c 0,45,46
488 702 m 0,86,87
 425 702 425 702 357 695 c 256,88,89
 289 688 289 688 233.5 668.5 c 128,-1,90
 178 649 178 649 143 613 c 0,91,92
 108 578 108 578 112 520 c 0,93,94
 115 463 115 463 142.5 427.5 c 128,-1,95
 170 392 170 392 230 362 c 1,96,97
 295 387 295 387 364 400 c 256,98,99
 433 413 433 413 503 413 c 128,-1,100
 573 413 573 413 643 400 c 0,101,102
 712 388 712 388 780 362 c 1,103,104
 835 381 835 381 879.5 420 c 128,-1,105
 924 459 924 459 924 522 c 0,106,107
 924 570 924 570 888.5 602 c 128,-1,108
 853 634 853 634 812 654 c 0,109,110
 752 682 752 682 674 690.5 c 128,-1,111
 596 699 596 699 522 702 c 0,112,113
 515 702 515 702 506 702 c 128,-1,114
 497 702 497 702 488 702 c 0,86,87
516 296 m 0,115,116
 577 296 577 296 639 284 c 128,-1,117
 701 272 701 272 766 246 c 1,118,-1
 766 154 l 1,119,120
 703 178 703 178 639 191 c 0,121,122
 576 204 576 204 510.5 205 c 128,-1,123
 445 206 445 206 377 193 c 0,124,125
 309 181 309 181 238 154 c 1,126,-1
 238 246 l 1,127,128
 307 270 307 270 376 283 c 128,-1,129
 445 296 445 296 516 296 c 0,115,116
EndSplineSet
EndChar

StartChar: period
Encoding: 46 46 17
Width: 1024
Flags: W
LayerCount: 2
Fore
SplineSet
950 594 m 1,0,1
 966 594 966 594 978.5 589 c 128,-1,2
 991 584 991 584 1002 572 c 0,3,4
 1012 562 1012 562 1018 549.5 c 128,-1,5
 1024 537 1024 537 1024 522 c 0,6,7
 1024 506 1024 506 1018.5 493.5 c 128,-1,8
 1013 481 1013 481 1002 470 c 0,9,10
 992 460 992 460 979.5 454 c 128,-1,11
 967 448 967 448 950 448 c 1,12,-1
 950 228 l 2,13,14
 950 213 950 213 945.5 201 c 128,-1,15
 941 189 941 189 930 178 c 0,16,17
 918 166 918 166 905.5 161 c 128,-1,18
 893 156 893 156 878 156 c 1,19,20
 818 205 818 205 759 244 c 0,21,22
 700 282 700 282 642 309 c 128,-1,23
 584 336 584 336 527 352 c 0,24,25
 470 367 470 367 414 372 c 1,26,27
 398 368 398 368 384.5 358 c 128,-1,28
 371 348 371 348 362 334 c 0,29,30
 353 321 353 321 348.5 307 c 128,-1,31
 344 293 344 293 344 278 c 256,32,33
 344 263 344 263 349.5 249.5 c 128,-1,34
 355 236 355 236 366 224 c 1,35,36
 362 215 362 215 358 206 c 128,-1,37
 354 197 354 197 354 188 c 0,38,39
 353 178 353 178 354 170 c 128,-1,40
 355 162 355 162 358 154 c 0,41,42
 359 147 359 147 363.5 139 c 128,-1,43
 368 131 368 131 376 122 c 0,44,45
 383 115 383 115 389.5 107.5 c 128,-1,46
 396 100 396 100 404 94 c 0,47,48
 410 88 410 88 418.5 81 c 128,-1,49
 427 74 427 74 438 66 c 1,50,51
 431 50 431 50 415 38 c 128,-1,52
 399 26 399 26 376 18 c 0,53,54
 352 11 352 11 328 9.5 c 128,-1,55
 304 8 304 8 278 12 c 0,56,57
 254 15 254 15 235 22.5 c 128,-1,58
 216 30 216 30 204 42 c 0,59,60
 201 49 201 49 197.5 61.5 c 128,-1,61
 194 74 194 74 186 92 c 0,62,63
 180 111 180 111 175.5 124.5 c 128,-1,64
 171 138 171 138 168 146 c 0,65,66
 165 155 165 155 162 168 c 128,-1,67
 159 181 159 181 156 198 c 0,68,69
 152 214 152 214 150 229 c 128,-1,70
 148 244 148 244 146 256 c 0,71,72
 146 268 146 268 146 281.5 c 128,-1,73
 146 295 146 295 148 312 c 0,74,75
 149 328 149 328 152.5 343.5 c 128,-1,76
 156 359 156 359 162 374 c 1,77,-1
 92 374 l 2,78,79
 73 374 73 374 56.5 381 c 128,-1,80
 40 388 40 388 26 402 c 0,81,82
 13 415 13 415 6.5 431.5 c 128,-1,83
 0 448 0 448 0 466 c 2,84,-1
 0 576 l 2,85,86
 0 595 0 595 6 610.5 c 128,-1,87
 12 626 12 626 26 640 c 0,88,89
 39 653 39 653 55.5 660.5 c 128,-1,90
 72 668 72 668 92 668 c 2,91,-1
 366 668 l 2,92,93
 428 668 428 668 491 682 c 0,94,95
 554 695 554 695 618 722 c 128,-1,96
 682 749 682 749 747 790 c 256,97,98
 812 831 812 831 878 886 c 1,99,100
 893 886 893 886 905.5 881.5 c 128,-1,101
 918 877 918 877 930 866 c 0,102,103
 940 854 940 854 945 841.5 c 128,-1,104
 950 829 950 829 950 814 c 2,105,-1
 950 594 l 1,0,1
878 250 m 1,106,-1
 878 794 l 1,107,108
 822 751 822 751 766 718 c 0,109,110
 711 684 711 684 656 659.5 c 128,-1,111
 601 635 601 635 546 619 c 0,112,113
 492 604 492 604 438 598 c 1,114,-1
 438 444 l 1,115,116
 492 438 492 438 546 423 c 0,117,118
 601 408 601 408 656 384 c 128,-1,119
 711 360 711 360 766 326 c 0,120,121
 822 293 822 293 878 250 c 1,106,-1
EndSplineSet
EndChar

StartChar: slash
Encoding: 47 47 18
Width: 1024
Flags: W
LayerCount: 2
Fore
SplineSet
914 252 m 0,0,1
 914 245 914 245 912.5 234.5 c 128,-1,2
 911 224 911 224 908 212 c 0,3,4
 905 199 905 199 902 189.5 c 128,-1,5
 899 180 899 180 896 172 c 0,6,7
 890 157 890 157 873 142 c 128,-1,8
 856 127 856 127 826 112 c 0,9,10
 801 97 801 97 774 89.5 c 128,-1,11
 747 82 747 82 720 82 c 0,12,13
 713 82 713 82 705.5 82 c 128,-1,14
 698 82 698 82 690 84 c 0,15,16
 683 85 683 85 675 87 c 128,-1,17
 667 89 667 89 658 92 c 0,18,19
 649 93 649 93 642 95.5 c 128,-1,20
 635 98 635 98 630 100 c 0,21,22
 626 101 626 101 618 104 c 128,-1,23
 610 107 610 107 598 112 c 0,24,25
 588 116 588 116 580.5 118 c 128,-1,26
 573 120 573 120 570 122 c 0,27,28
 543 132 543 132 518 143.5 c 128,-1,29
 493 155 493 155 470 170 c 0,30,31
 434 192 434 192 396.5 222.5 c 128,-1,32
 359 253 359 253 320 292 c 256,33,34
 281 331 281 331 250 368.5 c 128,-1,35
 219 406 219 406 196 444 c 0,36,37
 183 465 183 465 171 490 c 128,-1,38
 159 515 159 515 150 544 c 0,39,40
 149 545 149 545 146 552.5 c 128,-1,41
 143 560 143 560 138 572 c 0,42,43
 135 582 135 582 132.5 590.5 c 128,-1,44
 130 599 130 599 128 604 c 0,45,46
 127 608 127 608 124 614.5 c 128,-1,47
 121 621 121 621 118 630 c 0,48,49
 117 639 117 639 115.5 647.5 c 128,-1,50
 114 656 114 656 112 664 c 0,51,52
 111 670 111 670 110.5 677.5 c 128,-1,53
 110 685 110 685 110 694 c 0,54,55
 110 719 110 719 117 746 c 128,-1,56
 124 773 124 773 138 800 c 0,57,58
 154 828 154 828 169.5 846 c 128,-1,59
 185 864 185 864 200 870 c 0,60,61
 206 873 206 873 216 876 c 128,-1,62
 226 879 226 879 238 882 c 0,63,64
 251 883 251 883 260.5 884.5 c 128,-1,65
 270 886 270 886 278 886 c 0,66,67
 282 886 282 886 285 886 c 128,-1,68
 288 886 288 886 290 886 c 0,69,70
 296 883 296 883 303.5 872.5 c 128,-1,71
 311 862 311 862 322 842 c 0,72,73
 325 836 325 836 329 828.5 c 128,-1,74
 333 821 333 821 338 810 c 0,75,76
 344 801 344 801 348.5 792 c 128,-1,77
 353 783 353 783 358 774 c 0,78,79
 362 767 362 767 366.5 759.5 c 128,-1,80
 371 752 371 752 376 744 c 0,81,82
 377 743 377 743 379 739.5 c 128,-1,83
 381 736 381 736 386 730 c 0,84,85
 390 724 390 724 393 718.5 c 128,-1,86
 396 713 396 713 398 710 c 0,87,88
 399 706 399 706 400.5 701.5 c 128,-1,89
 402 697 402 697 402 694 c 0,90,91
 402 688 402 688 398 680.5 c 128,-1,92
 394 673 394 673 386 664 c 0,93,94
 379 657 379 657 370 648.5 c 128,-1,95
 361 640 361 640 350 634 c 0,96,97
 341 627 341 627 332.5 619 c 128,-1,98
 324 611 324 611 316 602 c 0,99,100
 307 595 307 595 302.5 588.5 c 128,-1,101
 298 582 298 582 298 576 c 0,102,103
 298 575 298 575 299 571 c 128,-1,104
 300 567 300 567 302 564 c 0,105,106
 303 560 303 560 304.5 557 c 128,-1,107
 306 554 306 554 306 552 c 0,108,109
 307 551 307 551 309 547 c 128,-1,110
 311 543 311 543 314 538 c 0,111,112
 317 534 317 534 318.5 531 c 128,-1,113
 320 528 320 528 322 528 c 0,114,115
 343 489 343 489 368 455 c 128,-1,116
 393 421 393 421 420 394 c 0,117,118
 448 366 448 366 481.5 340.5 c 128,-1,119
 515 315 515 315 554 294 c 0,120,121
 555 294 555 294 558 292.5 c 128,-1,122
 561 291 561 291 566 288 c 0,123,124
 570 285 570 285 573.5 282.5 c 128,-1,125
 577 280 577 280 580 280 c 0,126,127
 581 279 581 279 584 277.5 c 128,-1,128
 587 276 587 276 592 274 c 0,129,130
 595 273 595 273 598 272.5 c 128,-1,131
 601 272 601 272 604 272 c 0,132,133
 608 272 608 272 615 275.5 c 128,-1,134
 622 279 622 279 630 288 c 0,135,136
 637 295 637 295 645.5 304 c 128,-1,137
 654 313 654 313 660 324 c 0,138,139
 667 333 667 333 675 341.5 c 128,-1,140
 683 350 683 350 692 358 c 0,141,142
 701 367 701 367 707.5 370.5 c 128,-1,143
 714 374 714 374 720 374 c 0,144,145
 724 374 724 374 728.5 373.5 c 128,-1,146
 733 373 733 373 736 370 c 0,147,148
 740 369 740 369 746 366 c 128,-1,149
 752 363 752 363 758 358 c 0,150,151
 764 355 764 355 767 352.5 c 128,-1,152
 770 350 770 350 772 348 c 0,153,154
 778 344 778 344 786 339.5 c 128,-1,155
 794 335 794 335 802 330 c 0,156,157
 809 326 809 326 818 321 c 128,-1,158
 827 316 827 316 838 310 c 0,159,160
 848 306 848 306 856 301.5 c 128,-1,161
 864 297 864 297 870 294 c 0,162,163
 889 284 889 284 899.5 276.5 c 128,-1,164
 910 269 910 269 912 264 c 0,165,166
 913 261 913 261 913.5 258 c 128,-1,167
 914 255 914 255 914 252 c 0,0,1
EndSplineSet
EndChar

StartChar: zero
Encoding: 48 48 19
Width: 1024
Flags: W
LayerCount: 2
Fore
SplineSet
694 466 m 0,0,1
 694 470 694 470 693.5 473.5 c 128,-1,2
 693 477 693 477 690 480 c 2,3,-1
 488 680 l 2,4,5
 487 683 487 683 483 684.5 c 128,-1,6
 479 686 479 686 476 686 c 0,7,8
 472 686 472 686 468.5 684.5 c 128,-1,9
 465 683 465 683 462 680 c 2,10,-1
 262 480 l 2,11,12
 259 477 259 477 257.5 473 c 128,-1,13
 256 469 256 469 256 466 c 0,14,15
 256 462 256 462 257.5 459 c 128,-1,16
 259 456 259 456 262 454 c 0,17,18
 263 451 263 451 266 449.5 c 128,-1,19
 269 448 269 448 274 448 c 2,20,-1
 402 448 l 1,21,-1
 402 246 l 2,22,23
 402 243 402 243 403.5 240 c 128,-1,24
 405 237 405 237 408 234 c 256,25,26
 411 231 411 231 414 229.5 c 128,-1,27
 417 228 417 228 420 228 c 2,28,-1
 530 228 l 2,29,30
 534 228 534 228 537.5 229.5 c 128,-1,31
 541 231 541 231 544 234 c 0,32,33
 545 237 545 237 546.5 240 c 128,-1,34
 548 243 548 243 548 246 c 2,35,-1
 548 448 l 1,36,-1
 676 448 l 2,37,38
 680 448 680 448 683.5 449.5 c 128,-1,39
 687 451 687 451 690 454 c 256,40,41
 693 457 693 457 693.5 460 c 128,-1,42
 694 463 694 463 694 466 c 0,0,1
1060 302 m 0,43,44
 1060 257 1060 257 1044.5 218 c 128,-1,45
 1029 179 1029 179 996 146 c 0,46,47
 965 115 965 115 926 98.5 c 128,-1,48
 887 82 887 82 842 82 c 2,49,-1
 220 82 l 2,50,51
 166 82 166 82 121 101 c 128,-1,52
 76 120 76 120 38 158 c 0,53,54
 1 195 1 195 -17.5 240 c 128,-1,55
 -36 285 -36 285 -36 338 c 0,56,57
 -36 375 -36 375 -26.5 409.5 c 128,-1,58
 -17 444 -17 444 4 476 c 0,59,60
 23 507 23 507 50 530 c 128,-1,61
 77 553 77 553 110 570 c 1,62,63
 110 579 110 579 110 585 c 128,-1,64
 110 591 110 591 110 594 c 0,65,66
 110 655 110 655 131 706.5 c 128,-1,67
 152 758 152 758 196 802 c 0,68,69
 238 844 238 844 290 865 c 128,-1,70
 342 886 342 886 402 886 c 0,71,72
 447 886 447 886 487.5 874 c 128,-1,73
 528 862 528 862 566 838 c 0,74,75
 602 813 602 813 629 780 c 128,-1,76
 656 747 656 747 674 706 c 1,77,78
 693 722 693 722 717 731 c 128,-1,79
 741 740 741 740 768 740 c 0,80,81
 798 740 798 740 823.5 729.5 c 128,-1,82
 849 719 849 719 872 698 c 0,83,84
 893 677 893 677 903.5 650.5 c 128,-1,85
 914 624 914 624 914 594 c 0,86,87
 914 573 914 573 908 553.5 c 128,-1,88
 902 534 902 534 890 516 c 1,89,90
 927 507 927 507 958 487.5 c 128,-1,91
 989 468 989 468 1012 438 c 0,92,93
 1036 408 1036 408 1048 374 c 128,-1,94
 1060 340 1060 340 1060 302 c 0,43,44
EndSplineSet
EndChar

StartChar: one
Encoding: 49 49 20
Width: 1024
Flags: W
LayerCount: 2
Fore
SplineSet
280 82 m 1,0,-1
 332 134 l 1,1,-1
 198 268 l 1,2,-1
 146 216 l 1,3,-1
 146 156 l 1,4,-1
 220 156 l 1,5,-1
 220 82 l 1,6,-1
 280 82 l 1,0,-1
580 612 m 0,7,8
 580 618 580 618 577 622 c 128,-1,9
 574 626 574 626 566 626 c 0,10,11
 565 626 565 626 562.5 625 c 128,-1,12
 560 624 560 624 558 622 c 2,13,-1
 248 312 l 2,14,15
 245 309 245 309 244.5 307 c 128,-1,16
 244 305 244 305 244 302 c 0,17,18
 244 296 244 296 247 293 c 128,-1,19
 250 290 250 290 256 290 c 0,20,21
 259 290 259 290 261.5 290.5 c 128,-1,22
 264 291 264 291 266 294 c 2,23,-1
 576 602 l 2,24,25
 577 605 577 605 578.5 607 c 128,-1,26
 580 609 580 609 580 612 c 0,7,8
548 722 m 1,27,-1
 786 484 l 1,28,-1
 310 10 l 1,29,-1
 74 10 l 1,30,-1
 74 246 l 1,31,-1
 548 722 l 1,27,-1
938 668 m 256,32,33
 938 653 938 653 933.5 640 c 128,-1,34
 929 627 929 627 918 616 c 2,35,-1
 822 522 l 1,36,-1
 586 758 l 1,37,-1
 680 854 l 2,38,39
 690 864 690 864 702.5 869 c 128,-1,40
 715 874 715 874 732 874 c 0,41,42
 747 874 747 874 759.5 869.5 c 128,-1,43
 772 865 772 865 784 854 c 2,44,-1
 918 720 l 2,45,46
 928 708 928 708 933 695.5 c 128,-1,47
 938 683 938 683 938 668 c 256,32,33
EndSplineSet
EndChar

StartChar: two
Encoding: 50 50 21
Width: 1024
Flags: W
LayerCount: 2
Fore
SplineSet
242 464 m 1,0,-1
 72 328 l 1,1,-1
 142 314 l 1,2,-1
 292 440 l 1,3,4
 401 441 401 441 487 460 c 0,5,6
 574 478 574 478 634 499.5 c 128,-1,7
 694 521 694 521 726 538 c 0,8,9
 758 556 758 556 758 556 c 1,10,-1
 656 644 l 1,11,12
 656 644 656 644 685 646 c 256,13,14
 714 648 714 648 752 648.5 c 128,-1,15
 790 649 790 649 827 647 c 0,16,17
 865 644 865 644 882 636 c 1,18,19
 898 644 898 644 919 663 c 0,20,21
 939 682 939 682 959.5 718 c 128,-1,22
 980 754 980 754 998 810 c 0,23,24
 1015 866 1015 866 1024 948 c 1,25,26
 827 976 827 976 697 942 c 0,27,28
 568 908 568 908 482.5 835.5 c 128,-1,29
 397 763 397 763 343 664 c 256,30,31
 289 565 289 565 242 464 c 1,0,-1
318 494 m 1,32,-1
 314 496 l 1,33,34
 333 515 333 515 393 573 c 0,35,36
 452 630 452 630 539 696 c 128,-1,37
 626 762 626 762 734 822 c 0,38,39
 841 882 841 882 954 906 c 1,40,41
 892 884 892 884 796 826 c 0,42,43
 700 767 700 767 604 701 c 128,-1,44
 508 635 508 635 428 576 c 256,45,46
 348 517 348 517 318 494 c 1,32,-1
380 198 m 1,47,-1
 316 198 l 1,48,49
 316 225 316 225 297 243.5 c 128,-1,50
 278 262 278 262 252 262 c 2,51,-1
 188 262 l 2,52,53
 161 262 161 262 142.5 243.5 c 128,-1,54
 124 225 124 225 124 198 c 1,55,-1
 60 198 l 2,56,57
 33 198 33 198 14.5 179.5 c 128,-1,58
 -4 161 -4 161 -4 134 c 2,59,-1
 -4 6 l 2,60,61
 -4 -19 -4 -19 14.5 -38.5 c 128,-1,62
 33 -58 33 -58 60 -58 c 2,63,-1
 380 -58 l 2,64,65
 405 -58 405 -58 424.5 -39 c 128,-1,66
 444 -20 444 -20 444 6 c 2,67,-1
 444 134 l 2,68,69
 444 161 444 161 425 179.5 c 128,-1,70
 406 198 406 198 380 198 c 1,71,-1
 380 198 l 1,47,-1
EndSplineSet
EndChar

StartChar: three
Encoding: 51 51 22
Width: 1024
Flags: W
LayerCount: 2
Fore
SplineSet
274 380 m 1,0,-1
 274 174 l 1,1,-1
 136 174 l 1,2,-1
 136 380 l 1,3,-1
 274 380 l 1,0,-1
478 652 m 1,4,-1
 478 174 l 1,5,-1
 342 174 l 1,6,-1
 342 652 l 1,7,-1
 478 652 l 1,4,-1
682 516 m 1,8,-1
 682 174 l 1,9,-1
 546 174 l 1,10,-1
 546 516 l 1,11,-1
 682 516 l 1,8,-1
888 722 m 1,12,-1
 888 174 l 1,13,-1
 750 174 l 1,14,-1
 750 722 l 1,15,-1
 888 722 l 1,12,-1
956 124 m 2,16,-1
 956 772 l 2,17,18
 956 775 956 775 954.5 778 c 128,-1,19
 953 781 953 781 950 784 c 0,20,21
 949 787 949 787 946 788.5 c 128,-1,22
 943 790 943 790 938 790 c 2,23,-1
 86 790 l 2,24,25
 82 790 82 790 79 788.5 c 128,-1,26
 76 787 76 787 74 784 c 0,27,28
 71 781 71 781 69.5 778 c 128,-1,29
 68 775 68 775 68 772 c 2,30,-1
 68 124 l 2,31,32
 68 121 68 121 69.5 118 c 128,-1,33
 71 115 71 115 74 112 c 0,34,35
 75 109 75 109 78 107.5 c 128,-1,36
 81 106 81 106 86 106 c 2,37,-1
 938 106 l 2,38,39
 942 106 942 106 945 107.5 c 128,-1,40
 948 109 948 109 950 112 c 0,41,42
 953 115 953 115 954.5 118 c 128,-1,43
 956 121 956 121 956 124 c 2,16,-1
1024 772 m 2,44,-1
 1024 124 l 2,45,46
 1024 106 1024 106 1018 91 c 128,-1,47
 1012 76 1012 76 998 64 c 0,48,49
 986 51 986 51 971 44.5 c 128,-1,50
 956 38 956 38 938 38 c 2,51,-1
 86 38 l 2,52,53
 68 38 68 38 53 44 c 128,-1,54
 38 50 38 50 26 64 c 0,55,56
 13 76 13 76 6.5 91 c 128,-1,57
 0 106 0 106 0 124 c 2,58,-1
 0 772 l 2,59,60
 0 790 0 790 6 805 c 128,-1,61
 12 820 12 820 26 832 c 0,62,63
 38 845 38 845 53 851.5 c 128,-1,64
 68 858 68 858 86 858 c 2,65,-1
 938 858 l 2,66,67
 956 858 956 858 971 852 c 128,-1,68
 986 846 986 846 998 832 c 0,69,70
 1011 820 1011 820 1017.5 805 c 128,-1,71
 1024 790 1024 790 1024 772 c 2,44,-1
EndSplineSet
EndChar

StartChar: four
Encoding: 52 52 23
Width: 1024
Flags: W
LayerCount: 2
Fore
SplineSet
842 558 m 2,0,-1
 842 484 l 2,1,2
 842 421 842 421 821 366.5 c 128,-1,3
 800 312 800 312 756 264 c 0,4,5
 714 218 714 218 662.5 191 c 128,-1,6
 611 164 611 164 548 158 c 1,7,-1
 548 82 l 1,8,-1
 694 82 l 2,9,10
 701 82 701 82 708 79.5 c 128,-1,11
 715 77 715 77 720 72 c 0,12,13
 726 66 726 66 729 60 c 128,-1,14
 732 54 732 54 732 46 c 0,15,16
 732 39 732 39 729 32.5 c 128,-1,17
 726 26 726 26 720 20 c 0,18,19
 716 14 716 14 709 12 c 128,-1,20
 702 10 702 10 694 10 c 2,21,-1
 330 10 l 2,22,23
 323 10 323 10 316 12 c 128,-1,24
 309 14 309 14 304 20 c 0,25,26
 298 26 298 26 295 32 c 128,-1,27
 292 38 292 38 292 46 c 0,28,29
 292 53 292 53 295 59.5 c 128,-1,30
 298 66 298 66 304 72 c 0,31,32
 308 76 308 76 315 79 c 128,-1,33
 322 82 322 82 330 82 c 2,34,-1
 476 82 l 1,35,-1
 476 158 l 1,36,37
 413 164 413 164 361.5 190.5 c 128,-1,38
 310 217 310 217 268 264 c 0,39,40
 225 312 225 312 203.5 366.5 c 128,-1,41
 182 421 182 421 182 484 c 2,42,-1
 182 558 l 2,43,44
 182 565 182 565 185 571.5 c 128,-1,45
 188 578 188 578 194 584 c 0,46,47
 198 588 198 588 205 591 c 128,-1,48
 212 594 212 594 220 594 c 0,49,50
 227 594 227 594 233.5 591.5 c 128,-1,51
 240 589 240 589 246 584 c 0,52,53
 250 578 250 578 253 572 c 128,-1,54
 256 566 256 566 256 558 c 2,55,-1
 256 484 l 2,56,57
 256 432 256 432 275 387 c 128,-1,58
 294 342 294 342 332 304 c 0,59,60
 369 267 369 267 414 247.5 c 128,-1,61
 459 228 459 228 512 228 c 0,62,63
 564 228 564 228 609 247 c 128,-1,64
 654 266 654 266 692 304 c 0,65,66
 729 341 729 341 748.5 386 c 128,-1,67
 768 431 768 431 768 484 c 2,68,-1
 768 558 l 2,69,70
 768 565 768 565 770.5 571.5 c 128,-1,71
 773 578 773 578 778 584 c 0,72,73
 784 588 784 588 790 591 c 128,-1,74
 796 594 796 594 804 594 c 0,75,76
 811 594 811 594 818 591.5 c 128,-1,77
 825 589 825 589 830 584 c 0,78,79
 836 578 836 578 839 572 c 128,-1,80
 842 566 842 566 842 558 c 2,0,-1
694 778 m 2,81,-1
 694 484 l 2,82,83
 694 447 694 447 681 415 c 128,-1,84
 668 383 668 383 642 356 c 0,85,86
 615 329 615 329 582.5 315.5 c 128,-1,87
 550 302 550 302 512 302 c 0,88,89
 475 302 475 302 442 315.5 c 128,-1,90
 409 329 409 329 382 356 c 0,91,92
 357 383 357 383 343.5 414.5 c 128,-1,93
 330 446 330 446 330 484 c 2,94,-1
 330 778 l 2,95,96
 330 815 330 815 343 847 c 128,-1,97
 356 879 356 879 382 906 c 0,98,99
 409 933 409 933 441.5 946.5 c 128,-1,100
 474 960 474 960 512 960 c 0,101,102
 549 960 549 960 582 946.5 c 128,-1,103
 615 933 615 933 642 906 c 0,104,105
 667 879 667 879 680.5 847.5 c 128,-1,106
 694 816 694 816 694 778 c 2,81,-1
EndSplineSet
EndChar

StartChar: five
Encoding: 53 53 24
Width: 1024
Flags: W
LayerCount: 2
Fore
SplineSet
820 64 m 2,0,-1
 140 64 l 2,1,2
 136 64 136 64 132 60.5 c 128,-1,3
 128 57 128 57 128 52 c 2,4,-1
 128 -52 l 2,5,6
 128 -56 128 -56 131.5 -60 c 128,-1,7
 135 -64 135 -64 140 -64 c 2,8,-1
 820 -64 l 2,9,10
 824 -64 824 -64 828 -60.5 c 128,-1,11
 832 -57 832 -57 832 -52 c 2,12,-1
 832 52 l 2,13,14
 832 56 832 56 828.5 60 c 128,-1,15
 825 64 825 64 820 64 c 2,0,-1
960 736 m 1,16,17
 960 776 960 776 931.5 804 c 128,-1,18
 903 832 903 832 864 832 c 256,19,20
 825 832 825 832 796.5 804.5 c 128,-1,21
 768 777 768 777 768 736 c 0,22,23
 768 712 768 712 779 692 c 128,-1,24
 790 672 790 672 808 658 c 1,25,-1
 640 320 l 1,26,-1
 528 654 l 1,27,28
 549 666 549 666 562.5 687.5 c 128,-1,29
 576 709 576 709 576 736 c 0,30,31
 576 776 576 776 547.5 804 c 128,-1,32
 519 832 519 832 480 832 c 256,33,34
 441 832 441 832 412.5 804.5 c 128,-1,35
 384 777 384 777 384 736 c 0,36,37
 384 709 384 709 397.5 687.5 c 128,-1,38
 411 666 411 666 432 654 c 1,39,-1
 320 320 l 1,40,-1
 152 658 l 1,41,42
 170 671 170 671 181 691.5 c 128,-1,43
 192 712 192 712 192 736 c 0,44,45
 192 776 192 776 163.5 804 c 128,-1,46
 135 832 135 832 96 832 c 256,47,48
 57 832 57 832 28.5 804.5 c 128,-1,49
 0 777 0 777 0 736 c 0,50,51
 0 703 0 703 20 677.5 c 128,-1,52
 40 652 40 652 70 644 c 1,53,-1
 128 128 l 1,54,-1
 832 128 l 1,55,-1
 890 644 l 1,56,57
 920 651 920 651 940 677 c 128,-1,58
 960 703 960 703 960 736 c 1,59,-1
 960 736 l 1,16,17
EndSplineSet
EndChar

StartChar: six
Encoding: 54 54 25
Width: 1024
Flags: W
LayerCount: 2
Fore
SplineSet
512 924 m 1,0,-1
 190 812 l 1,1,-1
 102 -28 l 1,2,-1
 922 -28 l 1,3,-1
 834 812 l 1,4,-1
 512 924 l 1,0,-1
378 716 m 1,5,-1
 690 716 l 1,6,-1
 690 642 l 1,7,-1
 440 642 l 1,8,-1
 406 474 l 1,9,10
 434 493 434 493 464 503.5 c 128,-1,11
 494 514 494 514 524 514 c 0,12,13
 566 514 566 514 600.5 499.5 c 128,-1,14
 635 485 635 485 664 456 c 0,15,16
 691 429 691 429 705.5 392 c 128,-1,17
 720 355 720 355 720 310 c 0,18,19
 720 268 720 268 707 232 c 128,-1,20
 694 196 694 196 670 164 c 0,21,22
 640 127 640 127 599.5 107.5 c 128,-1,23
 559 88 559 88 506 88 c 0,24,25
 463 88 463 88 428 100 c 128,-1,26
 393 112 393 112 366 136 c 256,27,28
 339 160 339 160 324 191.5 c 128,-1,29
 309 223 309 223 304 262 c 1,30,-1
 386 270 l 1,31,32
 390 240 390 240 400.5 217.5 c 128,-1,33
 411 195 411 195 426 180 c 0,34,35
 442 167 442 167 462 159.5 c 128,-1,36
 482 152 482 152 506 152 c 0,37,38
 533 152 533 152 556.5 162.5 c 128,-1,39
 580 173 580 173 600 194 c 0,40,41
 619 215 619 215 628.5 242 c 128,-1,42
 638 269 638 269 638 304 c 0,43,44
 638 337 638 337 629 362.5 c 128,-1,45
 620 388 620 388 600 408 c 0,46,47
 582 427 582 427 558 436.5 c 128,-1,48
 534 446 534 446 504 446 c 0,49,50
 486 446 486 446 469.5 441.5 c 128,-1,51
 453 437 453 437 438 428 c 0,52,53
 423 421 423 421 411 410.5 c 128,-1,54
 399 400 399 400 390 386 c 1,55,-1
 318 394 l 1,56,-1
 378 716 l 1,5,-1
EndSplineSet
EndChar

StartChar: seven
Encoding: 55 55 26
Width: 1024
Flags: W
LayerCount: 2
Fore
SplineSet
434 888 m 1,0,-1
 442 888 l 2,1,2
 490 885 490 885 533 872 c 128,-1,3
 576 859 576 859 612 836 c 1,4,-1
 604 764 l 1,5,-1
 604 148 l 2,6,7
 604 90 604 90 586 55 c 128,-1,8
 568 20 568 20 530 8 c 1,9,-1
 516 8 l 1,10,11
 464 14 464 14 438 32.5 c 128,-1,12
 412 51 412 51 412 84 c 2,13,-1
 412 90 l 2,14,15
 412 93 412 93 422.5 104 c 128,-1,16
 433 115 433 115 456 136 c 1,17,-1
 456 810 l 2,18,19
 456 820 456 820 451 839.5 c 128,-1,20
 446 859 446 859 434 888 c 1,0,-1
204 564 m 1,21,-1
 212 564 l 1,22,23
 275 548 275 548 306.5 524 c 128,-1,24
 338 500 338 500 338 468 c 2,25,-1
 338 454 l 2,26,27
 338 429 338 429 319 399 c 256,28,29
 300 369 300 369 262 335.5 c 128,-1,30
 224 302 224 302 167 264 c 256,31,32
 110 226 110 226 34 184 c 1,33,34
 77 237 77 237 110 286 c 256,35,36
 143 335 143 335 166 379 c 128,-1,37
 189 423 189 423 203 462 c 0,38,39
 216 501 216 501 220 536 c 1,40,41
 213 535 213 535 208.5 538.5 c 128,-1,42
 204 542 204 542 204 548 c 2,43,-1
 204 564 l 1,21,-1
738 568 m 1,44,45
 801 546 801 546 848 520 c 256,46,47
 895 494 895 494 926.5 463.5 c 128,-1,48
 958 433 958 433 974 399 c 0,49,50
 990 364 990 364 990 326 c 1,51,52
 981 265 981 265 969.5 234.5 c 128,-1,53
 958 204 958 204 946 204 c 0,54,55
 904 201 904 201 874 241 c 128,-1,56
 844 281 844 281 826 364 c 1,57,58
 826 388 826 388 802 437.5 c 128,-1,59
 778 487 778 487 730 562 c 1,60,61
 734 562 734 562 736 563.5 c 128,-1,62
 738 565 738 565 738 568 c 1,44,45
EndSplineSet
EndChar

StartChar: eight
Encoding: 56 56 27
Width: 1024
Flags: W
LayerCount: 2
Fore
SplineSet
722 894 m 0,0,1
 721 894 721 894 719.5 894 c 128,-1,2
 718 894 718 894 716 894 c 0,3,4
 715 893 715 893 713 892.5 c 128,-1,5
 711 892 711 892 708 890 c 0,6,7
 704 887 704 887 698 883 c 128,-1,8
 692 879 692 879 684 874 c 0,9,10
 671 864 671 864 652.5 850.5 c 128,-1,11
 634 837 634 837 614 822 c 0,12,13
 593 806 593 806 574 792.5 c 128,-1,14
 555 779 555 779 540 768 c 0,15,16
 533 762 533 762 527 758.5 c 128,-1,17
 521 755 521 755 516 752 c 0,18,19
 515 751 515 751 512.5 749.5 c 128,-1,20
 510 748 510 748 510 748 c 257,21,22
 510 748 510 748 507.5 748.5 c 128,-1,23
 505 749 505 749 500 752 c 0,24,25
 496 753 496 753 491.5 756 c 128,-1,26
 487 759 487 759 482 762 c 0,27,28
 469 772 469 772 439.5 791 c 128,-1,29
 410 810 410 810 380 830 c 0,30,31
 364 840 364 840 349.5 849 c 128,-1,32
 335 858 335 858 324 864 c 0,33,34
 318 868 318 868 312.5 870.5 c 128,-1,35
 307 873 307 873 304 876 c 0,36,37
 303 876 303 876 301.5 877 c 128,-1,38
 300 878 300 878 298 878 c 0,39,40
 297 879 297 879 295.5 879.5 c 128,-1,41
 294 880 294 880 288 880 c 0,42,43
 285 880 285 880 282.5 879 c 128,-1,44
 280 878 280 878 278 876 c 0,45,46
 277 873 277 873 276.5 872.5 c 128,-1,47
 276 872 276 872 276 870 c 0,48,49
 275 869 275 869 274.5 867 c 128,-1,50
 274 865 274 865 274 862 c 256,51,52
 274 859 274 859 274 853.5 c 128,-1,53
 274 848 274 848 272 842 c 0,54,55
 272 830 272 830 272 814 c 128,-1,56
 272 798 272 798 274 778 c 0,57,58
 275 759 275 759 275.5 744 c 128,-1,59
 276 729 276 729 276 718 c 0,60,61
 275 708 275 708 273.5 703 c 128,-1,62
 272 698 272 698 272 696 c 1,63,64
 271 696 271 696 270.5 696 c 128,-1,65
 270 696 270 696 270 696 c 2,66,67
 270 695 270 695 268.5 695 c 128,-1,68
 267 695 267 695 264 696 c 0,69,70
 260 696 260 696 251 699.5 c 128,-1,71
 242 703 242 703 230 708 c 0,72,73
 217 715 217 715 194.5 722 c 128,-1,74
 172 729 172 729 148 734 c 0,75,76
 124 738 124 738 102.5 741.5 c 128,-1,77
 81 745 81 745 66 744 c 0,78,79
 63 744 63 744 61 744 c 128,-1,80
 59 744 59 744 56 742 c 0,81,82
 55 741 55 741 52.5 739 c 128,-1,83
 50 737 50 737 48 734 c 0,84,85
 47 728 47 728 48.5 723.5 c 128,-1,86
 50 719 50 719 52 716 c 0,87,88
 55 709 55 709 61 700.5 c 128,-1,89
 67 692 67 692 78 678 c 0,90,91
 99 653 99 653 116.5 628 c 128,-1,92
 134 603 134 603 146 582 c 0,93,94
 159 561 159 561 166.5 543.5 c 128,-1,95
 174 526 174 526 176 514 c 0,96,97
 179 501 179 501 174 481 c 128,-1,98
 169 461 169 461 158 438 c 0,99,100
 146 417 146 417 128.5 395.5 c 128,-1,101
 111 374 111 374 90 354 c 2,102,-1
 24 298 l 1,103,-1
 92 276 l 2,104,105
 111 270 111 270 133 261.5 c 128,-1,106
 155 253 155 253 172 244 c 0,107,108
 181 240 181 240 188 235.5 c 128,-1,109
 195 231 195 231 200 228 c 0,110,111
 201 228 201 228 202.5 227 c 128,-1,112
 204 226 204 226 204 226 c 2,113,114
 204 225 204 225 204 223.5 c 128,-1,115
 204 222 204 222 204 222 c 2,116,117
 203 218 203 218 201 212 c 128,-1,118
 199 206 199 206 196 198 c 0,119,120
 192 185 192 185 185 166.5 c 128,-1,121
 178 148 178 148 172 128 c 0,122,123
 165 107 165 107 158 89 c 128,-1,124
 151 71 151 71 146 56 c 0,125,126
 143 50 143 50 141.5 44.5 c 128,-1,127
 140 39 140 39 138 34 c 0,128,129
 138 31 138 31 137 29.5 c 128,-1,130
 136 28 136 28 136 26 c 0,131,132
 136 25 136 25 135 24 c 128,-1,133
 134 23 134 23 134 20 c 0,134,135
 134 19 134 19 134 17.5 c 128,-1,136
 134 16 134 16 134 14 c 0,137,138
 135 13 135 13 136 9.5 c 128,-1,139
 137 6 137 6 140 4 c 0,140,141
 144 1 144 1 147 1 c 128,-1,142
 150 1 150 1 152 2 c 0,143,144
 155 2 155 2 156.5 2 c 128,-1,145
 158 2 158 2 160 2 c 0,146,147
 169 5 169 5 184 11.5 c 128,-1,148
 199 18 199 18 226 32 c 0,149,150
 253 44 253 44 288 57.5 c 128,-1,151
 323 71 323 71 344 76 c 0,152,153
 366 82 366 82 406 85 c 0,154,155
 446 89 446 89 492 89.5 c 128,-1,156
 538 90 538 90 583 88 c 0,157,158
 629 85 629 85 662 80 c 0,159,160
 687 76 687 76 714.5 69.5 c 128,-1,161
 742 63 742 63 766 54 c 0,162,163
 790 47 790 47 808.5 39 c 128,-1,164
 827 31 827 31 832 26 c 0,165,166
 835 25 835 25 838 23.5 c 128,-1,167
 841 22 841 22 846 20 c 0,168,169
 847 20 847 20 850 19.5 c 128,-1,170
 853 19 853 19 856 22 c 0,171,172
 860 23 860 23 862 27 c 128,-1,173
 864 31 864 31 864 34 c 0,174,175
 864 38 864 38 863 41.5 c 128,-1,176
 862 45 862 45 862 48 c 0,177,178
 861 52 861 52 859 58 c 128,-1,179
 857 64 857 64 854 70 c 0,180,181
 851 82 851 82 845.5 96.5 c 128,-1,182
 840 111 840 111 834 128 c 0,183,184
 828 143 828 143 822.5 158.5 c 128,-1,185
 817 174 817 174 812 186 c 0,186,187
 806 198 806 198 802.5 207 c 128,-1,188
 799 216 799 216 794 222 c 0,189,190
 793 225 793 225 790.5 229 c 128,-1,191
 788 233 788 233 788 236 c 2,192,193
 788 236 788 236 788 237 c 128,-1,194
 788 238 788 238 788 238 c 257,195,196
 788 238 788 238 788 238 c 129,-1,197
 788 238 788 238 790 240 c 0,198,199
 793 241 793 241 797.5 244 c 128,-1,200
 802 247 802 247 808 250 c 0,201,202
 818 256 818 256 832 262 c 128,-1,203
 846 268 846 268 860 276 c 0,204,205
 875 283 875 283 889 289.5 c 128,-1,206
 903 296 903 296 914 302 c 0,207,208
 920 303 920 303 924.5 305.5 c 128,-1,209
 929 308 929 308 934 310 c 0,210,211
 935 310 935 310 936.5 311 c 128,-1,212
 938 312 938 312 940 312 c 2,213,214
 940 312 940 312 940.5 312 c 128,-1,215
 941 312 941 312 940 312 c 1,216,217
 943 312 943 312 946 312.5 c 128,-1,218
 949 313 949 313 952 316 c 0,219,220
 955 317 955 317 956.5 320 c 128,-1,221
 958 323 958 323 958 326 c 0,222,223
 959 332 959 332 958 337 c 128,-1,224
 957 342 957 342 954 348 c 0,225,226
 950 358 950 358 940.5 373 c 128,-1,227
 931 388 931 388 916 408 c 0,228,229
 901 427 901 427 887 450 c 128,-1,230
 873 473 873 473 862 496 c 0,231,232
 856 506 856 506 851.5 516.5 c 128,-1,233
 847 527 847 527 844 536 c 0,234,235
 841 543 841 543 839.5 549 c 128,-1,236
 838 555 838 555 838 558 c 1,237,238
 838 558 838 558 838 558 c 129,-1,239
 838 558 838 558 838 558 c 1,240,241
 838 559 838 559 839 561 c 128,-1,242
 840 563 840 563 842 566 c 0,243,244
 843 569 843 569 847 574.5 c 128,-1,245
 851 580 851 580 856 586 c 0,246,247
 860 592 860 592 875.5 609.5 c 128,-1,248
 891 627 891 627 906 642 c 2,249,-1
 1000 738 l 1,250,-1
 896 738 l 2,251,252
 865 738 865 738 833 735.5 c 128,-1,253
 801 733 801 733 784 728 c 0,254,255
 778 725 778 725 771.5 723.5 c 128,-1,256
 765 722 765 722 760 722 c 0,257,258
 759 722 759 722 758.5 722 c 128,-1,259
 758 722 758 722 756 722 c 1,260,261
 756 722 756 722 756 722 c 129,-1,262
 756 722 756 722 756 722 c 1,263,264
 756 726 756 726 755 731 c 128,-1,265
 754 736 754 736 752 742 c 0,266,267
 751 752 751 752 750.5 766.5 c 128,-1,268
 750 781 750 781 748 798 c 0,269,270
 747 814 747 814 745.5 829 c 128,-1,271
 744 844 744 844 742 856 c 0,272,273
 742 862 742 862 741 866.5 c 128,-1,274
 740 871 740 871 740 876 c 0,275,276
 739 877 739 877 738.5 879 c 128,-1,277
 738 881 738 881 738 884 c 0,278,279
 738 885 738 885 737.5 886 c 128,-1,280
 737 887 737 887 734 892 c 0,281,282
 730 895 730 895 727 895 c 128,-1,283
 724 895 724 895 722 894 c 0,0,1
512 640 m 256,284,285
 559 640 559 640 601 621 c 0,286,287
 642 602 642 602 673 569.5 c 128,-1,288
 704 537 704 537 722 494 c 256,289,290
 740 451 740 451 740 402 c 256,291,292
 740 353 740 353 722 309 c 0,293,294
 704 266 704 266 673 233.5 c 128,-1,295
 642 201 642 201 601 183 c 0,296,297
 559 164 559 164 512 164 c 256,298,299
 465 164 465 164 423 183 c 0,300,301
 382 201 382 201 351 233.5 c 128,-1,302
 320 266 320 266 302 309 c 256,303,304
 284 352 284 352 284 402 c 0,305,306
 284 451 284 451 302 494 c 256,307,308
 320 537 320 537 351 569.5 c 128,-1,309
 382 602 382 602 423 621 c 0,310,311
 465 640 465 640 512 640 c 256,284,285
436 480 m 0,312,313
 430 480 430 480 424.5 478.5 c 128,-1,314
 419 477 419 477 416 472 c 0,315,316
 412 468 412 468 410 463 c 128,-1,317
 408 458 408 458 408 452 c 0,318,319
 408 440 408 440 416 432 c 128,-1,320
 424 424 424 424 436 424 c 0,321,322
 446 424 446 424 455 432 c 128,-1,323
 464 440 464 440 464 452 c 0,324,325
 464 458 464 458 461.5 462.5 c 128,-1,326
 459 467 459 467 454 472 c 0,327,328
 451 476 451 476 446 478 c 128,-1,329
 441 480 441 480 436 480 c 0,312,313
580 480 m 0,330,331
 576 480 576 480 570.5 477.5 c 128,-1,332
 565 475 565 475 560 470 c 0,333,334
 557 467 557 467 554.5 462 c 128,-1,335
 552 457 552 457 552 452 c 0,336,337
 552 440 552 440 560.5 432 c 128,-1,338
 569 424 569 424 580 424 c 0,339,340
 592 424 592 424 600 432 c 128,-1,341
 608 440 608 440 608 452 c 0,342,343
 608 456 608 456 606.5 461.5 c 128,-1,344
 605 467 605 467 600 470 c 0,345,346
 596 474 596 474 591 477 c 128,-1,347
 586 480 586 480 580 480 c 0,330,331
522 386 m 1,348,-1
 492 384 l 1,349,350
 492 369 492 369 491.5 359.5 c 128,-1,351
 491 350 491 350 486 344 c 0,352,353
 482 340 482 340 471 334.5 c 128,-1,354
 460 329 460 329 436 324 c 1,355,-1
 440 294 l 1,356,357
 446 294 446 294 451.5 295 c 128,-1,358
 457 296 457 296 462 298 c 1,359,360
 481 285 481 285 502.5 281.5 c 128,-1,361
 524 278 524 278 544 288 c 1,362,363
 553 284 553 284 562 282.5 c 128,-1,364
 571 281 571 281 580 282 c 1,365,-1
 576 312 l 1,366,367
 569 311 569 311 561.5 313.5 c 128,-1,368
 554 316 554 316 546 322 c 0,369,370
 540 326 540 326 534 333.5 c 128,-1,371
 528 341 528 341 522 352 c 1,372,373
 523 359 523 359 523 368 c 128,-1,374
 523 377 523 377 522 386 c 1,348,-1
506 320 m 1,375,376
 510 314 510 314 516 308.5 c 128,-1,377
 522 303 522 303 528 298 c 1,378,379
 516 295 516 295 504.5 296.5 c 128,-1,380
 493 298 493 298 482 304 c 1,381,382
 489 307 489 307 495 311 c 128,-1,383
 501 315 501 315 506 320 c 1,375,376
EndSplineSet
EndChar

StartChar: nine
Encoding: 57 57 28
Width: 1024
Flags: W
LayerCount: 2
Fore
SplineSet
274 876 m 1,0,-1
 106 720 l 1,1,2
 110 716 110 716 139 683 c 256,3,4
 168 650 168 650 210 602.5 c 128,-1,5
 252 555 252 555 301 499 c 256,6,7
 350 443 350 443 394 392 c 1,8,9
 334 374 334 374 297 323.5 c 128,-1,10
 260 273 260 273 260 210 c 0,11,12
 260 131 260 131 316 74.5 c 128,-1,13
 372 18 372 18 452 18 c 0,14,15
 513 18 513 18 563.5 54.5 c 128,-1,16
 614 91 614 91 634 150 c 1,17,18
 679 129 679 129 713 93.5 c 128,-1,19
 747 58 747 58 792 22 c 1,20,-1
 898 20 l 2,21,22
 908 20 908 20 907 44.5 c 128,-1,23
 906 69 906 69 892 72 c 0,24,25
 877 76 877 76 858.5 81.5 c 128,-1,26
 840 87 840 87 816 92 c 1,27,28
 789 120 789 120 793 115.5 c 128,-1,29
 797 111 797 111 766 144 c 1,30,31
 803 160 803 160 827 193 c 0,32,33
 851 225 851 225 855.5 267 c 128,-1,34
 860 309 860 309 842 357 c 0,35,36
 824 404 824 404 776 448 c 2,37,-1
 274 876 l 1,0,-1
276 850 m 1,38,-1
 794 386 l 1,39,40
 815 358 815 358 816 349.5 c 128,-1,41
 817 341 817 341 820 324 c 1,42,-1
 252 830 l 1,43,-1
 276 850 l 1,38,-1
452 338 m 0,44,45
 504 338 504 338 542 300.5 c 128,-1,46
 580 263 580 263 580 210 c 0,47,48
 580 156 580 156 542.5 118 c 128,-1,49
 505 80 505 80 452 80 c 0,50,51
 398 80 398 80 360 118 c 128,-1,52
 322 156 322 156 322 210 c 0,53,54
 322 262 322 262 360 300 c 128,-1,55
 398 338 398 338 452 338 c 0,44,45
EndSplineSet
EndChar

StartChar: colon
Encoding: 58 58 29
Width: 1024
Flags: W
LayerCount: 2
Fore
SplineSet
512 918 m 0,0,1
 485 917 485 917 458 908.5 c 128,-1,2
 431 900 431 900 402 880 c 1,3,-1
 370 804 l 1,4,5
 442 780 442 780 514 774 c 128,-1,6
 586 768 586 768 658 802 c 1,7,-1
 630 882 l 1,8,9
 602 898 602 898 572 908 c 128,-1,10
 542 918 542 918 512 918 c 0,0,1
360 780 m 1,11,12
 354 770 354 770 353.5 756.5 c 128,-1,13
 353 743 353 743 368 722 c 1,14,15
 368 722 368 722 368 721 c 128,-1,16
 368 720 368 720 368 720 c 1,17,18
 438 702 438 702 510.5 702.5 c 128,-1,19
 583 703 583 703 658 720 c 1,20,21
 658 720 658 720 658 720 c 129,-1,22
 658 720 658 720 658 722 c 0,23,24
 662 738 662 738 667.5 752 c 128,-1,25
 673 766 673 766 670 778 c 1,26,27
 588 741 588 741 511 746 c 128,-1,28
 434 751 434 751 360 780 c 1,11,12
660 710 m 1,29,30
 585 694 585 694 511 691.5 c 128,-1,31
 437 689 437 689 366 708 c 1,32,33
 360 672 360 672 360.5 636 c 128,-1,34
 361 600 361 600 388 562 c 1,35,36
 336 550 336 550 313.5 544.5 c 128,-1,37
 291 539 291 539 268 524 c 1,38,39
 262 467 262 467 255.5 409.5 c 128,-1,40
 249 352 249 352 244 296 c 1,41,42
 272 300 272 300 301.5 301.5 c 128,-1,43
 331 303 331 303 360 296 c 1,44,45
 367 333 367 333 377 370.5 c 128,-1,46
 387 408 387 408 396 446 c 0,47,48
 399 470 399 470 387 477.5 c 128,-1,49
 375 485 375 485 366 496 c 1,50,-1
 380 516 l 1,51,52
 392 501 392 501 405.5 489 c 128,-1,53
 419 477 419 477 422 456 c 1,54,55
 412 425 412 425 402 393 c 128,-1,56
 392 361 392 361 384 328 c 0,57,58
 387 325 387 325 429 288.5 c 128,-1,59
 471 252 471 252 506 250 c 0,60,61
 545 250 545 250 591 288.5 c 128,-1,62
 637 327 637 327 640 330 c 0,63,64
 633 363 633 363 623 393.5 c 128,-1,65
 613 424 613 424 602 456 c 1,66,67
 605 477 605 477 618.5 489 c 128,-1,68
 632 501 632 501 644 516 c 1,69,-1
 658 496 l 1,70,71
 649 486 649 486 637 478 c 128,-1,72
 625 470 625 470 628 446 c 0,73,74
 638 406 638 406 649 365.5 c 128,-1,75
 660 325 660 325 666 284 c 1,76,77
 696 290 696 290 726 288.5 c 128,-1,78
 756 287 756 287 786 282 c 1,79,80
 782 342 782 342 775 402.5 c 128,-1,81
 768 463 768 463 762 514 c 1,82,83
 752 526 752 526 711.5 536.5 c 128,-1,84
 671 547 671 547 632 558 c 1,85,86
 651 588 651 588 660.5 627 c 128,-1,87
 670 666 670 666 660 710 c 1,29,30
408 670 m 1,88,-1
 494 656 l 1,89,90
 494 637 494 637 496 608.5 c 128,-1,91
 498 580 498 580 512 580 c 0,92,93
 525 581 525 581 527.5 603 c 128,-1,94
 530 625 530 625 532 654 c 1,95,-1
 616 668 l 1,96,-1
 616 652 l 1,97,-1
 548 642 l 1,98,-1
 548 634 l 1,99,-1
 616 636 l 1,100,-1
 616 620 l 1,101,-1
 548 620 l 1,102,103
 547 596 547 596 538.5 579 c 128,-1,104
 530 562 530 562 512 562 c 0,105,106
 499 562 499 562 490 575.5 c 128,-1,107
 481 589 481 589 478 622 c 1,108,-1
 406 624 l 1,109,-1
 408 640 l 1,110,-1
 478 636 l 1,111,-1
 478 644 l 1,112,-1
 406 652 l 1,113,-1
 408 670 l 1,88,-1
380 306 m 1,114,115
 379 291 379 291 376.5 276 c 128,-1,116
 374 261 374 261 374 244 c 0,117,118
 370 216 370 216 377 188.5 c 128,-1,119
 384 161 384 161 390 132 c 1,120,121
 402 154 402 154 410 195 c 128,-1,122
 418 236 418 236 436 236 c 2,123,-1
 466 236 l 1,124,125
 438 252 438 252 413 275 c 128,-1,126
 388 298 388 298 380 306 c 1,114,115
644 304 m 1,127,128
 644 304 644 304 616.5 279.5 c 128,-1,129
 589 255 589 255 556 238 c 1,130,-1
 592 238 l 2,131,132
 605 239 605 239 614 197.5 c 128,-1,133
 623 156 623 156 634 132 c 1,134,135
 641 160 641 160 647.5 187.5 c 128,-1,136
 654 215 654 215 650 244 c 0,137,138
 650 260 650 260 648.5 275 c 128,-1,139
 647 290 647 290 644 304 c 1,127,128
314 282 m 0,140,141
 295 282 295 282 277 280.5 c 128,-1,142
 259 279 259 279 242 274 c 1,143,144
 236 213 236 213 237 157.5 c 128,-1,145
 238 102 238 102 250 58 c 1,146,147
 235 43 235 43 226.5 27.5 c 128,-1,148
 218 12 218 12 236 -6 c 1,149,150
 303 -13 303 -13 371 -16 c 0,151,152
 438 -20 438 -20 507 -21 c 128,-1,153
 576 -22 576 -22 646 -20 c 0,154,155
 715 -17 715 -17 786 -12 c 1,156,157
 807 7 807 7 796.5 26.5 c 128,-1,158
 786 46 786 46 774 66 c 1,159,160
 787 85 787 85 788.5 139.5 c 128,-1,161
 790 194 790 194 786 262 c 1,162,163
 759 266 759 266 728.5 268.5 c 128,-1,164
 698 271 698 271 668 262 c 0,165,166
 668 261 668 261 668 259.5 c 128,-1,167
 668 258 668 258 668 256 c 0,168,169
 672 226 672 226 671 191.5 c 128,-1,170
 670 157 670 157 658 118 c 1,171,172
 667 99 667 99 680.5 91 c 128,-1,173
 694 83 694 83 712 78 c 1,174,-1
 720 70 l 1,175,-1
 720 52 l 2,176,177
 719 53 719 53 716 53.5 c 128,-1,178
 713 54 713 54 710 56 c 2,179,-1
 710 54 l 1,180,-1
 316 56 l 2,181,182
 313 55 313 55 310 54.5 c 128,-1,183
 307 54 307 54 304 52 c 2,184,-1
 304 70 l 1,185,-1
 312 78 l 1,186,187
 330 82 330 82 343.5 90 c 128,-1,188
 357 98 357 98 366 118 c 1,189,190
 354 157 354 157 353 191.5 c 128,-1,191
 352 226 352 226 356 256 c 0,192,193
 356 260 356 260 356 265.5 c 128,-1,194
 356 271 356 271 358 276 c 1,195,196
 346 279 346 279 335.5 280.5 c 128,-1,197
 325 282 325 282 314 282 c 0,140,141
498 220 m 0,198,199
 482 220 482 220 471 219 c 128,-1,200
 460 218 460 218 460 218 c 2,201,202
 430 217 430 217 417.5 160 c 128,-1,203
 405 103 405 103 372 80 c 0,204,205
 368 76 368 76 364.5 73 c 128,-1,206
 361 70 361 70 356 68 c 2,207,-1
 654 68 l 1,208,209
 633 80 633 80 614 147.5 c 128,-1,210
 595 215 595 215 572 218 c 0,211,212
 553 219 553 219 533 219.5 c 128,-1,213
 513 220 513 220 498 220 c 0,198,199
664 70 m 257,214,215
 664 70 664 70 664 70 c 129,-1,216
 664 70 664 70 664 70 c 1,217,-1
 666 70 l 1,218,219
 666 70 666 70 665 70 c 128,-1,220
 664 70 664 70 664 70 c 257,214,215
EndSplineSet
EndChar

StartChar: semicolon
Encoding: 59 59 30
Width: 1024
Flags: W
LayerCount: 2
Fore
SplineSet
988 630 m 2,0,-1
 988 484 l 2,1,2
 988 477 988 477 985 470.5 c 128,-1,3
 982 464 982 464 976 458 c 0,4,5
 972 454 972 454 965 451 c 128,-1,6
 958 448 958 448 950 448 c 2,7,-1
 914 448 l 2,8,9
 907 448 907 448 900.5 450.5 c 128,-1,10
 894 453 894 453 888 458 c 0,11,12
 884 464 884 464 881 470 c 128,-1,13
 878 476 878 476 878 484 c 2,14,-1
 878 630 l 2,15,16
 878 661 878 661 867.5 687 c 128,-1,17
 857 713 857 713 834 734 c 0,18,19
 813 755 813 755 787.5 766.5 c 128,-1,20
 762 778 762 778 732 778 c 256,21,22
 702 778 702 778 675.5 766.5 c 128,-1,23
 649 755 649 755 628 734 c 256,24,25
 607 713 607 713 596.5 687.5 c 128,-1,26
 586 662 586 662 586 630 c 2,27,-1
 586 522 l 1,28,-1
 640 522 l 2,29,30
 652 522 652 522 661 518 c 128,-1,31
 670 514 670 514 678 506 c 0,32,33
 687 497 687 497 690.5 487.5 c 128,-1,34
 694 478 694 478 694 466 c 2,35,-1
 694 138 l 2,36,37
 694 126 694 126 690.5 116 c 128,-1,38
 687 106 687 106 678 98 c 0,39,40
 671 91 671 91 661.5 86.5 c 128,-1,41
 652 82 652 82 640 82 c 2,42,-1
 92 82 l 2,43,44
 80 82 80 82 70.5 86 c 128,-1,45
 61 90 61 90 52 98 c 0,46,47
 45 105 45 105 40.5 115.5 c 128,-1,48
 36 126 36 126 36 138 c 2,49,-1
 36 466 l 2,50,51
 36 478 36 478 40 487.5 c 128,-1,52
 44 497 44 497 52 506 c 0,53,54
 61 513 61 513 70.5 517.5 c 128,-1,55
 80 522 80 522 92 522 c 2,56,-1
 476 522 l 1,57,-1
 476 630 l 2,58,59
 476 684 476 684 494 729 c 128,-1,60
 512 774 512 774 550 812 c 0,61,62
 587 849 587 849 632.5 867.5 c 128,-1,63
 678 886 678 886 732 886 c 0,64,65
 784 886 784 886 829 868 c 128,-1,66
 874 850 874 850 912 812 c 0,67,68
 949 775 949 775 968.5 729.5 c 128,-1,69
 988 684 988 684 988 630 c 2,0,-1
EndSplineSet
EndChar

StartChar: less
Encoding: 60 60 31
Width: 1024
Flags: W
LayerCount: 2
Fore
SplineSet
786 522 m 2,0,1
 798 522 798 522 807.5 518 c 128,-1,2
 817 514 817 514 826 506 c 0,3,4
 833 497 833 497 837.5 487.5 c 128,-1,5
 842 478 842 478 842 466 c 2,6,-1
 842 138 l 2,7,8
 842 126 842 126 838 116 c 128,-1,9
 834 106 834 106 826 98 c 0,10,11
 817 91 817 91 807.5 86.5 c 128,-1,12
 798 82 798 82 786 82 c 2,13,-1
 238 82 l 2,14,15
 226 82 226 82 216.5 86 c 128,-1,16
 207 90 207 90 198 98 c 0,17,18
 191 105 191 105 186.5 115.5 c 128,-1,19
 182 126 182 126 182 138 c 2,20,-1
 182 466 l 2,21,22
 182 478 182 478 186 487.5 c 128,-1,23
 190 497 190 497 198 506 c 0,24,25
 207 513 207 513 216.5 517.5 c 128,-1,26
 226 522 226 522 238 522 c 2,27,-1
 256 522 l 1,28,-1
 256 704 l 2,29,30
 256 756 256 756 275 801 c 128,-1,31
 294 846 294 846 332 884 c 0,32,33
 369 921 369 921 414 940.5 c 128,-1,34
 459 960 459 960 512 960 c 0,35,36
 564 960 564 960 609 941 c 128,-1,37
 654 922 654 922 692 884 c 0,38,39
 729 847 729 847 748.5 802 c 128,-1,40
 768 757 768 757 768 704 c 0,41,42
 768 697 768 697 765.5 690.5 c 128,-1,43
 763 684 763 684 758 678 c 0,44,45
 752 674 752 674 746 671 c 128,-1,46
 740 668 740 668 732 668 c 2,47,-1
 694 668 l 2,48,49
 687 668 687 668 681 670.5 c 128,-1,50
 675 673 675 673 670 678 c 0,51,52
 664 684 664 684 661 690 c 128,-1,53
 658 696 658 696 658 704 c 0,54,55
 658 734 658 734 647.5 759.5 c 128,-1,56
 637 785 637 785 616 808 c 0,57,58
 594 829 594 829 568 839.5 c 128,-1,59
 542 850 542 850 512 850 c 256,60,61
 482 850 482 850 456.5 839.5 c 128,-1,62
 431 829 431 829 408 808 c 0,63,64
 387 786 387 786 376.5 760 c 128,-1,65
 366 734 366 734 366 704 c 2,66,-1
 366 522 l 1,67,-1
 786 522 l 2,0,1
EndSplineSet
EndChar

StartChar: equal
Encoding: 61 61 32
Width: 1024
Flags: W
LayerCount: 2
Fore
SplineSet
316 922 m 1,0,-1
 38 644 l 1,1,-1
 38 252 l 1,2,-1
 316 -26 l 1,3,-1
 708 -26 l 1,4,-1
 986 250 l 1,5,-1
 986 644 l 1,6,-1
 708 922 l 1,7,-1
 316 922 l 1,0,-1
628 836 m 0,8,9
 631 836 631 836 635 835 c 128,-1,10
 639 834 639 834 644 832 c 0,11,12
 650 823 650 823 660 819 c 128,-1,13
 670 815 670 815 678 806 c 0,14,15
 684 797 684 797 684.5 785 c 128,-1,16
 685 773 685 773 694 764 c 1,17,18
 701 765 701 765 713 767 c 128,-1,19
 725 769 725 769 734 766 c 1,20,21
 734 766 734 766 734 764 c 128,-1,22
 734 762 734 762 734 762 c 2,23,24
 737 761 737 761 747.5 758 c 128,-1,25
 758 755 758 755 764 752 c 256,26,27
 770 749 770 749 776 742.5 c 128,-1,28
 782 736 782 736 784 734 c 0,29,30
 787 728 787 728 787 721.5 c 128,-1,31
 787 715 787 715 794 712 c 1,32,33
 788 684 788 684 743 682 c 128,-1,34
 698 680 698 680 678 696 c 1,35,36
 677 689 677 689 671 687.5 c 128,-1,37
 665 686 665 686 666 678 c 0,38,39
 667 662 667 662 687.5 657.5 c 128,-1,40
 708 653 708 653 720 638 c 0,41,42
 726 631 726 631 724.5 625.5 c 128,-1,43
 723 620 723 620 732 618 c 1,44,45
 725 600 725 600 697.5 595 c 128,-1,46
 670 590 670 590 650 596 c 0,47,48
 646 599 646 599 642.5 602.5 c 128,-1,49
 639 606 639 606 634 608 c 0,50,51
 622 614 622 614 610 617 c 128,-1,52
 598 620 598 620 590 628 c 0,53,54
 587 627 587 627 583.5 625 c 128,-1,55
 580 623 580 623 580 620 c 0,56,57
 583 611 583 611 590 608.5 c 128,-1,58
 597 606 597 606 606 604 c 0,59,60
 613 603 613 603 608.5 605.5 c 128,-1,61
 604 608 604 608 608 608 c 256,62,63
 612 608 612 608 614.5 607 c 128,-1,64
 617 606 617 606 622 606 c 1,65,66
 613 603 613 603 620 593.5 c 128,-1,67
 627 584 627 584 632 578 c 1,68,69
 654 584 654 584 685 583.5 c 128,-1,70
 716 583 716 583 740 584 c 1,71,72
 749 574 749 574 759 562 c 128,-1,73
 769 550 769 550 778 538 c 0,74,75
 781 535 781 535 783 530.5 c 128,-1,76
 785 526 785 526 790 526 c 1,77,78
 784 507 784 507 779 494.5 c 128,-1,79
 774 482 774 482 768 468 c 0,80,81
 768 467 768 467 764.5 459.5 c 128,-1,82
 761 452 761 452 764 444 c 1,83,84
 757 410 757 410 718.5 417.5 c 128,-1,85
 680 425 680 425 662 440 c 1,86,87
 647 440 647 440 636 441 c 128,-1,88
 625 442 625 442 610 442 c 1,89,90
 606 436 606 436 604.5 436 c 128,-1,91
 603 436 603 436 600 432 c 0,92,93
 599 423 599 423 600 417.5 c 128,-1,94
 601 412 601 412 606 410 c 0,95,96
 627 416 627 416 659.5 415 c 128,-1,97
 692 414 692 414 716 412 c 1,98,99
 713 402 713 402 721 388.5 c 128,-1,100
 729 375 729 375 734 364 c 1,101,102
 719 337 719 337 671.5 342.5 c 128,-1,103
 624 348 624 348 592 350 c 1,104,105
 588 344 588 344 580 340 c 128,-1,106
 572 336 572 336 578 324 c 1,107,108
 602 330 602 330 655.5 330 c 128,-1,109
 709 330 709 330 750 332 c 0,110,111
 775 333 775 333 788 331 c 128,-1,112
 801 329 801 329 818 320 c 0,113,114
 824 316 824 316 830.5 312.5 c 128,-1,115
 837 309 837 309 840 306 c 0,116,117
 853 294 853 294 857 277 c 128,-1,118
 861 260 861 260 870 242 c 1,119,120
 858 227 858 227 838 221.5 c 128,-1,121
 818 216 818 216 792 220 c 0,122,123
 776 221 776 221 760.5 228.5 c 128,-1,124
 745 236 745 236 728 242 c 0,125,126
 701 251 701 251 672 256 c 128,-1,127
 643 261 643 261 614 266 c 1,128,129
 614 247 614 247 632.5 246 c 128,-1,130
 651 245 651 245 666 242 c 0,131,132
 682 238 682 238 700 227.5 c 128,-1,133
 718 217 718 217 732 206 c 0,134,135
 748 191 748 191 758 169 c 128,-1,136
 768 147 768 147 768 118 c 0,137,138
 771 117 771 117 771 112.5 c 128,-1,139
 771 108 771 108 776 108 c 1,140,141
 761 72 761 72 722 74.5 c 128,-1,142
 683 77 683 77 666 104 c 0,143,144
 654 125 654 125 650 152.5 c 128,-1,145
 646 180 646 180 634 200 c 0,146,147
 628 210 628 210 622 215.5 c 128,-1,148
 616 221 616 221 610 230 c 1,149,150
 600 234 600 234 592 242.5 c 128,-1,151
 584 251 584 251 570 254 c 0,152,153
 567 257 567 257 565 261 c 128,-1,154
 563 265 563 265 560 268 c 1,155,156
 547 255 547 255 537.5 240 c 128,-1,157
 528 225 528 225 516 210 c 0,158,159
 482 171 482 171 435 142.5 c 128,-1,160
 388 114 388 114 326 100 c 1,161,162
 319 91 319 91 305 95.5 c 128,-1,163
 291 100 291 100 294 118 c 0,164,165
 297 131 297 131 319.5 139.5 c 128,-1,166
 342 148 342 148 354 156 c 0,167,168
 379 174 379 174 408.5 201.5 c 128,-1,169
 438 229 438 229 456 252 c 0,170,171
 456 255 456 255 454.5 257.5 c 128,-1,172
 453 260 453 260 450 262 c 0,173,174
 431 261 431 261 411 255.5 c 128,-1,175
 391 250 391 250 374 262 c 0,176,177
 361 271 361 271 351.5 291 c 128,-1,178
 342 311 342 311 340 332 c 1,179,180
 347 339 347 339 355 344 c 128,-1,181
 363 349 363 349 380 348 c 0,182,183
 381 347 381 347 382 345 c 128,-1,184
 383 343 383 343 386 340 c 0,185,186
 416 339 416 339 443 332.5 c 128,-1,187
 470 326 470 326 500 336 c 1,188,189
 499 339 499 339 494.5 341 c 128,-1,190
 490 343 490 343 488 346 c 0,191,192
 452 345 452 345 429 362.5 c 128,-1,193
 406 380 406 380 400 410 c 1,194,195
 418 431 418 431 453 422.5 c 128,-1,196
 488 414 488 414 518 420 c 1,197,198
 519 426 519 426 513 431 c 128,-1,199
 507 436 507 436 504 442 c 1,200,201
 486 439 486 439 469.5 438.5 c 128,-1,202
 453 438 453 438 436 438 c 0,203,204
 430 438 430 438 424 436.5 c 128,-1,205
 418 435 418 435 412 436 c 0,206,207
 388 443 388 443 393 477.5 c 128,-1,208
 398 512 398 512 392 536 c 1,209,210
 379 524 379 524 374.5 509.5 c 128,-1,211
 370 495 370 495 368 486 c 0,212,213
 368 483 368 483 367 483.5 c 128,-1,214
 366 484 366 484 364 486 c 1,215,216
 364 483 364 483 362.5 472 c 128,-1,217
 361 461 361 461 356 464 c 1,218,219
 357 458 357 458 356 452.5 c 128,-1,220
 355 447 355 447 350 448 c 1,221,222
 351 438 351 438 349.5 434.5 c 128,-1,223
 348 431 348 431 340 420 c 0,224,225
 340 419 340 419 342 419.5 c 128,-1,226
 344 420 344 420 344 422 c 1,227,228
 343 415 343 415 341 413.5 c 128,-1,229
 339 412 339 412 336 398 c 0,230,231
 335 397 335 397 334.5 394.5 c 128,-1,232
 334 392 334 392 334 390 c 0,233,234
 333 389 333 389 328 372.5 c 128,-1,235
 323 356 323 356 318 338 c 0,236,237
 315 325 315 325 310 309.5 c 128,-1,238
 305 294 305 294 306 282 c 0,239,240
 307 272 307 272 318 258.5 c 128,-1,241
 329 245 329 245 334 228 c 0,242,243
 335 219 335 219 335 209 c 128,-1,244
 335 199 335 199 336 188 c 0,245,246
 336 181 336 181 336.5 173.5 c 128,-1,247
 337 166 337 166 328 158 c 0,248,249
 321 151 321 151 300.5 142.5 c 128,-1,250
 280 134 280 134 268 134 c 0,251,252
 229 137 229 137 235.5 194.5 c 128,-1,253
 242 252 242 252 220 276 c 0,254,255
 213 282 213 282 200.5 284.5 c 128,-1,256
 188 287 188 287 188 302 c 0,257,258
 188 315 188 315 212.5 325 c 128,-1,259
 237 335 237 335 248 344 c 0,260,261
 258 354 258 354 264.5 364.5 c 128,-1,262
 271 375 271 375 280 386 c 1,263,264
 284 414 284 414 304.5 437 c 128,-1,265
 325 460 325 460 322 486 c 1,266,267
 310 468 310 468 301.5 453.5 c 128,-1,268
 293 439 293 439 270 430 c 0,269,270
 260 424 260 424 241.5 419 c 128,-1,271
 223 414 223 414 220 426 c 0,272,273
 216 438 216 438 222.5 447 c 128,-1,274
 229 456 229 456 228 468 c 0,275,276
 228 474 228 474 225.5 481.5 c 128,-1,277
 223 489 223 489 220 494 c 0,278,279
 210 506 210 506 182.5 506 c 128,-1,280
 155 506 155 506 158 526 c 0,281,282
 159 539 159 539 186 546.5 c 128,-1,283
 213 554 213 554 230 556 c 0,284,285
 240 557 240 557 252.5 556.5 c 128,-1,286
 265 556 265 556 274 554 c 0,287,288
 274 553 274 553 272 553 c 128,-1,289
 270 553 270 553 270 552 c 0,290,291
 280 548 280 548 285 545 c 128,-1,292
 290 542 290 542 302 534 c 0,293,294
 306 528 306 528 311 523.5 c 128,-1,295
 316 519 316 519 322 516 c 0,296,297
 331 517 331 517 336.5 522 c 128,-1,298
 342 527 342 527 348 530 c 1,299,300
 329 551 329 551 301 567 c 128,-1,301
 273 583 273 583 256 606 c 0,302,303
 252 612 252 612 249 617.5 c 128,-1,304
 246 623 246 623 246 628 c 0,305,306
 245 646 245 646 255.5 655.5 c 128,-1,307
 266 665 266 665 266 682 c 0,308,309
 266 695 266 695 257.5 706 c 128,-1,310
 249 717 249 717 240 728 c 0,311,312
 233 737 233 737 225 744.5 c 128,-1,313
 217 752 217 752 218 770 c 1,314,315
 239 792 239 792 262.5 782 c 128,-1,316
 286 772 286 772 310 760 c 0,317,318
 323 753 323 753 337 745 c 128,-1,319
 351 737 351 737 360 726 c 0,320,321
 375 710 375 710 377.5 692.5 c 128,-1,322
 380 675 380 675 388 658 c 1,323,324
 384 630 384 630 348 631.5 c 128,-1,325
 312 633 312 633 292 620 c 1,326,327
 295 610 295 610 304 603 c 128,-1,328
 313 596 313 596 322 588 c 0,329,330
 331 582 331 582 345 571 c 128,-1,331
 359 560 359 560 368 564 c 0,332,333
 380 571 380 571 394 584 c 128,-1,334
 408 597 408 597 434 590 c 0,335,336
 435 586 435 586 437.5 587.5 c 128,-1,337
 440 589 440 589 440 586 c 1,338,339
 461 586 461 586 482 582 c 128,-1,340
 503 578 503 578 524 582 c 1,341,342
 523 589 523 589 520.5 597 c 128,-1,343
 518 605 518 605 516 614 c 1,344,345
 504 613 504 613 492 607 c 128,-1,346
 480 601 480 601 468 602 c 0,347,348
 452 603 452 603 440.5 620 c 128,-1,349
 429 637 429 637 432 652 c 0,350,351
 433 665 433 665 447 666.5 c 128,-1,352
 461 668 461 668 478 670 c 1,353,354
 475 677 475 677 471 682.5 c 128,-1,355
 467 688 467 688 462 696 c 1,356,357
 446 695 446 695 431 692 c 128,-1,358
 416 689 416 689 404 698 c 0,359,360
 398 704 398 704 386 722.5 c 128,-1,361
 374 741 374 741 372 750 c 0,362,363
 366 780 366 780 397 782 c 128,-1,364
 428 784 428 784 454 780 c 1,365,366
 455 787 455 787 449.5 790 c 128,-1,367
 444 793 444 793 444 802 c 0,368,369
 444 820 444 820 471.5 825 c 128,-1,370
 499 830 499 830 508 824 c 0,371,372
 512 817 512 817 521 814.5 c 128,-1,373
 530 812 530 812 536 804 c 0,374,375
 542 795 542 795 542.5 784.5 c 128,-1,376
 543 774 543 774 552 766 c 1,377,378
 561 770 561 770 573 771 c 128,-1,379
 585 772 585 772 600 772 c 1,380,381
 584 791 584 791 592.5 814 c 128,-1,382
 601 837 601 837 628 836 c 0,8,9
566 704 m 0,383,384
 553 704 553 704 546.5 695.5 c 128,-1,385
 540 687 540 687 546 670 c 1,386,387
 558 667 558 667 571 669.5 c 128,-1,388
 584 672 584 672 598 672 c 1,389,390
 595 681 595 681 592 687.5 c 128,-1,391
 589 694 589 694 586 702 c 1,392,393
 580 703 580 703 575.5 704 c 128,-1,394
 571 705 571 705 566 704 c 0,383,384
616 530 m 1,395,-1
 616 524 l 1,396,397
 607 525 607 525 606.5 510.5 c 128,-1,398
 606 496 606 496 612 490 c 1,399,400
 627 494 627 494 647.5 493 c 128,-1,401
 668 492 668 492 682 498 c 1,402,403
 683 504 683 504 681 513 c 128,-1,404
 679 522 679 522 676 530 c 1,405,406
 663 527 663 527 647 527.5 c 128,-1,407
 631 528 631 528 616 530 c 1,395,-1
480 528 m 1,408,409
 486 522 486 522 479 522 c 128,-1,410
 472 522 472 522 476 518 c 1,411,412
 475 518 475 518 477.5 503 c 128,-1,413
 480 488 480 488 492 486 c 1,414,415
 493 492 493 492 506.5 492 c 128,-1,416
 520 492 520 492 528 496 c 1,417,418
 524 502 524 502 521 510 c 128,-1,419
 518 518 518 518 512 524 c 1,420,421
 503 523 503 523 496 525.5 c 128,-1,422
 489 528 489 528 480 528 c 1,408,409
EndSplineSet
EndChar

StartChar: greater
Encoding: 62 62 33
Width: 1024
Flags: W
LayerCount: 2
Fore
SplineSet
1024 284 m 2,0,-1
 1024 174 l 2,1,2
 1024 170 1024 170 1022.5 166.5 c 128,-1,3
 1021 163 1021 163 1018 160 c 0,4,5
 1015 159 1015 159 1012 157.5 c 128,-1,6
 1009 156 1009 156 1006 156 c 2,7,-1
 220 156 l 1,8,-1
 220 46 l 2,9,10
 220 42 220 42 218.5 38.5 c 128,-1,11
 217 35 217 35 214 32 c 0,12,13
 211 31 211 31 208 29.5 c 128,-1,14
 205 28 205 28 202 28 c 0,15,16
 198 28 198 28 194.5 29.5 c 128,-1,17
 191 31 191 31 188 34 c 2,18,-1
 6 216 l 2,19,20
 3 219 3 219 1.5 222 c 128,-1,21
 0 225 0 225 0 228 c 0,22,23
 0 232 0 232 1.5 235.5 c 128,-1,24
 3 239 3 239 6 242 c 2,25,-1
 188 424 l 2,26,27
 191 427 191 427 194 428.5 c 128,-1,28
 197 430 197 430 202 430 c 0,29,30
 205 430 205 430 208 428.5 c 128,-1,31
 211 427 211 427 214 424 c 256,32,33
 217 421 217 421 218.5 418 c 128,-1,34
 220 415 220 415 220 412 c 2,35,-1
 220 302 l 1,36,-1
 1006 302 l 2,37,38
 1009 302 1009 302 1012 300.5 c 128,-1,39
 1015 299 1015 299 1018 296 c 256,40,41
 1021 293 1021 293 1022.5 290 c 128,-1,42
 1024 287 1024 287 1024 284 c 2,0,-1
1024 594 m 0,43,44
 1024 590 1024 590 1022.5 587 c 128,-1,45
 1021 584 1021 584 1018 582 c 2,46,-1
 836 398 l 2,47,48
 833 395 833 395 830 394.5 c 128,-1,49
 827 394 827 394 822 394 c 0,50,51
 819 394 819 394 816 394.5 c 128,-1,52
 813 395 813 395 810 398 c 256,53,54
 807 401 807 401 805.5 404 c 128,-1,55
 804 407 804 407 804 412 c 2,56,-1
 804 522 l 1,57,-1
 18 522 l 2,58,59
 15 522 15 522 12 522.5 c 128,-1,60
 9 523 9 523 6 526 c 256,61,62
 3 529 3 529 1.5 532 c 128,-1,63
 0 535 0 535 0 540 c 2,64,-1
 0 650 l 2,65,66
 0 653 0 653 1.5 656 c 128,-1,67
 3 659 3 659 6 662 c 256,68,69
 9 665 9 665 12 666.5 c 128,-1,70
 15 668 15 668 18 668 c 2,71,-1
 804 668 l 1,72,-1
 804 778 l 2,73,74
 804 781 804 781 805.5 784 c 128,-1,75
 807 787 807 787 810 790 c 256,76,77
 813 793 813 793 816 794.5 c 128,-1,78
 819 796 819 796 822 796 c 0,79,80
 826 796 826 796 829.5 794.5 c 128,-1,81
 833 793 833 793 836 790 c 2,82,-1
 1018 608 l 2,83,84
 1021 605 1021 605 1022.5 602 c 128,-1,85
 1024 599 1024 599 1024 594 c 0,43,44
EndSplineSet
EndChar

StartChar: question
Encoding: 63 63 34
Width: 1024
Flags: W
LayerCount: 2
Fore
SplineSet
954 636 m 0,0,1
 954 626 954 626 950.5 616 c 128,-1,2
 947 606 947 606 938 598 c 2,3,-1
 448 106 l 2,4,5
 439 99 439 99 429.5 94.5 c 128,-1,6
 420 90 420 90 408 90 c 0,7,8
 398 90 398 90 388 94 c 128,-1,9
 378 98 378 98 370 106 c 2,10,-1
 86 390 l 2,11,12
 77 399 77 399 73.5 408.5 c 128,-1,13
 70 418 70 418 70 430 c 0,14,15
 70 440 70 440 73.5 450 c 128,-1,16
 77 460 77 460 86 468 c 2,17,-1
 162 546 l 2,18,19
 171 553 171 553 180.5 557.5 c 128,-1,20
 190 562 190 562 202 562 c 0,21,22
 212 562 212 562 222 558 c 128,-1,23
 232 554 232 554 240 546 c 2,24,-1
 408 378 l 1,25,-1
 784 754 l 2,26,27
 791 761 791 761 801 765.5 c 128,-1,28
 811 770 811 770 822 770 c 0,29,30
 834 770 834 770 843.5 766 c 128,-1,31
 853 762 853 762 862 754 c 2,32,-1
 938 676 l 2,33,34
 947 667 947 667 950.5 657.5 c 128,-1,35
 954 648 954 648 954 636 c 0,0,1
EndSplineSet
EndChar

StartChar: at
Encoding: 64 64 35
Width: 1024
Flags: W
LayerCount: 2
Fore
SplineSet
512 886 m 256,0,1
 572 886 572 886 627 872 c 128,-1,2
 682 858 682 858 732 828 c 0,3,4
 783 798 783 798 822.5 758.5 c 128,-1,5
 862 719 862 719 892 668 c 0,6,7
 922 619 922 619 936 563.5 c 128,-1,8
 950 508 950 508 950 448 c 256,9,10
 950 388 950 388 936 333 c 128,-1,11
 922 278 922 278 892 228 c 0,12,13
 862 177 862 177 822.5 137.5 c 128,-1,14
 783 98 783 98 732 68 c 0,15,16
 683 38 683 38 627.5 24 c 128,-1,17
 572 10 572 10 512 10 c 256,18,19
 452 10 452 10 397 24 c 128,-1,20
 342 38 342 38 292 68 c 0,21,22
 241 98 241 98 201.5 137.5 c 128,-1,23
 162 177 162 177 132 228 c 0,24,25
 102 277 102 277 88 332.5 c 128,-1,26
 74 388 74 388 74 448 c 256,27,28
 74 508 74 508 88 563 c 128,-1,29
 102 618 102 618 132 668 c 0,30,31
 162 719 162 719 201.5 758.5 c 128,-1,32
 241 798 241 798 292 828 c 0,33,34
 341 858 341 858 396.5 872 c 128,-1,35
 452 886 452 886 512 886 c 256,0,1
668 590 m 2,36,37
 668 589 668 589 667 587.5 c 128,-1,38
 666 586 666 586 664 584 c 0,39,40
 661 581 661 581 659.5 579.5 c 128,-1,41
 658 578 658 578 656 578 c 2,42,43
 656 578 656 578 657 579 c 128,-1,44
 658 580 658 580 658 582 c 0,45,46
 658 583 658 583 659 584.5 c 128,-1,47
 660 586 660 586 660 588 c 0,48,49
 661 589 661 589 661.5 590.5 c 128,-1,50
 662 592 662 592 662 592 c 2,51,52
 665 593 665 593 668 595 c 128,-1,53
 671 597 671 597 676 600 c 0,54,55
 679 601 679 601 686.5 602.5 c 128,-1,56
 694 604 694 604 706 606 c 0,57,58
 715 609 715 609 722 607.5 c 128,-1,59
 729 606 729 606 734 600 c 1,60,61
 734 601 734 601 735.5 603 c 128,-1,62
 737 605 737 605 740 608 c 256,63,64
 743 611 743 611 744.5 612.5 c 128,-1,65
 746 614 746 614 748 614 c 0,66,67
 749 615 749 615 751 615.5 c 128,-1,68
 753 616 753 616 756 618 c 0,69,70
 760 618 760 618 762 619 c 128,-1,71
 764 620 764 620 766 622 c 2,72,-1
 766 634 l 2,73,74
 763 634 763 634 760.5 635 c 128,-1,75
 758 636 758 636 756 638 c 0,76,77
 755 641 755 641 753.5 644 c 128,-1,78
 752 647 752 647 752 650 c 2,79,80
 752 650 752 650 752 649 c 128,-1,81
 752 648 752 648 750 646 c 1,82,83
 750 647 750 647 749 648.5 c 128,-1,84
 748 650 748 650 746 650 c 0,85,86
 745 650 745 650 743.5 650 c 128,-1,87
 742 650 742 650 740 650 c 0,88,89
 739 649 739 649 737.5 649 c 128,-1,90
 736 649 736 649 734 650 c 0,91,92
 733 650 733 650 730.5 651 c 128,-1,93
 728 652 728 652 726 654 c 0,94,95
 725 655 725 655 723.5 657 c 128,-1,96
 722 659 722 659 722 662 c 256,97,98
 722 665 722 665 721 667.5 c 128,-1,99
 720 670 720 670 720 672 c 0,100,101
 719 673 719 673 717.5 674.5 c 128,-1,102
 716 676 716 676 714 678 c 0,103,104
 713 679 713 679 711.5 680.5 c 128,-1,105
 710 682 710 682 708 684 c 2,106,107
 708 684 708 684 708 685 c 128,-1,108
 708 686 708 686 708 686 c 2,109,110
 707 687 707 687 706.5 688.5 c 128,-1,111
 706 690 706 690 706 690 c 2,112,113
 705 691 705 691 704.5 691.5 c 128,-1,114
 704 692 704 692 704 694 c 1,115,116
 703 694 703 694 702.5 694 c 128,-1,117
 702 694 702 694 700 694 c 0,118,119
 699 694 699 694 698.5 694 c 128,-1,120
 698 694 698 694 696 692 c 0,121,122
 695 691 695 691 694.5 689.5 c 128,-1,123
 694 688 694 688 692 686 c 0,124,125
 691 685 691 685 690.5 684.5 c 128,-1,126
 690 684 690 684 690 684 c 2,127,128
 689 684 689 684 687.5 684 c 128,-1,129
 686 684 686 684 686 684 c 2,130,131
 685 684 685 684 684.5 684 c 128,-1,132
 684 684 684 684 684 684 c 2,133,134
 683 684 683 684 682.5 683 c 128,-1,135
 682 682 682 682 680 682 c 2,136,137
 680 682 680 682 679 681 c 128,-1,138
 678 680 678 680 678 680 c 2,139,140
 677 680 677 680 675.5 679 c 128,-1,141
 674 678 674 678 672 678 c 0,142,143
 671 678 671 678 670.5 678 c 128,-1,144
 670 678 670 678 668 678 c 1,145,146
 672 679 672 679 672 680.5 c 128,-1,147
 672 682 672 682 668 684 c 0,148,149
 665 684 665 684 662.5 685 c 128,-1,150
 660 686 660 686 658 686 c 1,151,152
 661 686 661 686 662 687.5 c 128,-1,153
 663 689 663 689 662 692 c 0,154,155
 662 695 662 695 661 696.5 c 128,-1,156
 660 698 660 698 658 700 c 2,157,-1
 660 700 l 2,158,159
 660 701 660 701 659 702.5 c 128,-1,160
 658 704 658 704 656 704 c 0,161,162
 653 705 653 705 651 706.5 c 128,-1,163
 649 708 649 708 646 710 c 0,164,165
 643 711 643 711 641.5 711.5 c 128,-1,166
 640 712 640 712 638 714 c 0,167,168
 637 715 637 715 631.5 715.5 c 128,-1,169
 626 716 626 716 618 718 c 0,170,171
 611 719 611 719 606.5 719 c 128,-1,172
 602 719 602 719 600 718 c 0,173,174
 599 717 599 717 598.5 715.5 c 128,-1,175
 598 714 598 714 598 712 c 2,176,177
 598 712 598 712 598 709.5 c 128,-1,178
 598 707 598 707 600 704 c 0,179,180
 601 703 601 703 601.5 700.5 c 128,-1,181
 602 698 602 698 602 698 c 2,182,183
 602 697 602 697 601.5 694.5 c 128,-1,184
 601 692 601 692 598 690 c 0,185,186
 597 689 597 689 595.5 687.5 c 128,-1,187
 594 686 594 686 594 684 c 0,188,189
 594 681 594 681 596.5 679 c 128,-1,190
 599 677 599 677 602 674 c 0,191,192
 606 673 606 673 607.5 670 c 128,-1,193
 609 667 609 667 608 662 c 0,194,195
 608 661 608 661 605.5 658.5 c 128,-1,196
 603 656 603 656 600 654 c 0,197,198
 596 651 596 651 594 649.5 c 128,-1,199
 592 648 592 648 590 646 c 0,200,201
 589 645 589 645 589 642 c 128,-1,202
 589 639 589 639 590 636 c 0,203,204
 590 633 590 633 591.5 630.5 c 128,-1,205
 593 628 593 628 596 626 c 2,206,207
 596 626 596 626 596 625 c 128,-1,208
 596 624 596 624 596 624 c 257,209,210
 596 624 596 624 596 623 c 128,-1,211
 596 622 596 622 594 622 c 1,212,213
 594 621 594 621 593 620.5 c 128,-1,214
 592 620 592 620 592 620 c 2,215,216
 591 619 591 619 589.5 618.5 c 128,-1,217
 588 618 588 618 588 618 c 1,218,-1
 586 616 l 2,219,220
 583 615 583 615 580 616 c 128,-1,221
 577 617 577 617 574 620 c 256,222,223
 571 623 571 623 569.5 626 c 128,-1,224
 568 629 568 629 566 634 c 0,225,226
 565 641 565 641 562.5 645.5 c 128,-1,227
 560 650 560 650 558 652 c 0,228,229
 551 653 551 653 546.5 653 c 128,-1,230
 542 653 542 653 540 650 c 1,231,232
 539 654 539 654 533 657.5 c 128,-1,233
 527 661 527 661 518 666 c 0,234,235
 511 669 511 669 502 669 c 128,-1,236
 493 669 493 669 484 668 c 1,237,238
 485 668 485 668 485 670.5 c 128,-1,239
 485 673 485 673 484 676 c 0,240,241
 483 680 483 680 480 682 c 128,-1,242
 477 684 477 684 474 684 c 1,243,244
 474 685 474 685 475 688 c 128,-1,245
 476 691 476 691 476 694 c 256,246,247
 476 697 476 697 476 698.5 c 128,-1,248
 476 700 476 700 476 702 c 0,249,250
 477 705 477 705 478.5 708 c 128,-1,251
 480 711 480 711 482 714 c 0,252,253
 483 714 483 714 483.5 715.5 c 128,-1,254
 484 717 484 717 486 720 c 0,255,256
 489 721 489 721 489.5 722.5 c 128,-1,257
 490 724 490 724 492 726 c 0,258,259
 493 729 493 729 493.5 729.5 c 128,-1,260
 494 730 494 730 496 730 c 0,261,262
 505 729 505 729 512 730 c 128,-1,263
 519 731 519 731 524 736 c 0,264,265
 525 737 525 737 526.5 740 c 128,-1,266
 528 743 528 743 530 746 c 0,267,268
 531 749 531 749 532.5 751.5 c 128,-1,269
 534 754 534 754 536 756 c 0,270,271
 539 757 539 757 540.5 758.5 c 128,-1,272
 542 760 542 760 544 760 c 0,273,274
 545 759 545 759 547 758.5 c 128,-1,275
 549 758 549 758 552 756 c 0,276,277
 555 755 555 755 556.5 754.5 c 128,-1,278
 558 754 558 754 560 754 c 0,279,280
 564 753 564 753 567 754 c 128,-1,281
 570 755 570 755 570 760 c 0,282,283
 570 763 570 763 569 765.5 c 128,-1,284
 568 768 568 768 566 770 c 1,285,286
 569 770 569 770 569 772.5 c 128,-1,287
 569 775 569 775 568 780 c 0,288,289
 567 783 567 783 565.5 783.5 c 128,-1,290
 564 784 564 784 562 786 c 0,291,292
 559 787 559 787 555 786 c 128,-1,293
 551 785 551 785 548 782 c 0,294,295
 545 782 545 782 545 781 c 128,-1,296
 545 780 545 780 548 778 c 2,297,298
 548 778 548 778 546.5 776.5 c 128,-1,299
 545 775 545 775 542 772 c 0,300,301
 541 769 541 769 538.5 766.5 c 128,-1,302
 536 764 536 764 534 762 c 0,303,304
 531 761 531 761 529 761 c 128,-1,305
 527 761 527 761 524 766 c 2,306,307
 524 766 524 766 523 767.5 c 128,-1,308
 522 769 522 769 522 772 c 0,309,310
 521 776 521 776 519.5 778 c 128,-1,311
 518 780 518 780 516 780 c 0,312,313
 513 780 513 780 511 778.5 c 128,-1,314
 509 777 509 777 506 772 c 1,315,316
 507 775 507 775 506 776.5 c 128,-1,317
 505 778 505 778 500 780 c 0,318,319
 496 783 496 783 492.5 783.5 c 128,-1,320
 489 784 489 784 486 786 c 1,321,322
 492 789 492 789 491 792 c 128,-1,323
 490 795 490 795 482 800 c 0,324,325
 481 801 481 801 478 802.5 c 128,-1,326
 475 804 475 804 470 804 c 0,327,328
 467 804 467 804 464.5 804 c 128,-1,329
 462 804 462 804 460 802 c 0,330,331
 459 799 459 799 457.5 797.5 c 128,-1,332
 456 796 456 796 456 794 c 0,333,334
 456 793 456 793 456 792.5 c 128,-1,335
 456 792 456 792 458 790 c 0,336,337
 459 789 459 789 460.5 788.5 c 128,-1,338
 462 788 462 788 464 786 c 0,339,340
 465 786 465 786 467 786 c 128,-1,341
 469 786 469 786 472 784 c 0,342,343
 473 784 473 784 474.5 784 c 128,-1,344
 476 784 476 784 476 782 c 0,345,346
 480 781 480 781 481.5 778.5 c 128,-1,347
 483 776 483 776 480 774 c 2,348,349
 480 774 480 774 479 774 c 128,-1,350
 478 774 478 774 476 772 c 0,351,352
 475 772 475 772 473.5 772 c 128,-1,353
 472 772 472 772 470 770 c 0,354,355
 469 770 469 770 467.5 769 c 128,-1,356
 466 768 466 768 466 768 c 2,357,358
 465 767 465 767 465 765 c 128,-1,359
 465 763 465 763 466 760 c 256,360,361
 467 757 467 757 466.5 755.5 c 128,-1,362
 466 754 466 754 464 752 c 1,363,364
 463 753 463 753 462.5 756 c 128,-1,365
 462 759 462 759 460 762 c 0,366,367
 459 765 459 765 457.5 767.5 c 128,-1,368
 456 770 456 770 456 772 c 1,369,370
 457 769 457 769 454 768 c 128,-1,371
 451 767 451 767 442 768 c 2,372,-1
 436 768 l 2,373,374
 435 768 435 768 433 768 c 128,-1,375
 431 768 431 768 426 768 c 0,376,377
 423 767 423 767 420 766.5 c 128,-1,378
 417 766 417 766 414 766 c 0,379,380
 413 767 413 767 411.5 768 c 128,-1,381
 410 769 410 769 408 772 c 0,382,383
 407 773 407 773 407 776 c 128,-1,384
 407 779 407 779 408 782 c 0,385,386
 408 783 408 783 408 783.5 c 128,-1,387
 408 784 408 784 410 784 c 1,388,389
 409 785 409 785 407.5 786 c 128,-1,390
 406 787 406 787 404 790 c 0,391,392
 401 791 401 791 399.5 792.5 c 128,-1,393
 398 794 398 794 398 794 c 1,394,395
 385 790 385 790 371.5 784 c 128,-1,396
 358 778 358 778 344 770 c 1,397,398
 345 770 345 770 346.5 770 c 128,-1,399
 348 770 348 770 350 772 c 0,400,401
 351 772 351 772 353 773 c 128,-1,402
 355 774 355 774 358 776 c 0,403,404
 361 776 361 776 361.5 777 c 128,-1,405
 362 778 362 778 364 778 c 0,406,407
 373 782 373 782 379 782.5 c 128,-1,408
 385 783 385 783 388 782 c 2,409,-1
 390 786 l 1,410,411
 394 782 394 782 397 777.5 c 128,-1,412
 400 773 400 773 402 770 c 1,413,414
 401 771 401 771 396.5 771.5 c 128,-1,415
 392 772 392 772 384 772 c 0,416,417
 380 771 380 771 377 768.5 c 128,-1,418
 374 766 374 766 372 764 c 0,419,420
 373 761 373 761 374.5 758.5 c 128,-1,421
 376 756 376 756 376 754 c 1,422,423
 375 755 375 755 373 756.5 c 128,-1,424
 371 758 371 758 368 760 c 0,425,426
 367 761 367 761 364.5 762.5 c 128,-1,427
 362 764 362 764 360 766 c 0,428,429
 359 767 359 767 356.5 767.5 c 128,-1,430
 354 768 354 768 352 770 c 0,431,432
 348 770 348 770 345 769 c 128,-1,433
 342 768 342 768 340 768 c 0,434,435
 298 746 298 746 264 714.5 c 128,-1,436
 230 683 230 683 204 642 c 1,437,438
 207 641 207 641 208.5 639.5 c 128,-1,439
 210 638 210 638 212 638 c 0,440,441
 213 637 213 637 213.5 636 c 128,-1,442
 214 635 214 635 214 632 c 256,443,444
 214 629 214 629 215 627.5 c 128,-1,445
 216 626 216 626 216 626 c 2,446,447
 216 625 216 625 217.5 625.5 c 128,-1,448
 219 626 219 626 222 628 c 0,449,450
 225 625 225 625 225 622 c 128,-1,451
 225 619 225 619 224 616 c 2,452,453
 224 616 224 616 231 613 c 128,-1,454
 238 610 238 610 250 602 c 0,455,456
 254 596 254 596 257 593 c 128,-1,457
 260 590 260 590 262 590 c 1,458,459
 262 586 262 586 260.5 583.5 c 128,-1,460
 259 581 259 581 256 578 c 1,461,462
 256 579 256 579 254.5 580.5 c 128,-1,463
 253 582 253 582 250 584 c 0,464,465
 249 585 249 585 247.5 586 c 128,-1,466
 246 587 246 587 246 586 c 0,467,468
 245 585 245 585 245 582 c 128,-1,469
 245 579 245 579 246 576 c 0,470,471
 247 572 247 572 248.5 570 c 128,-1,472
 250 568 250 568 252 568 c 1,473,474
 251 568 251 568 249.5 566.5 c 128,-1,475
 248 565 248 565 246 560 c 0,476,477
 246 556 246 556 245 550.5 c 128,-1,478
 244 545 244 545 244 540 c 0,479,480
 244 534 244 534 244 531 c 128,-1,481
 244 528 244 528 244 526 c 2,482,-1
 246 526 l 1,483,484
 245 522 245 522 245.5 517 c 128,-1,485
 246 512 246 512 248 506 c 0,486,487
 251 499 251 499 254 496.5 c 128,-1,488
 257 494 257 494 260 494 c 1,489,490
 257 494 257 494 260 487.5 c 128,-1,491
 263 481 263 481 272 470 c 0,492,493
 273 467 273 467 274.5 465.5 c 128,-1,494
 276 464 276 464 276 464 c 2,495,496
 277 464 277 464 279 463 c 128,-1,497
 281 462 281 462 284 460 c 0,498,499
 287 459 287 459 288.5 457.5 c 128,-1,500
 290 456 290 456 292 454 c 0,501,502
 293 453 293 453 294.5 451.5 c 128,-1,503
 296 450 296 450 298 448 c 0,504,505
 299 447 299 447 300.5 444 c 128,-1,506
 302 441 302 441 304 436 c 0,507,508
 305 432 305 432 307 428 c 128,-1,509
 309 424 309 424 312 422 c 1,510,511
 311 421 311 421 312 418 c 128,-1,512
 313 415 313 415 318 410 c 0,513,514
 321 407 321 407 322.5 404 c 128,-1,515
 324 401 324 401 324 398 c 1,516,517
 323 398 323 398 322.5 398 c 128,-1,518
 322 398 322 398 322 398 c 2,519,520
 322 397 322 397 321 396.5 c 128,-1,521
 320 396 320 396 320 396 c 2,522,523
 321 395 321 395 323 393 c 128,-1,524
 325 391 325 391 330 388 c 0,525,526
 333 387 333 387 334.5 385.5 c 128,-1,527
 336 384 336 384 338 382 c 0,528,529
 338 381 338 381 338 379.5 c 128,-1,530
 338 378 338 378 340 376 c 0,531,532
 340 373 340 373 340 371.5 c 128,-1,533
 340 370 340 370 340 370 c 2,534,535
 341 369 341 369 342.5 368.5 c 128,-1,536
 344 368 344 368 346 368 c 1,537,538
 346 374 346 374 343 383 c 128,-1,539
 340 392 340 392 332 404 c 0,540,541
 328 410 328 410 325 414 c 128,-1,542
 322 418 322 418 322 420 c 0,543,544
 321 421 321 421 320.5 423 c 128,-1,545
 320 425 320 425 318 428 c 0,546,547
 318 431 318 431 318 433.5 c 128,-1,548
 318 436 318 436 316 438 c 1,549,550
 317 438 317 438 317.5 437 c 128,-1,551
 318 436 318 436 320 436 c 0,552,553
 321 436 321 436 321.5 436 c 128,-1,554
 322 436 322 436 324 434 c 0,555,556
 325 434 325 434 326.5 433 c 128,-1,557
 328 432 328 432 328 432 c 2,558,559
 329 432 329 432 329.5 431 c 128,-1,560
 330 430 330 430 330 430 c 2,561,562
 329 429 329 429 329.5 426 c 128,-1,563
 330 423 330 423 332 420 c 0,564,565
 333 417 333 417 334.5 414.5 c 128,-1,566
 336 412 336 412 338 410 c 0,567,568
 339 407 339 407 342 405 c 128,-1,569
 345 403 345 403 348 398 c 0,570,571
 351 395 351 395 352.5 393.5 c 128,-1,572
 354 392 354 392 354 392 c 2,573,574
 355 391 355 391 357.5 388 c 128,-1,575
 360 385 360 385 362 380 c 0,576,577
 365 377 365 377 365 374.5 c 128,-1,578
 365 372 365 372 362 372 c 1,579,580
 365 372 365 372 368 370.5 c 128,-1,581
 371 369 371 369 374 366 c 0,582,583
 377 365 377 365 379.5 362 c 128,-1,584
 382 359 382 359 384 356 c 0,585,586
 385 353 385 353 386.5 349.5 c 128,-1,587
 388 346 388 346 388 340 c 0,588,589
 389 336 389 336 389.5 332.5 c 128,-1,590
 390 329 390 329 392 326 c 0,591,592
 392 325 392 325 393 323.5 c 128,-1,593
 394 322 394 322 396 320 c 0,594,595
 397 317 397 317 399 315.5 c 128,-1,596
 401 314 401 314 404 314 c 2,597,-1
 420 306 l 2,598,599
 421 305 421 305 424 303.5 c 128,-1,600
 427 302 427 302 430 300 c 0,601,602
 434 297 434 297 437 295.5 c 128,-1,603
 440 294 440 294 442 292 c 0,604,605
 445 292 445 292 447.5 291 c 128,-1,606
 450 290 450 290 452 290 c 0,607,608
 453 290 453 290 455 290 c 128,-1,609
 457 290 457 290 460 292 c 0,610,611
 463 292 463 292 464.5 293 c 128,-1,612
 466 294 466 294 468 294 c 0,613,614
 472 294 472 294 475.5 292.5 c 128,-1,615
 479 291 479 291 484 286 c 0,616,617
 488 280 488 280 491 277 c 128,-1,618
 494 274 494 274 496 274 c 0,619,620
 506 268 506 268 514 266.5 c 128,-1,621
 522 265 522 265 528 266 c 1,622,623
 527 266 527 266 527.5 265.5 c 128,-1,624
 528 265 528 265 528 262 c 0,625,626
 528 261 528 261 529 259 c 128,-1,627
 530 257 530 257 532 254 c 0,628,629
 533 251 533 251 534.5 249.5 c 128,-1,630
 536 248 536 248 538 246 c 0,631,632
 539 245 539 245 539.5 243.5 c 128,-1,633
 540 242 540 242 540 240 c 0,634,635
 541 239 541 239 544 237 c 128,-1,636
 547 235 547 235 552 232 c 0,637,638
 555 229 555 229 557.5 227.5 c 128,-1,639
 560 226 560 226 562 224 c 0,640,641
 563 224 563 224 564.5 225 c 128,-1,642
 566 226 566 226 566 228 c 1,643,644
 565 227 565 227 566 224 c 128,-1,645
 567 221 567 221 570 218 c 0,646,647
 573 214 573 214 575 212.5 c 128,-1,648
 577 211 577 211 580 212 c 0,649,650
 584 212 584 212 586 216.5 c 128,-1,651
 588 221 588 221 588 230 c 1,652,653
 579 226 579 226 572 228.5 c 128,-1,654
 565 231 565 231 560 240 c 1,655,656
 560 240 560 240 560 241 c 128,-1,657
 560 242 560 242 558 244 c 2,658,659
 558 244 558 244 557 245 c 128,-1,660
 556 246 556 246 556 248 c 0,661,662
 556 249 556 249 555 250.5 c 128,-1,663
 554 252 554 252 554 252 c 2,664,665
 554 253 554 253 554 254.5 c 128,-1,666
 554 256 554 256 554 258 c 2,667,668
 554 258 554 258 555 258 c 128,-1,669
 556 258 556 258 558 258 c 0,670,671
 559 258 559 258 560.5 259 c 128,-1,672
 562 260 562 260 564 260 c 1,673,674
 564 261 564 261 564 263 c 128,-1,675
 564 265 564 265 562 268 c 0,676,677
 561 271 561 271 560.5 272.5 c 128,-1,678
 560 274 560 274 560 276 c 0,679,680
 560 277 560 277 558.5 280 c 128,-1,681
 557 283 557 283 554 286 c 0,682,683
 551 290 551 290 549.5 292 c 128,-1,684
 548 294 548 294 546 296 c 1,685,686
 545 293 545 293 543 291.5 c 128,-1,687
 541 290 541 290 538 290 c 0,688,689
 535 291 535 291 532.5 292 c 128,-1,690
 530 293 530 293 528 296 c 2,691,692
 528 296 528 296 528 295 c 128,-1,693
 528 294 528 294 528 292 c 1,694,695
 527 292 527 292 526.5 291 c 128,-1,696
 526 290 526 290 526 290 c 2,697,698
 523 290 523 290 520.5 290 c 128,-1,699
 518 290 518 290 518 290 c 257,700,701
 518 290 518 290 518 292.5 c 128,-1,702
 518 295 518 295 520 300 c 0,703,704
 520 304 520 304 520 307 c 128,-1,705
 520 310 520 310 522 312 c 0,706,707
 522 313 522 313 522 315 c 128,-1,708
 522 317 522 317 524 320 c 0,709,710
 525 321 525 321 526.5 323.5 c 128,-1,711
 528 326 528 326 528 328 c 0,712,713
 529 329 529 329 529.5 330.5 c 128,-1,714
 530 332 530 332 532 334 c 0,715,716
 532 337 532 337 531 337.5 c 128,-1,717
 530 338 530 338 528 340 c 0,718,719
 527 341 527 341 525 341.5 c 128,-1,720
 523 342 523 342 518 342 c 0,721,722
 514 342 514 342 510 339 c 128,-1,723
 506 336 506 336 504 330 c 2,724,725
 504 330 504 330 503 328.5 c 128,-1,726
 502 327 502 327 502 324 c 0,727,728
 502 323 502 323 501 321.5 c 128,-1,729
 500 320 500 320 500 318 c 0,730,731
 499 317 499 317 497.5 315.5 c 128,-1,732
 496 314 496 314 494 314 c 0,733,734
 493 313 493 313 489 312.5 c 128,-1,735
 485 312 485 312 480 312 c 0,736,737
 476 312 476 312 472.5 313 c 128,-1,738
 469 314 469 314 466 316 c 0,739,740
 463 317 463 317 460 321.5 c 128,-1,741
 457 326 457 326 454 332 c 256,742,743
 451 338 451 338 449.5 343.5 c 128,-1,744
 448 349 448 349 448 354 c 0,745,746
 448 355 448 355 448 359 c 128,-1,747
 448 363 448 363 450 368 c 0,748,749
 450 372 450 372 451 376 c 128,-1,750
 452 380 452 380 452 382 c 0,751,752
 452 385 452 385 451 388 c 128,-1,753
 450 391 450 391 448 396 c 0,754,755
 449 397 449 397 450.5 398.5 c 128,-1,756
 452 400 452 400 454 402 c 0,757,758
 455 403 455 403 456.5 404.5 c 128,-1,759
 458 406 458 406 460 408 c 1,760,761
 460 408 460 408 460 408 c 129,-1,762
 460 408 460 408 462 408 c 1,763,764
 462 409 462 409 463 409 c 128,-1,765
 464 409 464 409 464 408 c 1,766,767
 465 408 465 408 465.5 408 c 128,-1,768
 466 408 466 408 466 410 c 1,769,770
 467 410 467 410 467.5 411 c 128,-1,771
 468 412 468 412 468 414 c 1,772,773
 468 414 468 414 468 414 c 129,-1,774
 468 414 468 414 466 414 c 0,775,776
 465 415 465 415 464.5 415.5 c 128,-1,777
 464 416 464 416 464 416 c 2,778,779
 465 416 465 416 469.5 416 c 128,-1,780
 474 416 474 416 480 418 c 0,781,782
 486 419 486 419 490 418.5 c 128,-1,783
 494 418 494 418 496 416 c 0,784,785
 500 413 500 413 503 413 c 128,-1,786
 506 413 506 413 508 418 c 2,787,788
 508 418 508 418 508 419.5 c 128,-1,789
 508 421 508 421 506 424 c 0,790,791
 506 425 506 425 506 426.5 c 128,-1,792
 506 428 506 428 506 430 c 1,793,794
 507 423 507 423 511.5 421.5 c 128,-1,795
 516 420 516 420 524 426 c 1,796,797
 524 425 524 425 526.5 424.5 c 128,-1,798
 529 424 529 424 532 422 c 0,799,800
 535 422 535 422 537.5 422 c 128,-1,801
 540 422 540 422 542 420 c 0,802,803
 543 420 543 420 543.5 419 c 128,-1,804
 544 418 544 418 546 416 c 0,805,806
 547 416 547 416 547.5 415 c 128,-1,807
 548 414 548 414 550 414 c 1,808,809
 550 414 550 414 550 414 c 129,-1,810
 550 414 550 414 552 414 c 0,811,812
 553 415 553 415 553.5 415.5 c 128,-1,813
 554 416 554 416 556 418 c 1,814,815
 559 414 559 414 560.5 410.5 c 128,-1,816
 562 407 562 407 564 404 c 0,817,818
 567 394 567 394 569.5 387 c 128,-1,819
 572 380 572 380 574 380 c 0,820,821
 577 379 577 379 578.5 378.5 c 128,-1,822
 580 378 580 378 580 378 c 2,823,824
 581 378 581 378 582.5 379.5 c 128,-1,825
 584 381 584 381 584 384 c 0,826,827
 584 385 584 385 584 387.5 c 128,-1,828
 584 390 584 390 584 392 c 0,829,830
 584 393 584 393 583 394.5 c 128,-1,831
 582 396 582 396 582 398 c 2,832,-1
 582 418 l 1,833,834
 578 419 578 419 575 421 c 128,-1,835
 572 423 572 423 570 426 c 0,836,837
 570 427 570 427 570 430 c 128,-1,838
 570 433 570 433 572 436 c 0,839,840
 573 439 573 439 575 441 c 128,-1,841
 577 443 577 443 580 446 c 2,842,843
 580 446 580 446 581 447 c 128,-1,844
 582 448 582 448 584 448 c 0,845,846
 587 449 587 449 589 449.5 c 128,-1,847
 591 450 591 450 594 452 c 0,848,849
 595 453 595 453 597.5 454.5 c 128,-1,850
 600 456 600 456 600 456 c 2,851,852
 606 462 606 462 608.5 466.5 c 128,-1,853
 611 471 611 471 610 476 c 1,854,855
 611 476 611 476 612.5 477.5 c 128,-1,856
 614 479 614 479 616 482 c 2,857,858
 616 482 616 482 615 482 c 128,-1,859
 614 482 614 482 612 484 c 2,860,861
 612 484 612 484 611 485 c 128,-1,862
 610 486 610 486 608 486 c 1,863,864
 608 487 608 487 607 487.5 c 128,-1,865
 606 488 606 488 606 488 c 2,866,867
 609 489 609 489 609 491 c 128,-1,868
 609 493 609 493 608 496 c 0,869,870
 609 497 609 497 609.5 498.5 c 128,-1,871
 610 500 610 500 612 502 c 0,872,873
 612 505 612 505 613 506.5 c 128,-1,874
 614 508 614 508 616 508 c 0,875,876
 619 505 619 505 622 505 c 128,-1,877
 625 505 625 505 628 508 c 0,878,879
 629 509 629 509 629 511.5 c 128,-1,880
 629 514 629 514 628 516 c 0,881,882
 629 519 629 519 632 520.5 c 128,-1,883
 635 522 635 522 640 522 c 0,884,885
 644 523 644 523 647 524.5 c 128,-1,886
 650 526 650 526 650 528 c 1,887,888
 653 528 653 528 653.5 528 c 128,-1,889
 654 528 654 528 656 530 c 2,890,891
 656 530 656 530 656 531.5 c 128,-1,892
 656 533 656 533 656 536 c 256,893,894
 656 539 656 539 656 540.5 c 128,-1,895
 656 542 656 542 658 542 c 1,896,897
 658 543 658 543 660.5 544.5 c 128,-1,898
 663 546 663 546 666 548 c 0,899,900
 669 549 669 549 670.5 549.5 c 128,-1,901
 672 550 672 550 674 550 c 2,902,-1
 684 558 l 1,903,904
 684 558 684 558 684 559 c 128,-1,905
 684 560 684 560 684 560 c 1,906,907
 688 559 688 559 692.5 560 c 128,-1,908
 697 561 697 561 700 566 c 0,909,910
 703 569 703 569 703 572 c 128,-1,911
 703 575 703 575 698 578 c 0,912,913
 698 579 698 579 698 580.5 c 128,-1,914
 698 582 698 582 696 582 c 0,915,916
 695 583 695 583 692.5 583.5 c 128,-1,917
 690 584 690 584 688 586 c 2,918,919
 688 586 688 586 689.5 586 c 128,-1,920
 691 586 691 586 694 586 c 0,921,922
 695 586 695 586 696.5 586 c 128,-1,923
 698 586 698 586 700 586 c 0,924,925
 704 589 704 589 703 591.5 c 128,-1,926
 702 594 702 594 696 596 c 0,927,928
 692 597 692 597 686 596 c 128,-1,929
 680 595 680 595 672 590 c 1,930,-1
 668 590 l 2,36,37
576 88 m 0,931,932
 634 98 634 98 684 125 c 128,-1,933
 734 152 734 152 776 196 c 0,934,935
 775 197 775 197 773 197.5 c 128,-1,936
 771 198 771 198 768 198 c 0,937,938
 767 199 767 199 764.5 199.5 c 128,-1,939
 762 200 762 200 762 200 c 2,940,941
 756 203 756 203 753 203.5 c 128,-1,942
 750 204 750 204 748 206 c 0,943,944
 748 207 748 207 748 208.5 c 128,-1,945
 748 210 748 210 746 212 c 0,946,947
 746 213 746 213 745 214.5 c 128,-1,948
 744 216 744 216 742 218 c 0,949,950
 741 218 741 218 739 219 c 128,-1,951
 737 220 737 220 734 222 c 0,952,953
 733 223 733 223 731.5 224.5 c 128,-1,954
 730 226 730 226 728 226 c 1,955,956
 728 227 728 227 727 227.5 c 128,-1,957
 726 228 726 228 724 230 c 0,958,959
 723 231 723 231 722.5 231.5 c 128,-1,960
 722 232 722 232 720 232 c 1,961,962
 720 233 720 233 719 233.5 c 128,-1,963
 718 234 718 234 716 236 c 0,964,965
 715 236 715 236 713.5 236 c 128,-1,966
 712 236 712 236 712 236 c 2,967,968
 711 236 711 236 709.5 236 c 128,-1,969
 708 236 708 236 706 236 c 2,970,-1
 704 236 l 2,971,972
 703 236 703 236 702.5 235 c 128,-1,973
 702 234 702 234 700 234 c 2,974,975
 700 234 700 234 699 233 c 128,-1,976
 698 232 698 232 698 232 c 2,977,978
 697 232 697 232 696.5 232 c 128,-1,979
 696 232 696 232 696 230 c 1,980,981
 696 230 696 230 696 230 c 129,-1,982
 696 230 696 230 696 230 c 1,983,984
 690 234 690 234 684.5 237 c 128,-1,985
 679 240 679 240 674 242 c 0,986,987
 673 242 673 242 671.5 243 c 128,-1,988
 670 244 670 244 668 244 c 0,989,990
 667 245 667 245 665.5 246.5 c 128,-1,991
 664 248 664 248 662 248 c 0,992,993
 661 249 661 249 659.5 249.5 c 128,-1,994
 658 250 658 250 656 250 c 0,995,996
 655 250 655 250 653.5 249 c 128,-1,997
 652 248 652 248 650 246 c 0,998,999
 649 245 649 245 648.5 242.5 c 128,-1,1000
 648 240 648 240 646 238 c 0,1001,1002
 646 235 646 235 646 232.5 c 128,-1,1003
 646 230 646 230 646 230 c 2,1004,1005
 645 231 645 231 645 233 c 128,-1,1006
 645 235 645 235 646 240 c 0,1007,1008
 647 243 647 243 647 245.5 c 128,-1,1009
 647 248 647 248 646 250 c 0,1010,1011
 646 251 646 251 644.5 252 c 128,-1,1012
 643 253 643 253 640 252 c 0,1013,1014
 639 252 639 252 637.5 252 c 128,-1,1015
 636 252 636 252 634 250 c 0,1016,1017
 633 250 633 250 631.5 249 c 128,-1,1018
 630 248 630 248 628 246 c 0,1019,1020
 625 245 625 245 624.5 243.5 c 128,-1,1021
 624 242 624 242 622 242 c 2,1022,1023
 622 242 622 242 621 241 c 128,-1,1024
 620 240 620 240 618 238 c 0,1025,1026
 615 237 615 237 614.5 236.5 c 128,-1,1027
 614 236 614 236 612 234 c 0,1028,1029
 612 233 612 233 611 231.5 c 128,-1,1030
 610 230 610 230 610 228 c 0,1031,1032
 609 225 609 225 608.5 223.5 c 128,-1,1033
 608 222 608 222 606 222 c 2,1034,1035
 606 222 606 222 604.5 223 c 128,-1,1036
 603 224 603 224 600 224 c 0,1037,1038
 597 225 597 225 595.5 225.5 c 128,-1,1039
 594 226 594 226 594 228 c 1,1040,1041
 595 225 595 225 595.5 220.5 c 128,-1,1042
 596 216 596 216 596 208 c 0,1043,1044
 597 201 597 201 597.5 196 c 128,-1,1045
 598 191 598 191 600 186 c 0,1046,1047
 601 177 601 177 599.5 170.5 c 128,-1,1048
 598 164 598 164 592 158 c 0,1049,1050
 585 152 585 152 580.5 146.5 c 128,-1,1051
 576 141 576 141 576 136 c 0,1052,1053
 575 130 575 130 576 126 c 128,-1,1054
 577 122 577 122 582 122 c 1,1055,1056
 582 119 582 119 581.5 116 c 128,-1,1057
 581 113 581 113 578 110 c 0,1058,1059
 577 106 577 106 575.5 103 c 128,-1,1060
 574 100 574 100 574 98 c 0,1061,1062
 574 95 574 95 574 93 c 128,-1,1063
 574 91 574 91 576 88 c 0,931,932
EndSplineSet
EndChar

StartChar: A
Encoding: 65 65 36
Width: 1024
Flags: W
LayerCount: 2
Fore
SplineSet
768 192 m 0,0,1
 768 199 768 199 765.5 205.5 c 128,-1,2
 763 212 763 212 758 218 c 0,3,4
 752 222 752 222 746 225 c 128,-1,5
 740 228 740 228 732 228 c 0,6,7
 725 228 725 228 718 225.5 c 128,-1,8
 711 223 711 223 706 218 c 0,9,10
 700 212 700 212 697 206 c 128,-1,11
 694 200 694 200 694 192 c 0,12,13
 694 185 694 185 697 178.5 c 128,-1,14
 700 172 700 172 706 166 c 0,15,16
 710 162 710 162 717 159 c 128,-1,17
 724 156 724 156 732 156 c 0,18,19
 739 156 739 156 745.5 158.5 c 128,-1,20
 752 161 752 161 758 166 c 0,21,22
 762 172 762 172 765 178 c 128,-1,23
 768 184 768 184 768 192 c 0,0,1
914 192 m 0,24,25
 914 199 914 199 911.5 205.5 c 128,-1,26
 909 212 909 212 904 218 c 0,27,28
 898 222 898 222 892 225 c 128,-1,29
 886 228 886 228 878 228 c 0,30,31
 871 228 871 228 864.5 225.5 c 128,-1,32
 858 223 858 223 852 218 c 0,33,34
 846 212 846 212 844 206 c 128,-1,35
 842 200 842 200 842 192 c 0,36,37
 842 185 842 185 844 178.5 c 128,-1,38
 846 172 846 172 852 166 c 0,39,40
 858 162 858 162 864 159 c 128,-1,41
 870 156 870 156 878 156 c 0,42,43
 885 156 885 156 891.5 158.5 c 128,-1,44
 898 161 898 161 904 166 c 0,45,46
 908 172 908 172 911 178 c 128,-1,47
 914 184 914 184 914 192 c 0,24,25
988 320 m 2,48,-1
 988 138 l 2,49,50
 988 126 988 126 984 116 c 128,-1,51
 980 106 980 106 972 98 c 0,52,53
 963 91 963 91 953.5 86.5 c 128,-1,54
 944 82 944 82 932 82 c 2,55,-1
 92 82 l 2,56,57
 80 82 80 82 70.5 86 c 128,-1,58
 61 90 61 90 52 98 c 0,59,60
 45 105 45 105 40.5 115.5 c 128,-1,61
 36 126 36 126 36 138 c 2,62,-1
 36 320 l 2,63,64
 36 332 36 332 40 341 c 128,-1,65
 44 350 44 350 52 358 c 0,66,67
 61 367 61 367 70.5 370.5 c 128,-1,68
 80 374 80 374 92 374 c 2,69,-1
 358 374 l 1,70,-1
 434 298 l 2,71,72
 450 282 450 282 469.5 274 c 128,-1,73
 489 266 489 266 512 266 c 0,74,75
 534 266 534 266 553.5 273.5 c 128,-1,76
 573 281 573 281 590 298 c 2,77,-1
 668 374 l 1,78,-1
 932 374 l 2,79,80
 944 374 944 374 953.5 370.5 c 128,-1,81
 963 367 963 367 972 358 c 0,82,83
 979 351 979 351 983.5 341.5 c 128,-1,84
 988 332 988 332 988 320 c 2,48,-1
802 646 m 0,85,86
 806 634 806 634 804.5 624 c 128,-1,87
 803 614 803 614 794 606 c 2,88,-1
 538 350 l 2,89,90
 532 344 532 344 526 341 c 128,-1,91
 520 338 520 338 512 338 c 0,92,93
 505 338 505 338 498.5 341 c 128,-1,94
 492 344 492 344 486 350 c 2,95,-1
 230 606 l 2,96,97
 221 613 221 613 219.5 623.5 c 128,-1,98
 218 634 218 634 222 646 c 0,99,100
 226 656 226 656 235 662 c 128,-1,101
 244 668 244 668 256 668 c 2,102,-1
 402 668 l 1,103,-1
 402 924 l 2,104,105
 402 931 402 931 405 937.5 c 128,-1,106
 408 944 408 944 414 950 c 0,107,108
 418 954 418 954 424 957 c 128,-1,109
 430 960 430 960 438 960 c 2,110,-1
 586 960 l 2,111,112
 593 960 593 960 599 957.5 c 128,-1,113
 605 955 605 955 610 950 c 0,114,115
 616 944 616 944 619 938 c 128,-1,116
 622 932 622 932 622 924 c 2,117,-1
 622 668 l 1,118,-1
 768 668 l 2,119,120
 780 668 780 668 788.5 662.5 c 128,-1,121
 797 657 797 657 802 646 c 0,85,86
EndSplineSet
EndChar

StartChar: B
Encoding: 66 66 37
Width: 1024
Flags: W
LayerCount: 2
Fore
SplineSet
822 450 m 0,0,1
 822 496 822 496 810 538 c 128,-1,2
 798 580 798 580 774 618 c 1,3,-1
 342 188 l 1,4,5
 381 163 381 163 424 150.5 c 128,-1,6
 467 138 467 138 512 138 c 0,7,8
 543 138 543 138 573 144 c 128,-1,9
 603 150 603 150 632 162 c 0,10,11
 662 174 662 174 686.5 190.5 c 128,-1,12
 711 207 711 207 732 228 c 256,13,14
 753 249 753 249 769.5 274 c 128,-1,15
 786 299 786 299 798 328 c 0,16,17
 810 356 810 356 816 387 c 128,-1,18
 822 418 822 418 822 450 c 0,0,1
252 278 m 1,19,-1
 684 710 l 1,20,21
 645 735 645 735 602 748.5 c 128,-1,22
 559 762 559 762 512 762 c 0,23,24
 470 762 470 762 431 751.5 c 128,-1,25
 392 741 392 741 356 720 c 256,26,27
 320 699 320 699 291.5 670.5 c 128,-1,28
 263 642 263 642 242 606 c 0,29,30
 223 570 223 570 212.5 531 c 128,-1,31
 202 492 202 492 202 450 c 0,32,33
 202 404 202 404 214 361.5 c 128,-1,34
 226 319 226 319 252 278 c 1,19,-1
950 450 m 256,35,36
 950 405 950 405 942 362 c 128,-1,37
 934 319 934 319 916 278 c 0,38,39
 898 238 898 238 875 202.5 c 128,-1,40
 852 167 852 167 822 138 c 0,41,42
 794 108 794 108 758.5 85 c 128,-1,43
 723 62 723 62 682 44 c 0,44,45
 642 26 642 26 599.5 18 c 128,-1,46
 557 10 557 10 512 10 c 256,47,48
 467 10 467 10 425 18 c 128,-1,49
 383 26 383 26 342 44 c 0,50,51
 302 62 302 62 266.5 85 c 128,-1,52
 231 108 231 108 202 138 c 0,53,54
 172 166 172 166 149 201.5 c 128,-1,55
 126 237 126 237 108 278 c 0,56,57
 90 318 90 318 82 361.5 c 128,-1,58
 74 405 74 405 74 450 c 256,59,60
 74 495 74 495 82 537 c 128,-1,61
 90 579 90 579 108 620 c 0,62,63
 126 662 126 662 149 697 c 128,-1,64
 172 732 172 732 202 762 c 0,65,66
 230 790 230 790 265.5 813.5 c 128,-1,67
 301 837 301 837 342 854 c 0,68,69
 382 872 382 872 424.5 881 c 128,-1,70
 467 890 467 890 512 890 c 256,71,72
 557 890 557 890 599 881 c 128,-1,73
 641 872 641 872 682 854 c 0,74,75
 722 838 722 838 757.5 814.5 c 128,-1,76
 793 791 793 791 822 762 c 0,77,78
 852 732 852 732 875 697 c 128,-1,79
 898 662 898 662 916 620 c 0,80,81
 934 580 934 580 942 537.5 c 128,-1,82
 950 495 950 495 950 450 c 256,35,36
EndSplineSet
EndChar

StartChar: C
Encoding: 67 67 38
Width: 1024
Flags: W
LayerCount: 2
Fore
SplineSet
732 758 m 2,0,-1
 732 138 l 2,1,2
 732 131 732 131 729 124 c 128,-1,3
 726 117 726 117 720 112 c 0,4,5
 716 106 716 106 709 103 c 128,-1,6
 702 100 702 100 694 100 c 0,7,8
 687 100 687 100 681 103 c 128,-1,9
 675 106 675 106 670 112 c 2,10,-1
 478 302 l 1,11,-1
 330 302 l 2,12,13
 323 302 323 302 316 304.5 c 128,-1,14
 309 307 309 307 304 312 c 0,15,16
 298 318 298 318 295 324 c 128,-1,17
 292 330 292 330 292 338 c 2,18,-1
 292 558 l 2,19,20
 292 565 292 565 295 571.5 c 128,-1,21
 298 578 298 578 304 584 c 0,22,23
 308 588 308 588 315 591 c 128,-1,24
 322 594 322 594 330 594 c 2,25,-1
 478 594 l 1,26,-1
 670 784 l 2,27,28
 674 790 674 790 680 793 c 128,-1,29
 686 796 686 796 694 796 c 0,30,31
 701 796 701 796 708 793 c 128,-1,32
 715 790 715 790 720 784 c 0,33,34
 726 780 726 780 729 773 c 128,-1,35
 732 766 732 766 732 758 c 2,0,-1
EndSplineSet
EndChar

StartChar: D
Encoding: 68 68 39
Width: 1024
Flags: W
LayerCount: 2
Fore
SplineSet
392 684 m 0,0,1
 396 684 396 684 399.5 685.5 c 128,-1,2
 403 687 403 687 408 690 c 0,3,4
 411 693 411 693 412.5 697 c 128,-1,5
 414 701 414 701 414 706 c 0,6,7
 414 710 414 710 412.5 714.5 c 128,-1,8
 411 719 411 719 408 722 c 0,9,10
 404 725 404 725 400.5 726.5 c 128,-1,11
 397 728 397 728 392 728 c 0,12,13
 388 728 388 728 383.5 726.5 c 128,-1,14
 379 725 379 725 376 722 c 256,15,16
 373 719 373 719 371.5 715 c 128,-1,17
 370 711 370 711 370 706 c 0,18,19
 370 702 370 702 371.5 697.5 c 128,-1,20
 373 693 373 693 376 690 c 256,21,22
 379 687 379 687 383 685.5 c 128,-1,23
 387 684 387 684 392 684 c 0,0,1
632 684 m 0,24,25
 636 684 636 684 640.5 685.5 c 128,-1,26
 645 687 645 687 648 690 c 256,27,28
 651 693 651 693 652.5 697 c 128,-1,29
 654 701 654 701 654 706 c 0,30,31
 654 710 654 710 652.5 714.5 c 128,-1,32
 651 719 651 719 648 722 c 256,33,34
 645 725 645 725 641 726.5 c 128,-1,35
 637 728 637 728 632 728 c 0,36,37
 628 728 628 728 624.5 726.5 c 128,-1,38
 621 725 621 725 616 722 c 0,39,40
 613 719 613 719 611.5 715 c 128,-1,41
 610 711 610 711 610 706 c 0,42,43
 610 702 610 702 611.5 697.5 c 128,-1,44
 613 693 613 693 616 690 c 0,45,46
 620 687 620 687 623.5 685.5 c 128,-1,47
 627 684 627 684 632 684 c 0,24,25
168 578 m 256,48,49
 180 578 180 578 190.5 574.5 c 128,-1,50
 201 571 201 571 210 562 c 256,51,52
 219 553 219 553 222.5 542.5 c 128,-1,53
 226 532 226 532 226 520 c 2,54,-1
 226 274 l 2,55,56
 226 262 226 262 222.5 252 c 128,-1,57
 219 242 219 242 210 234 c 0,58,59
 201 225 201 225 190.5 220.5 c 128,-1,60
 180 216 180 216 168 216 c 256,61,62
 156 216 156 216 145.5 220.5 c 128,-1,63
 135 225 135 225 126 234 c 0,64,65
 119 241 119 241 114.5 251.5 c 128,-1,66
 110 262 110 262 110 274 c 2,67,-1
 110 520 l 2,68,69
 110 532 110 532 114 542.5 c 128,-1,70
 118 553 118 553 126 562 c 0,71,72
 135 571 135 571 145.5 574.5 c 128,-1,73
 156 578 156 578 168 578 c 256,48,49
774 568 m 1,74,-1
 774 188 l 2,75,76
 774 175 774 175 769.5 164 c 128,-1,77
 765 153 765 153 756 142 c 0,78,79
 747 133 747 133 736.5 128.5 c 128,-1,80
 726 124 726 124 712 124 c 2,81,-1
 670 124 l 1,82,-1
 670 -6 l 2,83,84
 670 -18 670 -18 665.5 -28 c 128,-1,85
 661 -38 661 -38 652 -46 c 0,86,87
 643 -55 643 -55 632.5 -59.5 c 128,-1,88
 622 -64 622 -64 610 -64 c 256,89,90
 598 -64 598 -64 587.5 -59.5 c 128,-1,91
 577 -55 577 -55 568 -46 c 0,92,93
 561 -39 561 -39 556.5 -28.5 c 128,-1,94
 552 -18 552 -18 552 -6 c 2,95,-1
 552 124 l 1,96,-1
 472 124 l 1,97,-1
 472 -6 l 2,98,99
 472 -18 472 -18 468 -28 c 128,-1,100
 464 -38 464 -38 456 -46 c 0,101,102
 447 -55 447 -55 436.5 -59.5 c 128,-1,103
 426 -64 426 -64 414 -64 c 256,104,105
 402 -64 402 -64 391.5 -59.5 c 128,-1,106
 381 -55 381 -55 372 -46 c 0,107,108
 365 -39 365 -39 360.5 -28.5 c 128,-1,109
 356 -18 356 -18 356 -6 c 2,110,-1
 354 124 l 1,111,-1
 312 124 l 2,112,113
 300 124 300 124 288.5 128.5 c 128,-1,114
 277 133 277 133 268 142 c 0,115,116
 259 152 259 152 254.5 163 c 128,-1,117
 250 174 250 174 250 188 c 2,118,-1
 250 568 l 1,119,-1
 774 568 l 1,74,-1
642 800 m 1,120,121
 672 784 672 784 697 762.5 c 128,-1,122
 722 741 722 741 740 712 c 0,123,124
 758 684 758 684 767 653.5 c 128,-1,125
 776 623 776 623 776 588 c 1,126,-1
 248 588 l 1,127,128
 248 622 248 622 257 652.5 c 128,-1,129
 266 683 266 683 284 712 c 0,130,131
 302 740 302 740 327 761.5 c 128,-1,132
 352 783 352 783 382 800 c 1,133,-1
 342 874 l 2,134,135
 341 878 341 878 341 881 c 128,-1,136
 341 884 341 884 344 886 c 0,137,138
 348 887 348 887 351 886 c 128,-1,139
 354 885 354 885 356 882 c 2,140,-1
 398 806 l 1,141,142
 425 818 425 818 453.5 824 c 128,-1,143
 482 830 482 830 512 830 c 256,144,145
 542 830 542 830 570.5 824 c 128,-1,146
 599 818 599 818 626 806 c 1,147,-1
 668 882 l 2,148,149
 669 885 669 885 672 886 c 128,-1,150
 675 887 675 887 680 886 c 0,151,152
 683 885 683 885 683 882 c 128,-1,153
 683 879 683 879 682 874 c 2,154,-1
 642 800 l 1,120,121
914 520 m 2,155,-1
 914 274 l 2,156,157
 914 262 914 262 910 252 c 128,-1,158
 906 242 906 242 898 234 c 0,159,160
 889 225 889 225 878.5 220.5 c 128,-1,161
 868 216 868 216 856 216 c 256,162,163
 844 216 844 216 833.5 220.5 c 128,-1,164
 823 225 823 225 814 234 c 0,165,166
 805 241 805 241 801.5 251.5 c 128,-1,167
 798 262 798 262 798 274 c 2,168,-1
 798 520 l 2,169,170
 798 532 798 532 801.5 542.5 c 128,-1,171
 805 553 805 553 814 562 c 256,172,173
 823 571 823 571 833.5 574.5 c 128,-1,174
 844 578 844 578 856 578 c 256,175,176
 868 578 868 578 878.5 574.5 c 128,-1,177
 889 571 889 571 898 562 c 0,178,179
 905 553 905 553 909.5 542.5 c 128,-1,180
 914 532 914 532 914 520 c 2,155,-1
EndSplineSet
EndChar

StartChar: E
Encoding: 69 69 40
Width: 1024
Flags: W
LayerCount: 2
Fore
SplineSet
476 448 m 256,0,1
 476 478 476 478 465.5 503.5 c 128,-1,2
 455 529 455 529 432 552 c 0,3,4
 411 573 411 573 385.5 583.5 c 128,-1,5
 360 594 360 594 330 594 c 0,6,7
 299 594 299 594 273 583.5 c 128,-1,8
 247 573 247 573 226 552 c 0,9,10
 205 530 205 530 193.5 504 c 128,-1,11
 182 478 182 478 182 448 c 256,12,13
 182 418 182 418 193.5 392.5 c 128,-1,14
 205 367 205 367 226 344 c 0,15,16
 247 323 247 323 272.5 312.5 c 128,-1,17
 298 302 298 302 330 302 c 0,18,19
 360 302 360 302 385.5 312.5 c 128,-1,20
 411 323 411 323 432 344 c 0,21,22
 454 366 454 366 465 392 c 128,-1,23
 476 418 476 418 476 448 c 256,0,1
914 156 m 256,24,25
 914 171 914 171 909 183 c 128,-1,26
 904 195 904 195 892 206 c 0,27,28
 882 218 882 218 869 223 c 128,-1,29
 856 228 856 228 842 228 c 0,30,31
 827 228 827 228 814 223 c 128,-1,32
 801 218 801 218 790 206 c 0,33,34
 780 196 780 196 774 183.5 c 128,-1,35
 768 171 768 171 768 156 c 256,36,37
 768 141 768 141 773.5 128 c 128,-1,38
 779 115 779 115 790 104 c 0,39,40
 800 94 800 94 812.5 88 c 128,-1,41
 825 82 825 82 842 82 c 0,42,43
 857 82 857 82 869 87.5 c 128,-1,44
 881 93 881 93 892 104 c 0,45,46
 904 114 904 114 909 127.5 c 128,-1,47
 914 141 914 141 914 156 c 256,24,25
914 740 m 256,48,49
 914 755 914 755 909 768 c 128,-1,50
 904 781 904 781 892 792 c 0,51,52
 882 802 882 802 869 808 c 128,-1,53
 856 814 856 814 842 814 c 0,54,55
 827 814 827 814 814 808.5 c 128,-1,56
 801 803 801 803 790 792 c 0,57,58
 780 782 780 782 774 768.5 c 128,-1,59
 768 755 768 755 768 740 c 256,60,61
 768 725 768 725 773.5 712.5 c 128,-1,62
 779 700 779 700 790 688 c 0,63,64
 800 678 800 678 812.5 673 c 128,-1,65
 825 668 825 668 842 668 c 0,66,67
 857 668 857 668 869 672.5 c 128,-1,68
 881 677 881 677 892 688 c 0,69,70
 904 700 904 700 909 712.5 c 128,-1,71
 914 725 914 725 914 740 c 256,48,49
694 500 m 2,72,-1
 694 394 l 2,73,74
 694 391 694 391 693.5 388.5 c 128,-1,75
 693 386 693 386 690 384 c 0,76,77
 689 381 689 381 687 379.5 c 128,-1,78
 685 378 685 378 682 378 c 2,79,-1
 594 364 l 1,80,81
 590 354 590 354 585 343 c 128,-1,82
 580 332 580 332 574 320 c 1,83,84
 584 307 584 307 596.5 290.5 c 128,-1,85
 609 274 609 274 626 254 c 0,86,87
 627 251 627 251 628.5 248 c 128,-1,88
 630 245 630 245 630 242 c 256,89,90
 630 239 630 239 629 236.5 c 128,-1,91
 628 234 628 234 626 232 c 0,92,93
 620 223 620 223 608.5 210.5 c 128,-1,94
 597 198 597 198 580 180 c 0,95,96
 562 164 562 164 551 155 c 128,-1,97
 540 146 540 146 534 146 c 0,98,99
 531 146 531 146 528 147 c 128,-1,100
 525 148 525 148 522 150 c 2,101,-1
 456 202 l 1,102,103
 446 198 446 198 435 193.5 c 128,-1,104
 424 189 424 189 412 184 c 1,105,106
 409 154 409 154 406 132 c 128,-1,107
 403 110 403 110 400 96 c 0,108,109
 397 89 397 89 393.5 85.5 c 128,-1,110
 390 82 390 82 382 82 c 2,111,-1
 276 82 l 2,112,113
 273 82 273 82 270 83 c 128,-1,114
 267 84 267 84 264 86 c 0,115,116
 263 89 263 89 261.5 91 c 128,-1,117
 260 93 260 93 258 96 c 2,118,-1
 246 184 l 1,119,120
 236 187 236 187 225 191.5 c 128,-1,121
 214 196 214 196 202 202 c 1,122,-1
 136 150 l 2,123,124
 133 149 133 149 130 147.5 c 128,-1,125
 127 146 127 146 124 146 c 256,126,127
 121 146 121 146 118 147.5 c 128,-1,128
 115 149 115 149 112 152 c 0,129,130
 72 189 72 189 51 211.5 c 128,-1,131
 30 234 30 234 30 242 c 0,132,133
 30 245 30 245 31 248 c 128,-1,134
 32 251 32 251 34 254 c 0,135,136
 37 258 37 258 43 265.5 c 128,-1,137
 49 273 49 273 58 284 c 0,138,139
 65 294 65 294 72 303 c 128,-1,140
 79 312 79 312 84 318 c 1,141,142
 78 331 78 331 72.5 343 c 128,-1,143
 67 355 67 355 64 366 c 1,144,-1
 -22 380 l 2,145,146
 -25 380 -25 380 -27.5 381 c 128,-1,147
 -30 382 -30 382 -32 384 c 0,148,149
 -35 387 -35 387 -35.5 390 c 128,-1,150
 -36 393 -36 393 -36 396 c 2,151,-1
 -36 502 l 2,152,153
 -36 505 -36 505 -35.5 507.5 c 128,-1,154
 -35 510 -35 510 -32 512 c 0,155,156
 -31 515 -31 515 -28.5 516.5 c 128,-1,157
 -26 518 -26 518 -24 518 c 2,158,-1
 66 532 l 1,159,160
 69 542 69 542 73.5 553 c 128,-1,161
 78 564 78 564 84 576 c 1,162,163
 74 589 74 589 61.5 605.5 c 128,-1,164
 49 622 49 622 32 642 c 0,165,166
 31 645 31 645 29.5 648 c 128,-1,167
 28 651 28 651 28 654 c 256,168,169
 28 657 28 657 29 659.5 c 128,-1,170
 30 662 30 662 32 664 c 0,171,172
 38 673 38 673 49.5 685.5 c 128,-1,173
 61 698 61 698 78 716 c 0,174,175
 96 732 96 732 107 741 c 128,-1,176
 118 750 118 750 124 750 c 0,177,178
 127 750 127 750 130 749 c 128,-1,179
 133 748 133 748 136 746 c 2,180,-1
 202 694 l 1,181,182
 211 698 211 698 222.5 702.5 c 128,-1,183
 234 707 234 707 246 712 c 1,184,185
 249 743 249 743 252 764.5 c 128,-1,186
 255 786 255 786 258 800 c 0,187,188
 261 807 261 807 265.5 810.5 c 128,-1,189
 270 814 270 814 276 814 c 2,190,-1
 382 814 l 2,191,192
 385 814 385 814 388 813 c 128,-1,193
 391 812 391 812 394 810 c 0,194,195
 397 807 397 807 398.5 805 c 128,-1,196
 400 803 400 803 400 800 c 2,197,-1
 412 712 l 1,198,199
 422 709 422 709 433 704.5 c 128,-1,200
 444 700 444 700 456 694 c 1,201,-1
 522 746 l 2,202,203
 525 747 525 747 528 748.5 c 128,-1,204
 531 750 531 750 534 750 c 256,205,206
 537 750 537 750 540 748.5 c 128,-1,207
 543 747 543 747 546 744 c 0,208,209
 588 707 588 707 608 684.5 c 128,-1,210
 628 662 628 662 628 654 c 0,211,212
 628 651 628 651 627.5 648 c 128,-1,213
 627 645 627 645 624 642 c 0,214,215
 621 638 621 638 615 630.5 c 128,-1,216
 609 623 609 623 600 612 c 0,217,218
 593 600 593 600 586 592 c 128,-1,219
 579 584 579 584 574 578 c 1,220,221
 581 563 581 563 586 552 c 128,-1,222
 591 541 591 541 594 530 c 1,223,-1
 682 518 l 2,224,225
 683 517 683 517 685.5 515.5 c 128,-1,226
 688 514 688 514 690 512 c 0,227,228
 693 509 693 509 693.5 506 c 128,-1,229
 694 503 694 503 694 500 c 2,72,-1
1060 196 m 2,230,-1
 1060 116 l 2,231,232
 1060 112 1060 112 1039 107.5 c 128,-1,233
 1018 103 1018 103 976 98 c 1,234,235
 972 91 972 91 968 83.5 c 128,-1,236
 964 76 964 76 958 68 c 1,237,238
 973 35 973 35 980.5 15.5 c 128,-1,239
 988 -4 988 -4 988 -10 c 0,240,241
 988 -11 988 -11 987 -12.5 c 128,-1,242
 986 -14 986 -14 986 -14 c 1,243,244
 950 -35 950 -35 933 -45.5 c 128,-1,245
 916 -56 916 -56 914 -56 c 0,246,247
 913 -56 913 -56 906 -49 c 128,-1,248
 899 -42 899 -42 888 -28 c 0,249,250
 878 -15 878 -15 870.5 -5.5 c 128,-1,251
 863 4 863 4 858 10 c 1,252,253
 852 10 852 10 848 10 c 128,-1,254
 844 10 844 10 842 10 c 0,255,256
 839 10 839 10 834.5 10 c 128,-1,257
 830 10 830 10 824 10 c 1,258,259
 820 4 820 4 812.5 -5 c 128,-1,260
 805 -14 805 -14 794 -28 c 0,261,262
 784 -41 784 -41 777.5 -48.5 c 128,-1,263
 771 -56 771 -56 768 -56 c 2,264,265
 768 -56 768 -56 750.5 -45.5 c 128,-1,266
 733 -35 733 -35 698 -14 c 0,267,268
 697 -14 697 -14 695.5 -13 c 128,-1,269
 694 -12 694 -12 694 -10 c 0,270,271
 694 -4 694 -4 701.5 15.5 c 128,-1,272
 709 35 709 35 724 68 c 1,273,274
 720 75 720 75 715.5 82.5 c 128,-1,275
 711 90 711 90 706 98 c 1,276,277
 664 102 664 102 643 106.5 c 128,-1,278
 622 111 622 111 622 116 c 2,279,-1
 622 196 l 2,280,281
 622 200 622 200 643 204.5 c 128,-1,282
 664 209 664 209 706 214 c 1,283,284
 710 221 710 221 714.5 228.5 c 128,-1,285
 719 236 719 236 724 242 c 1,286,287
 709 275 709 275 701.5 294.5 c 128,-1,288
 694 314 694 314 694 322 c 0,289,290
 694 323 694 323 695 323.5 c 128,-1,291
 696 324 696 324 698 326 c 2,292,293
 698 326 698 326 703.5 329 c 128,-1,294
 709 332 709 332 718 338 c 0,295,296
 725 342 725 342 733.5 346.5 c 128,-1,297
 742 351 742 351 750 356 c 0,298,299
 759 360 759 360 763.5 363 c 128,-1,300
 768 366 768 366 768 366 c 2,301,302
 771 366 771 366 777 359 c 128,-1,303
 783 352 783 352 794 340 c 0,304,305
 804 327 804 327 811.5 316.5 c 128,-1,306
 819 306 819 306 824 300 c 1,307,308
 830 301 830 301 834.5 301.5 c 128,-1,309
 839 302 839 302 842 302 c 0,310,311
 843 302 843 302 847.5 302 c 128,-1,312
 852 302 852 302 858 300 c 1,313,314
 873 321 873 321 886 336.5 c 128,-1,315
 899 352 899 352 910 364 c 1,316,-1
 914 366 l 2,317,318
 915 366 915 366 933 356 c 128,-1,319
 951 346 951 346 986 326 c 0,320,321
 986 325 986 325 987 324.5 c 128,-1,322
 988 324 988 324 988 322 c 0,323,324
 988 315 988 315 980.5 295 c 128,-1,325
 973 275 973 275 958 242 c 1,326,327
 962 236 962 236 966.5 229 c 128,-1,328
 971 222 971 222 976 214 c 1,329,330
 1018 210 1018 210 1039 205.5 c 128,-1,331
 1060 201 1060 201 1060 196 c 2,230,-1
1060 780 m 2,332,-1
 1060 700 l 2,333,334
 1060 696 1060 696 1039 691.5 c 128,-1,335
 1018 687 1018 687 976 682 c 1,336,337
 972 675 972 675 968 667.5 c 128,-1,338
 964 660 964 660 958 654 c 1,339,340
 973 621 973 621 980.5 601.5 c 128,-1,341
 988 582 988 582 988 574 c 0,342,343
 988 573 988 573 987 572.5 c 128,-1,344
 986 572 986 572 986 570 c 0,345,346
 950 551 950 551 933 540.5 c 128,-1,347
 916 530 916 530 914 530 c 0,348,349
 913 530 913 530 906 536 c 128,-1,350
 899 542 899 542 888 556 c 0,351,352
 878 569 878 569 870.5 579.5 c 128,-1,353
 863 590 863 590 858 596 c 1,354,355
 852 595 852 595 848 594.5 c 128,-1,356
 844 594 844 594 842 594 c 0,357,358
 839 594 839 594 834.5 594 c 128,-1,359
 830 594 830 594 824 596 c 1,360,361
 820 590 820 590 812.5 580 c 128,-1,362
 805 570 805 570 794 556 c 0,363,364
 784 543 784 543 777.5 536.5 c 128,-1,365
 771 530 771 530 768 530 c 2,366,367
 768 530 768 530 750.5 540 c 128,-1,368
 733 550 733 550 698 570 c 0,369,370
 697 571 697 571 695.5 571.5 c 128,-1,371
 694 572 694 572 694 574 c 0,372,373
 694 581 694 581 701.5 601 c 128,-1,374
 709 621 709 621 724 654 c 1,375,376
 720 660 720 660 715.5 667 c 128,-1,377
 711 674 711 674 706 682 c 1,378,379
 664 686 664 686 643 690.5 c 128,-1,380
 622 695 622 695 622 700 c 2,381,-1
 622 780 l 2,382,383
 622 784 622 784 643 788.5 c 128,-1,384
 664 793 664 793 706 798 c 1,385,386
 710 807 710 807 714.5 814.5 c 128,-1,387
 719 822 719 822 724 828 c 1,388,389
 709 861 709 861 701.5 880.5 c 128,-1,390
 694 900 694 900 694 906 c 0,391,392
 694 907 694 907 695 908.5 c 128,-1,393
 696 910 696 910 698 910 c 1,394,395
 698 911 698 911 703.5 914 c 128,-1,396
 709 917 709 917 718 922 c 0,397,398
 725 928 725 928 733.5 932.5 c 128,-1,399
 742 937 742 937 750 942 c 0,400,401
 759 946 759 946 763.5 948 c 128,-1,402
 768 950 768 950 768 950 c 2,403,404
 771 950 771 950 777 944 c 128,-1,405
 783 938 783 938 794 924 c 0,406,407
 804 911 804 911 811.5 901.5 c 128,-1,408
 819 892 819 892 824 886 c 1,409,410
 830 886 830 886 834.5 886 c 128,-1,411
 839 886 839 886 842 886 c 0,412,413
 843 886 843 886 847.5 886 c 128,-1,414
 852 886 852 886 858 886 c 1,415,416
 873 905 873 905 886 921.5 c 128,-1,417
 899 938 899 938 910 950 c 1,418,-1
 914 950 l 2,419,420
 915 950 915 950 933 940.5 c 128,-1,421
 951 931 951 931 986 910 c 1,422,423
 986 910 986 910 987 909 c 128,-1,424
 988 908 988 908 988 906 c 0,425,426
 988 900 988 900 980.5 880.5 c 128,-1,427
 973 861 973 861 958 828 c 1,428,429
 962 822 962 822 966.5 814.5 c 128,-1,430
 971 807 971 807 976 798 c 1,431,432
 1018 794 1018 794 1039 789.5 c 128,-1,433
 1060 785 1060 785 1060 780 c 2,332,-1
EndSplineSet
EndChar

StartChar: F
Encoding: 70 70 41
Width: 1024
Flags: W
LayerCount: 2
Fore
SplineSet
794 216 m 1,0,1
 779 213 779 213 763 211.5 c 128,-1,2
 747 210 747 210 732 210 c 0,3,4
 680 210 680 210 631.5 223 c 128,-1,5
 583 236 583 236 538 262 c 0,6,7
 495 287 495 287 460 322 c 128,-1,8
 425 357 425 357 398 402 c 0,9,10
 373 445 373 445 360.5 493 c 128,-1,11
 348 541 348 541 348 594 c 0,12,13
 348 649 348 649 362.5 700 c 128,-1,14
 377 751 377 751 406 798 c 1,15,16
 349 782 349 782 302.5 749 c 128,-1,17
 256 716 256 716 220 668 c 0,18,19
 183 620 183 620 164.5 565 c 128,-1,20
 146 510 146 510 146 448 c 0,21,22
 146 411 146 411 153.5 376 c 128,-1,23
 161 341 161 341 176 306 c 0,24,25
 189 272 189 272 208.5 243 c 128,-1,26
 228 214 228 214 254 190 c 0,27,28
 278 165 278 165 306.5 145.5 c 128,-1,29
 335 126 335 126 370 112 c 0,30,31
 404 97 404 97 439 89.5 c 128,-1,32
 474 82 474 82 512 82 c 0,33,34
 552 82 552 82 591 91 c 128,-1,35
 630 100 630 100 668 118 c 0,36,37
 705 134 705 134 736.5 159 c 128,-1,38
 768 184 768 184 794 216 c 1,0,1
910 264 m 0,39,40
 883 206 883 206 842.5 159.5 c 128,-1,41
 802 113 802 113 748 78 c 0,42,43
 694 44 694 44 635.5 27 c 128,-1,44
 577 10 577 10 512 10 c 0,45,46
 467 10 467 10 425 18 c 128,-1,47
 383 26 383 26 342 44 c 0,48,49
 302 62 302 62 266.5 85 c 128,-1,50
 231 108 231 108 202 138 c 0,51,52
 172 166 172 166 149 201.5 c 128,-1,53
 126 237 126 237 108 278 c 0,54,55
 90 318 90 318 82 360.5 c 128,-1,56
 74 403 74 403 74 448 c 0,57,58
 74 491 74 491 81.5 533 c 128,-1,59
 89 575 89 575 106 616 c 0,60,61
 122 655 122 655 144.5 689.5 c 128,-1,62
 167 724 167 724 196 754 c 0,63,64
 223 782 223 782 257 806 c 128,-1,65
 291 830 291 830 330 848 c 0,66,67
 369 864 369 864 410.5 874 c 128,-1,68
 452 884 452 884 496 886 c 0,69,70
 508 887 508 887 516.5 881.5 c 128,-1,71
 525 876 525 876 530 864 c 0,72,73
 536 852 536 852 533.5 841.5 c 128,-1,74
 531 831 531 831 522 822 c 0,75,76
 497 801 497 801 478.5 775 c 128,-1,77
 460 749 460 749 446 720 c 0,78,79
 434 690 434 690 427 658.5 c 128,-1,80
 420 627 420 627 420 594 c 0,81,82
 420 552 420 552 430.5 513 c 128,-1,83
 441 474 441 474 462 438 c 256,84,85
 483 402 483 402 511.5 374 c 128,-1,86
 540 346 540 346 576 326 c 0,87,88
 612 305 612 305 651 294.5 c 128,-1,89
 690 284 690 284 732 284 c 0,90,91
 765 284 765 284 797.5 291 c 128,-1,92
 830 298 830 298 862 312 c 0,93,94
 874 318 874 318 884 316 c 128,-1,95
 894 314 894 314 902 306 c 0,96,97
 906 302 906 302 909 297 c 128,-1,98
 912 292 912 292 912 286 c 0,99,100
 913 280 913 280 913 274.5 c 128,-1,101
 913 269 913 269 910 264 c 0,39,40
EndSplineSet
EndChar

StartChar: G
Encoding: 71 71 42
Width: 1024
Flags: W
LayerCount: 2
Fore
SplineSet
842 448 m 256,0,1
 842 481 842 481 835 513.5 c 128,-1,2
 828 546 828 546 816 576 c 0,3,4
 803 606 803 606 785 632.5 c 128,-1,5
 767 659 767 659 744 680 c 0,6,7
 723 702 723 702 696.5 720 c 128,-1,8
 670 738 670 738 640 752 c 0,9,10
 610 764 610 764 577.5 771 c 128,-1,11
 545 778 545 778 512 778 c 256,12,13
 479 778 479 778 446.5 771 c 128,-1,14
 414 764 414 764 384 752 c 0,15,16
 354 739 354 739 327.5 721 c 128,-1,17
 301 703 301 703 280 680 c 0,18,19
 258 659 258 659 240 632.5 c 128,-1,20
 222 606 222 606 208 576 c 0,21,22
 196 546 196 546 189 513.5 c 128,-1,23
 182 481 182 481 182 448 c 256,24,25
 182 415 182 415 189 382.5 c 128,-1,26
 196 350 196 350 208 320 c 0,27,28
 221 290 221 290 239 263.5 c 128,-1,29
 257 237 257 237 280 216 c 0,30,31
 301 194 301 194 327.5 176 c 128,-1,32
 354 158 354 158 384 144 c 0,33,34
 414 132 414 132 446.5 125 c 128,-1,35
 479 118 479 118 512 118 c 256,36,37
 545 118 545 118 577.5 125 c 128,-1,38
 610 132 610 132 640 144 c 0,39,40
 670 157 670 157 696.5 175 c 128,-1,41
 723 193 723 193 744 216 c 0,42,43
 766 237 766 237 784 263.5 c 128,-1,44
 802 290 802 290 816 320 c 0,45,46
 828 350 828 350 835 382.5 c 128,-1,47
 842 415 842 415 842 448 c 256,0,1
998 290 m 0,48,49
 998 286 998 286 995.5 283 c 128,-1,50
 993 280 993 280 988 278 c 2,51,-1
 820 224 l 1,52,-1
 820 48 l 2,53,54
 820 44 820 44 818.5 40.5 c 128,-1,55
 817 37 817 37 814 34 c 0,56,57
 810 31 810 31 805.5 31 c 128,-1,58
 801 31 801 31 796 32 c 2,59,-1
 630 86 l 1,60,-1
 526 -56 l 2,61,62
 525 -60 525 -60 521 -62 c 128,-1,63
 517 -64 517 -64 512 -64 c 0,64,65
 508 -64 508 -64 504 -62.5 c 128,-1,66
 500 -61 500 -61 498 -56 c 2,67,-1
 394 86 l 1,68,-1
 228 32 l 2,69,70
 224 31 224 31 219.5 31 c 128,-1,71
 215 31 215 31 210 34 c 0,72,73
 207 37 207 37 205.5 40 c 128,-1,74
 204 43 204 43 204 48 c 2,75,-1
 204 224 l 1,76,-1
 36 278 l 2,77,78
 32 279 32 279 29 282 c 128,-1,79
 26 285 26 285 26 290 c 0,80,81
 25 294 25 294 25 298.5 c 128,-1,82
 25 303 25 303 28 306 c 2,83,-1
 130 448 l 1,84,-1
 28 590 l 2,85,86
 25 593 25 593 25 597 c 128,-1,87
 25 601 25 601 26 606 c 0,88,89
 26 610 26 610 28.5 613 c 128,-1,90
 31 616 31 616 36 618 c 2,91,-1
 204 672 l 1,92,-1
 204 848 l 2,93,94
 204 852 204 852 205.5 855.5 c 128,-1,95
 207 859 207 859 210 862 c 0,96,97
 214 865 214 865 218.5 865 c 128,-1,98
 223 865 223 865 228 864 c 2,99,-1
 394 810 l 1,100,-1
 498 952 l 2,101,102
 499 956 499 956 503 958 c 128,-1,103
 507 960 507 960 512 960 c 0,104,105
 516 960 516 960 520 958.5 c 128,-1,106
 524 957 524 957 526 952 c 2,107,-1
 630 810 l 1,108,-1
 796 864 l 2,109,110
 800 865 800 865 804.5 865 c 128,-1,111
 809 865 809 865 814 862 c 0,112,113
 817 859 817 859 818.5 856 c 128,-1,114
 820 853 820 853 820 848 c 2,115,-1
 820 672 l 1,116,-1
 988 618 l 2,117,118
 992 617 992 617 995 614 c 128,-1,119
 998 611 998 611 998 606 c 0,120,121
 999 602 999 602 999 597.5 c 128,-1,122
 999 593 999 593 996 590 c 2,123,-1
 894 448 l 1,124,-1
 996 306 l 2,125,126
 999 303 999 303 999 299 c 128,-1,127
 999 295 999 295 998 290 c 0,48,49
EndSplineSet
EndChar

StartChar: H
Encoding: 72 72 43
Width: 1024
Flags: W
LayerCount: 2
Fore
SplineSet
804 192 m 2,0,-1
 804 704 l 2,1,2
 804 711 804 711 801.5 717.5 c 128,-1,3
 799 724 799 724 794 730 c 0,4,5
 788 734 788 734 782 737 c 128,-1,6
 776 740 776 740 768 740 c 2,7,-1
 694 740 l 2,8,9
 687 740 687 740 681 737.5 c 128,-1,10
 675 735 675 735 670 730 c 0,11,12
 664 724 664 724 661 718 c 128,-1,13
 658 712 658 712 658 704 c 2,14,-1
 658 522 l 1,15,-1
 366 522 l 1,16,-1
 366 704 l 2,17,18
 366 711 366 711 363 717.5 c 128,-1,19
 360 724 360 724 354 730 c 0,20,21
 350 734 350 734 344 737 c 128,-1,22
 338 740 338 740 330 740 c 2,23,-1
 256 740 l 2,24,25
 249 740 249 740 242.5 737.5 c 128,-1,26
 236 735 236 735 230 730 c 0,27,28
 226 724 226 724 223 718 c 128,-1,29
 220 712 220 712 220 704 c 2,30,-1
 220 192 l 2,31,32
 220 185 220 185 222.5 178.5 c 128,-1,33
 225 172 225 172 230 166 c 0,34,35
 236 162 236 162 242 159 c 128,-1,36
 248 156 248 156 256 156 c 2,37,-1
 330 156 l 2,38,39
 337 156 337 156 343 158.5 c 128,-1,40
 349 161 349 161 354 166 c 0,41,42
 360 172 360 172 363 178 c 128,-1,43
 366 184 366 184 366 192 c 2,44,-1
 366 374 l 1,45,-1
 658 374 l 1,46,-1
 658 192 l 2,47,48
 658 185 658 185 661 178.5 c 128,-1,49
 664 172 664 172 670 166 c 0,50,51
 674 162 674 162 680 159 c 128,-1,52
 686 156 686 156 694 156 c 2,53,-1
 768 156 l 2,54,55
 775 156 775 156 781.5 158.5 c 128,-1,56
 788 161 788 161 794 166 c 0,57,58
 798 172 798 172 801 178 c 128,-1,59
 804 184 804 184 804 192 c 2,0,-1
950 722 m 2,60,-1
 950 174 l 2,61,62
 950 140 950 140 938 111 c 128,-1,63
 926 82 926 82 902 58 c 256,64,65
 878 34 878 34 849.5 22 c 128,-1,66
 821 10 821 10 786 10 c 2,67,-1
 238 10 l 2,68,69
 204 10 204 10 175 22 c 128,-1,70
 146 34 146 34 122 58 c 256,71,72
 98 82 98 82 86 110.5 c 128,-1,73
 74 139 74 139 74 174 c 2,74,-1
 74 722 l 2,75,76
 74 756 74 756 86 785 c 128,-1,77
 98 814 98 814 122 838 c 256,78,79
 146 862 146 862 174.5 874 c 128,-1,80
 203 886 203 886 238 886 c 2,81,-1
 786 886 l 2,82,83
 820 886 820 886 849 874 c 128,-1,84
 878 862 878 862 902 838 c 256,85,86
 926 814 926 814 938 785.5 c 128,-1,87
 950 757 950 757 950 722 c 2,60,-1
EndSplineSet
EndChar

StartChar: I
Encoding: 73 73 44
Width: 1024
Flags: W
LayerCount: 2
Fore
SplineSet
950 448 m 256,0,1
 950 388 950 388 936 333 c 128,-1,2
 922 278 922 278 892 228 c 0,3,4
 862 177 862 177 822.5 137.5 c 128,-1,5
 783 98 783 98 732 68 c 0,6,7
 683 38 683 38 627.5 24 c 128,-1,8
 572 10 572 10 512 10 c 256,9,10
 452 10 452 10 397 24 c 128,-1,11
 342 38 342 38 292 68 c 0,12,13
 241 98 241 98 201.5 137.5 c 128,-1,14
 162 177 162 177 132 228 c 0,15,16
 102 277 102 277 88 332.5 c 128,-1,17
 74 388 74 388 74 448 c 256,18,19
 74 508 74 508 88 563 c 128,-1,20
 102 618 102 618 132 668 c 0,21,22
 162 719 162 719 201.5 758.5 c 128,-1,23
 241 798 241 798 292 828 c 0,24,25
 341 858 341 858 396.5 872 c 128,-1,26
 452 886 452 886 512 886 c 256,27,28
 572 886 572 886 627 872 c 128,-1,29
 682 858 682 858 732 828 c 0,30,31
 783 798 783 798 822.5 758.5 c 128,-1,32
 862 719 862 719 892 668 c 0,33,34
 922 619 922 619 936 563.5 c 128,-1,35
 950 508 950 508 950 448 c 256,0,1
EndSplineSet
EndChar

StartChar: J
Encoding: 74 74 45
Width: 1024
Flags: W
LayerCount: 2
Fore
SplineSet
512 758 m 256,0,1
 470 758 470 758 431 748 c 128,-1,2
 392 738 392 738 356 718 c 0,3,4
 320 697 320 697 291.5 668.5 c 128,-1,5
 263 640 263 640 242 604 c 0,6,7
 223 568 223 568 212.5 529 c 128,-1,8
 202 490 202 490 202 448 c 256,9,10
 202 406 202 406 212 367 c 128,-1,11
 222 328 222 328 242 292 c 0,12,13
 263 256 263 256 291.5 227.5 c 128,-1,14
 320 199 320 199 356 178 c 0,15,16
 392 159 392 159 431 148.5 c 128,-1,17
 470 138 470 138 512 138 c 256,18,19
 554 138 554 138 593 148 c 128,-1,20
 632 158 632 158 668 178 c 0,21,22
 704 199 704 199 732.5 227.5 c 128,-1,23
 761 256 761 256 782 292 c 0,24,25
 801 328 801 328 811.5 367 c 128,-1,26
 822 406 822 406 822 448 c 256,27,28
 822 490 822 490 812 529 c 128,-1,29
 802 568 802 568 782 604 c 0,30,31
 761 640 761 640 732.5 668.5 c 128,-1,32
 704 697 704 697 668 718 c 0,33,34
 632 737 632 737 593 747.5 c 128,-1,35
 554 758 554 758 512 758 c 256,0,1
950 448 m 256,36,37
 950 388 950 388 936 333 c 128,-1,38
 922 278 922 278 892 228 c 0,39,40
 862 177 862 177 822.5 137.5 c 128,-1,41
 783 98 783 98 732 68 c 0,42,43
 683 38 683 38 627.5 24 c 128,-1,44
 572 10 572 10 512 10 c 256,45,46
 452 10 452 10 397 24 c 128,-1,47
 342 38 342 38 292 68 c 0,48,49
 241 98 241 98 201.5 137.5 c 128,-1,50
 162 177 162 177 132 228 c 0,51,52
 102 277 102 277 88 332.5 c 128,-1,53
 74 388 74 388 74 448 c 256,54,55
 74 508 74 508 88 563 c 128,-1,56
 102 618 102 618 132 668 c 0,57,58
 162 719 162 719 201.5 758.5 c 128,-1,59
 241 798 241 798 292 828 c 0,60,61
 341 858 341 858 396.5 872 c 128,-1,62
 452 886 452 886 512 886 c 256,63,64
 572 886 572 886 627 872 c 128,-1,65
 682 858 682 858 732 828 c 0,66,67
 783 798 783 798 822.5 758.5 c 128,-1,68
 862 719 862 719 892 668 c 0,69,70
 922 619 922 619 936 563.5 c 128,-1,71
 950 508 950 508 950 448 c 256,36,37
EndSplineSet
EndChar

StartChar: K
Encoding: 75 75 46
Width: 1024
Flags: W
LayerCount: 2
Fore
SplineSet
512 924 m 1,0,-1
 190 812 l 1,1,-1
 102 -28 l 1,2,-1
 922 -28 l 1,3,-1
 834 812 l 1,4,-1
 512 924 l 1,0,-1
284 618 m 1,5,-1
 742 618 l 1,6,-1
 742 570 l 1,7,-1
 538 570 l 1,8,-1
 538 432 l 1,9,-1
 714 432 l 1,10,-1
 714 390 l 1,11,-1
 538 390 l 1,12,-1
 538 236 l 1,13,-1
 774 236 l 1,14,-1
 774 188 l 1,15,-1
 250 188 l 1,16,-1
 250 236 l 1,17,-1
 482 236 l 1,18,-1
 482 390 l 1,19,-1
 308 390 l 1,20,-1
 308 432 l 1,21,-1
 482 432 l 1,22,-1
 482 570 l 1,23,-1
 284 570 l 1,24,-1
 284 618 l 1,5,-1
EndSplineSet
EndChar

StartChar: L
Encoding: 76 76 47
Width: 1024
Flags: W
LayerCount: 2
Fore
SplineSet
838 272 m 0,0,1
 838 215 838 215 814.5 167.5 c 128,-1,2
 791 120 791 120 744 84 c 0,3,4
 696 48 696 48 631.5 29 c 128,-1,5
 567 10 567 10 486 10 c 0,6,7
 440 10 440 10 397.5 15.5 c 128,-1,8
 355 21 355 21 316 32 c 0,9,10
 277 44 277 44 244.5 56 c 128,-1,11
 212 68 212 68 186 82 c 1,12,-1
 186 238 l 1,13,-1
 194 238 l 1,14,15
 227 214 227 214 264 193.5 c 128,-1,16
 301 173 301 173 342 158 c 0,17,18
 382 145 382 145 421 137.5 c 128,-1,19
 460 130 460 130 498 130 c 0,20,21
 544 130 544 130 580 137.5 c 128,-1,22
 616 145 616 145 642 160 c 0,23,24
 669 175 669 175 681.5 198 c 128,-1,25
 694 221 694 221 694 254 c 0,26,27
 694 278 694 278 687.5 297 c 128,-1,28
 681 316 681 316 666 328 c 0,29,30
 653 341 653 341 625 352 c 128,-1,31
 597 363 597 363 558 372 c 0,32,33
 543 375 543 375 523.5 379 c 128,-1,34
 504 383 504 383 478 388 c 0,35,36
 454 392 454 392 433 396.5 c 128,-1,37
 412 401 412 401 392 406 c 0,38,39
 337 421 337 421 298 442 c 128,-1,40
 259 463 259 463 236 492 c 0,41,42
 212 520 212 520 201 554.5 c 128,-1,43
 190 589 190 589 190 630 c 0,44,45
 190 655 190 655 194.5 680 c 128,-1,46
 199 705 199 705 210 728 c 0,47,48
 222 750 222 750 237.5 771 c 128,-1,49
 253 792 253 792 276 810 c 0,50,51
 297 826 297 826 323 839.5 c 128,-1,52
 349 853 349 853 382 864 c 0,53,54
 415 874 415 874 451 880 c 128,-1,55
 487 886 487 886 526 886 c 0,56,57
 563 886 563 886 601 880.5 c 128,-1,58
 639 875 639 875 678 866 c 0,59,60
 715 857 715 857 747.5 846.5 c 128,-1,61
 780 836 780 836 806 822 c 1,62,-1
 806 672 l 1,63,-1
 798 672 l 1,64,65
 771 691 771 691 738 707.5 c 128,-1,66
 705 724 705 724 666 738 c 0,67,68
 629 753 629 753 591.5 759.5 c 128,-1,69
 554 766 554 766 516 766 c 0,70,71
 477 766 477 766 445 758.5 c 128,-1,72
 413 751 413 751 386 736 c 0,73,74
 359 723 359 723 346.5 701 c 128,-1,75
 334 679 334 679 334 650 c 0,76,77
 334 623 334 623 341.5 603.5 c 128,-1,78
 349 584 349 584 366 572 c 0,79,80
 381 559 381 559 406 548.5 c 128,-1,81
 431 538 431 538 466 530 c 0,82,83
 485 526 485 526 507.5 521.5 c 128,-1,84
 530 517 530 517 554 512 c 0,85,86
 578 508 578 508 597.5 503.5 c 128,-1,87
 617 499 617 499 634 494 c 0,88,89
 683 484 683 484 720.5 464.5 c 128,-1,90
 758 445 758 445 784 418 c 0,91,92
 811 390 811 390 824.5 353.5 c 128,-1,93
 838 317 838 317 838 272 c 0,0,1
EndSplineSet
EndChar

StartChar: M
Encoding: 77 77 48
Width: 1024
Flags: W
LayerCount: 2
Fore
SplineSet
224 898 m 1,0,1
 221 856 221 856 227 816.5 c 128,-1,2
 233 777 233 777 248 736 c 1,3,4
 244 732 244 732 239.5 728.5 c 128,-1,5
 235 725 235 725 232 720 c 0,6,7
 231 717 231 717 228.5 715.5 c 128,-1,8
 226 714 226 714 224 712 c 0,9,10
 223 711 223 711 221 708 c 128,-1,11
 219 705 219 705 216 702 c 0,12,13
 213 698 213 698 211.5 695 c 128,-1,14
 210 692 210 692 208 690 c 0,15,16
 207 687 207 687 205 683.5 c 128,-1,17
 203 680 203 680 198 674 c 0,18,19
 194 667 194 667 190.5 659 c 128,-1,20
 187 651 187 651 184 642 c 0,21,22
 183 630 183 630 182.5 619.5 c 128,-1,23
 182 609 182 609 182 600 c 0,24,25
 179 578 179 578 162 545 c 128,-1,26
 145 512 145 512 112 470 c 0,27,28
 84 433 84 433 70 404 c 128,-1,29
 56 375 56 375 56 352 c 0,30,31
 56 336 56 336 57.5 321 c 128,-1,32
 59 306 59 306 64 292 c 0,33,34
 68 279 68 279 77 265.5 c 128,-1,35
 86 252 86 252 100 238 c 0,36,37
 106 232 106 232 117.5 226 c 128,-1,38
 129 220 129 220 144 214 c 0,39,40
 153 213 153 213 162.5 214 c 128,-1,41
 172 215 172 215 184 220 c 1,42,43
 191 204 191 204 203 197 c 128,-1,44
 215 190 215 190 230 190 c 0,45,46
 239 190 239 190 246.5 193 c 128,-1,47
 254 196 254 196 260 202 c 0,48,49
 263 205 263 205 267.5 212 c 128,-1,50
 272 219 272 219 278 230 c 0,51,52
 288 248 288 248 294 259 c 128,-1,53
 300 270 300 270 302 272 c 0,54,55
 327 311 327 311 368 340.5 c 128,-1,56
 409 370 409 370 466 390 c 0,57,58
 478 394 478 394 488.5 401 c 128,-1,59
 499 408 499 408 510 416 c 1,60,61
 510 401 510 401 507 384.5 c 128,-1,62
 504 368 504 368 498 348 c 0,63,64
 491 330 491 330 481.5 314 c 128,-1,65
 472 298 472 298 460 286 c 0,66,67
 439 265 439 265 421 246 c 128,-1,68
 403 227 403 227 386 210 c 0,69,70
 370 194 370 194 360.5 181.5 c 128,-1,71
 351 169 351 169 346 160 c 0,72,73
 337 144 337 144 330 129 c 128,-1,74
 323 114 323 114 318 102 c 0,75,76
 315 92 315 92 312.5 83 c 128,-1,77
 310 74 310 74 308 66 c 0,78,79
 307 59 307 59 306.5 48.5 c 128,-1,80
 306 38 306 38 306 24 c 0,81,82
 306 11 306 11 306.5 4.5 c 128,-1,83
 307 -2 307 -2 310 -2 c 2,84,-1
 968 -2 l 1,85,-1
 968 114 l 2,86,87
 968 150 968 150 966.5 189 c 128,-1,88
 965 228 965 228 962 270 c 256,89,90
 959 312 959 312 953 352.5 c 128,-1,91
 947 393 947 393 936 432 c 0,92,93
 926 465 926 465 913.5 495.5 c 128,-1,94
 901 526 901 526 886 556 c 0,95,96
 870 586 870 586 853 610.5 c 128,-1,97
 836 635 836 635 818 656 c 0,98,99
 794 686 794 686 763 710 c 128,-1,100
 732 734 732 734 696 754 c 0,101,102
 660 773 660 773 621 784 c 128,-1,103
 582 795 582 795 540 798 c 1,104,-1
 540 798 l 1,105,106
 528 822 528 822 511.5 841.5 c 128,-1,107
 495 861 495 861 472 876 c 1,108,109
 447 858 447 858 430 833 c 128,-1,110
 413 808 413 808 404 778 c 1,111,112
 368 818 368 818 323 848 c 128,-1,113
 278 878 278 878 224 898 c 1,0,1
556 760 m 1,114,115
 628 745 628 745 692 708.5 c 128,-1,116
 756 672 756 672 798 610 c 0,117,118
 829 565 829 565 850.5 514 c 128,-1,119
 872 463 872 463 886 410 c 0,120,121
 896 374 896 374 901 338 c 128,-1,122
 906 302 906 302 906 266 c 0,123,124
 906 217 906 217 906 166.5 c 128,-1,125
 906 116 906 116 904 66 c 0,126,127
 904 51 904 51 903.5 43.5 c 128,-1,128
 903 36 903 36 904 36 c 2,129,-1
 828 36 l 1,130,131
 825 82 825 82 826 128 c 0,132,133
 826 173 826 173 826 219 c 128,-1,134
 826 265 826 265 824 312 c 0,135,136
 821 360 821 360 810 410 c 0,137,138
 798 485 798 485 760.5 555 c 128,-1,139
 723 625 723 625 654 666 c 0,140,141
 632 679 632 679 607.5 690 c 128,-1,142
 583 701 583 701 556 710 c 1,143,144
 556 722 556 722 556.5 735 c 128,-1,145
 557 748 557 748 556 760 c 1,114,115
402 756 m 1,146,147
 401 746 401 746 401 735.5 c 128,-1,148
 401 725 401 725 402 714 c 1,149,150
 396 713 396 713 390.5 711 c 128,-1,151
 385 709 385 709 380 706 c 0,152,153
 376 705 376 705 371 702 c 128,-1,154
 366 699 366 699 360 696 c 0,155,156
 351 690 351 690 345 691.5 c 128,-1,157
 339 693 339 693 334 702 c 0,158,159
 330 709 330 709 332 715 c 128,-1,160
 334 721 334 721 342 726 c 0,161,162
 357 738 357 738 372 745.5 c 128,-1,163
 387 753 387 753 402 756 c 1,146,147
320 658 m 0,164,165
 326 658 326 658 330 655 c 128,-1,166
 334 652 334 652 336 646 c 0,167,168
 339 637 339 637 337 631 c 128,-1,169
 335 625 335 625 326 622 c 2,170,171
 326 622 326 622 323 620.5 c 128,-1,172
 320 619 320 619 314 616 c 1,173,-1
 314 616 l 1,174,175
 318 612 318 612 319 606 c 128,-1,176
 320 600 320 600 320 594 c 0,177,178
 317 578 317 578 308 570.5 c 128,-1,179
 299 563 299 563 282 566 c 0,180,181
 278 566 278 566 273.5 567.5 c 128,-1,182
 269 569 269 569 266 572 c 1,183,184
 265 571 265 571 263.5 568 c 128,-1,185
 262 565 262 565 260 560 c 0,186,187
 257 551 257 551 251.5 548 c 128,-1,188
 246 545 246 545 238 548 c 0,189,190
 229 551 229 551 226 557 c 128,-1,191
 223 563 223 563 224 572 c 0,192,193
 236 603 236 603 258 624 c 128,-1,194
 280 645 280 645 312 656 c 0,195,196
 313 657 313 657 315.5 657.5 c 128,-1,197
 318 658 318 658 320 658 c 0,164,165
558 580 m 0,198,199
 567 580 567 580 571.5 576 c 128,-1,200
 576 572 576 572 578 564 c 0,201,202
 578 533 578 533 569 505.5 c 128,-1,203
 560 478 560 478 542 454 c 0,204,205
 538 445 538 445 531 443 c 128,-1,206
 524 441 524 441 516 444 c 0,207,208
 507 448 507 448 504.5 454 c 128,-1,209
 502 460 502 460 506 468 c 0,210,211
 513 475 513 475 519.5 487 c 128,-1,212
 526 499 526 499 532 514 c 0,213,214
 536 523 536 523 537.5 535.5 c 128,-1,215
 539 548 539 548 538 562 c 0,216,217
 537 571 537 571 541.5 575.5 c 128,-1,218
 546 580 546 580 558 580 c 0,198,199
170 382 m 0,219,220
 173 382 173 382 176 380.5 c 128,-1,221
 179 379 179 379 182 376 c 0,222,223
 189 369 189 369 188.5 362.5 c 128,-1,224
 188 356 188 356 180 350 c 1,225,226
 180 350 180 350 180 350 c 129,-1,227
 180 350 180 350 180 350 c 1,228,229
 173 346 173 346 167.5 340 c 128,-1,230
 162 334 162 334 160 326 c 0,231,232
 160 316 160 316 155.5 311 c 128,-1,233
 151 306 151 306 140 306 c 0,234,235
 131 305 131 305 125.5 309 c 128,-1,236
 120 313 120 313 120 322 c 0,237,238
 121 340 121 340 129 353.5 c 128,-1,239
 137 367 137 367 154 378 c 0,240,241
 158 381 158 381 161.5 381.5 c 128,-1,242
 165 382 165 382 170 382 c 0,219,220
226 312 m 0,243,244
 233 312 233 312 237.5 308 c 128,-1,245
 242 304 242 304 242 296 c 0,246,247
 242 295 242 295 239.5 288 c 128,-1,248
 237 281 237 281 232 270 c 0,249,250
 231 266 231 266 229.5 261.5 c 128,-1,251
 228 257 228 257 226 254 c 1,252,253
 226 254 226 254 226 254 c 129,-1,254
 226 254 226 254 226 254 c 1,255,256
 222 247 222 247 214.5 245.5 c 128,-1,257
 207 244 207 244 198 248 c 256,258,259
 189 252 189 252 188.5 259 c 128,-1,260
 188 266 188 266 194 274 c 0,261,262
 197 275 197 275 198.5 276.5 c 128,-1,263
 200 278 200 278 202 280 c 0,264,265
 208 295 208 295 214.5 303.5 c 128,-1,266
 221 312 221 312 226 312 c 0,243,244
EndSplineSet
EndChar

StartChar: N
Encoding: 78 78 49
Width: 1024
Flags: W
LayerCount: 2
Fore
SplineSet
212 590 m 1,0,-1
 212 -10 l 1,1,-1
 812 -10 l 1,2,-1
 812 590 l 1,3,-1
 212 590 l 1,0,-1
628 504 m 0,4,5
 653 504 653 504 672.5 485.5 c 128,-1,6
 692 467 692 467 692 440 c 256,7,8
 692 413 692 413 673 393.5 c 128,-1,9
 654 374 654 374 628 374 c 0,10,11
 601 374 601 374 582.5 393.5 c 128,-1,12
 564 413 564 413 564 440 c 256,13,14
 564 467 564 467 582.5 485.5 c 128,-1,15
 601 504 601 504 628 504 c 0,4,5
416 450 m 0,16,17
 441 450 441 450 460.5 430.5 c 128,-1,18
 480 411 480 411 480 384 c 0,19,20
 480 359 480 359 461 339.5 c 128,-1,21
 442 320 442 320 416 320 c 0,22,23
 389 320 389 320 370.5 339 c 128,-1,24
 352 358 352 358 352 384 c 0,25,26
 352 411 352 411 370.5 430.5 c 128,-1,27
 389 450 389 450 416 450 c 0,16,17
750 232 m 1,28,-1
 716 174 l 2,29,30
 704 150 704 150 680 123 c 128,-1,31
 656 96 656 96 588 124 c 2,32,-1
 510 158 l 2,33,34
 408 200 408 200 407 140 c 128,-1,35
 406 80 406 80 286 162 c 1,36,37
 286 162 286 162 318 155.5 c 128,-1,38
 350 149 350 149 370 150 c 0,39,40
 397 151 397 151 412.5 175.5 c 128,-1,41
 428 200 428 200 454 202 c 0,42,43
 503 208 503 208 547.5 165.5 c 128,-1,44
 592 123 592 123 640 132 c 0,45,46
 676 138 676 138 713 185 c 128,-1,47
 750 232 750 232 750 232 c 1,28,-1
90 586 m 1,48,-1
 506 912 l 1,49,-1
 946 586 l 1,50,-1
 90 586 l 1,48,-1
EndSplineSet
EndChar

StartChar: O
Encoding: 79 79 50
Width: 1024
Flags: W
LayerCount: 2
Fore
SplineSet
514 896 m 1,0,-1
 420 828 l 1,1,2
 429 821 429 821 436.5 813.5 c 128,-1,3
 444 806 444 806 452 800 c 0,4,5
 461 793 461 793 465 785 c 128,-1,6
 469 777 469 777 460 766 c 1,7,8
 459 753 459 753 447.5 747 c 128,-1,9
 436 741 436 741 424 738 c 0,10,11
 391 728 391 728 358.5 713.5 c 128,-1,12
 326 699 326 699 294 682 c 0,13,14
 269 672 269 672 249 653 c 128,-1,15
 229 634 229 634 206 616 c 0,16,17
 197 604 197 604 188.5 591.5 c 128,-1,18
 180 579 180 579 172 564 c 0,19,20
 166 546 166 546 159 529 c 128,-1,21
 152 512 152 512 152 492 c 0,22,23
 152 467 152 467 161 442.5 c 128,-1,24
 170 418 170 418 178 394 c 0,25,26
 185 373 185 373 199.5 354.5 c 128,-1,27
 214 336 214 336 226 316 c 0,28,29
 253 279 253 279 285 246 c 128,-1,30
 317 213 317 213 350 180 c 0,31,32
 372 162 372 162 396.5 146.5 c 128,-1,33
 421 131 421 131 444 114 c 1,34,35
 393 114 393 114 341 113 c 128,-1,36
 289 112 289 112 238 110 c 1,37,38
 238 83 238 83 237 55 c 128,-1,39
 236 27 236 27 236 -2 c 1,40,-1
 792 -2 l 1,41,-1
 794 108 l 1,42,43
 742 109 742 109 689.5 109.5 c 128,-1,44
 637 110 637 110 584 112 c 1,45,46
 596 121 596 121 607 130 c 128,-1,47
 618 139 618 139 630 148 c 0,48,49
 654 167 654 167 679.5 185 c 128,-1,50
 705 203 705 203 726 226 c 0,51,52
 747 250 747 250 769 272.5 c 128,-1,53
 791 295 791 295 808 322 c 0,54,55
 823 341 823 341 834 363 c 128,-1,56
 845 385 845 385 854 408 c 0,57,58
 864 429 864 429 868 451.5 c 128,-1,59
 872 474 872 474 872 498 c 0,60,61
 871 519 871 519 866.5 539 c 128,-1,62
 862 559 862 559 850 576 c 1,63,64
 843 595 843 595 829.5 608.5 c 128,-1,65
 816 622 816 622 802 636 c 0,66,67
 790 649 790 649 775.5 658.5 c 128,-1,68
 761 668 761 668 746 676 c 0,69,70
 707 700 707 700 665 716 c 128,-1,71
 623 732 623 732 582 750 c 0,72,73
 573 756 573 756 570.5 766.5 c 128,-1,74
 568 777 568 777 562 786 c 1,75,-1
 608 824 l 1,76,77
 586 842 586 842 562 860 c 128,-1,78
 538 878 538 878 514 896 c 1,0,-1
646 620 m 1,79,-1
 646 620 l 1,80,-1
 646 614 l 1,81,82
 653 559 653 559 657.5 503.5 c 128,-1,83
 662 448 662 448 662 392 c 2,84,-1
 662 390 l 1,85,86
 662 390 662 390 655.5 376.5 c 128,-1,87
 649 363 649 363 634 342 c 0,88,89
 618 320 618 320 591.5 294 c 128,-1,90
 565 268 565 268 524 242 c 0,91,92
 524 241 524 241 524 240.5 c 128,-1,93
 524 240 524 240 524 240 c 2,94,95
 523 240 523 240 522.5 240 c 128,-1,96
 522 240 522 240 522 240 c 2,97,98
 521 239 521 239 520.5 239.5 c 128,-1,99
 520 240 520 240 518 240 c 2,100,101
 518 240 518 240 518 239 c 128,-1,102
 518 238 518 238 518 238 c 2,103,104
 517 238 517 238 516.5 238 c 128,-1,105
 516 238 516 238 516 240 c 1,106,107
 516 240 516 240 516 240 c 129,-1,108
 516 240 516 240 514 240 c 1,109,110
 514 240 514 240 514 240 c 129,-1,111
 514 240 514 240 514 240 c 257,112,113
 514 240 514 240 514 240 c 129,-1,114
 514 240 514 240 514 240 c 257,115,116
 514 240 514 240 514 240 c 129,-1,117
 514 240 514 240 514 240 c 1,118,119
 474 267 474 267 447.5 293 c 128,-1,120
 421 319 421 319 404 340 c 0,121,122
 389 361 389 361 382.5 375.5 c 128,-1,123
 376 390 376 390 376 390 c 1,124,-1
 376 390 l 1,125,-1
 376 390 l 1,126,127
 376 447 376 447 380 502.5 c 128,-1,128
 384 558 384 558 392 614 c 1,129,-1
 392 620 l 1,130,-1
 398 618 l 2,131,132
 423 612 423 612 454.5 607 c 128,-1,133
 486 602 486 602 516 602 c 0,134,135
 547 602 547 602 577 606.5 c 128,-1,136
 607 611 607 611 640 620 c 1,137,-1
 646 620 l 1,79,-1
EndSplineSet
EndChar

StartChar: P
Encoding: 80 80 51
Width: 1024
Flags: W
LayerCount: 2
Fore
SplineSet
472 910 m 1,0,1
 447 895 447 895 434.5 871.5 c 128,-1,2
 422 848 422 848 422 848 c 1,3,-1
 380 848 l 1,4,5
 380 848 380 848 357.5 881.5 c 128,-1,6
 335 915 335 915 318 900 c 1,7,8
 318 885 318 885 318 869 c 128,-1,9
 318 853 318 853 330 838 c 1,10,11
 327 814 327 814 307.5 790 c 128,-1,12
 288 766 288 766 288 766 c 257,13,14
 288 766 288 766 269 733 c 0,15,16
 250 701 250 701 227 659 c 128,-1,17
 204 617 204 617 185 576 c 0,18,19
 166 536 166 536 166 520 c 0,20,21
 166 444 166 444 198.5 441 c 128,-1,22
 231 438 231 438 248 438 c 1,23,24
 266 450 266 450 259.5 465 c 128,-1,25
 253 480 253 480 268 480 c 0,26,27
 289 480 289 480 270.5 456.5 c 128,-1,28
 252 433 252 433 268 418 c 1,29,30
 301 412 301 412 312 440 c 128,-1,31
 323 468 323 468 370 500 c 0,32,33
 397 518 397 518 441 553 c 128,-1,34
 485 588 485 588 512 626 c 1,35,36
 526 517 526 517 502 470 c 0,37,38
 479 422 479 422 444.5 394.5 c 128,-1,39
 410 367 410 367 379 340 c 0,40,41
 348 312 348 312 348 244 c 1,42,-1
 308 244 l 1,43,-1
 306 184 l 1,44,-1
 242 120 l 1,45,-1
 242 -14 l 1,46,-1
 350 -14 l 1,47,-1
 350 40 l 1,48,-1
 484 40 l 1,49,-1
 484 -14 l 1,50,-1
 618 -14 l 1,51,-1
 618 40 l 1,52,-1
 752 40 l 1,53,-1
 752 -14 l 1,54,-1
 858 -14 l 1,55,-1
 858 120 l 1,56,-1
 798 182 l 1,57,-1
 798 244 l 1,58,-1
 820 244 l 1,59,60
 824 405 824 405 803 515 c 256,61,62
 782 625 782 625 740 694 c 128,-1,63
 698 763 698 763 635 796 c 0,64,65
 572 830 572 830 492 838 c 1,66,67
 492 838 492 838 490.5 874 c 128,-1,68
 489 910 489 910 472 910 c 1,0,1
368 764 m 1,69,70
 372 758 372 758 372.5 750 c 128,-1,71
 373 742 373 742 370 736 c 0,72,73
 366 729 366 729 359 724.5 c 128,-1,74
 352 720 352 720 344 720 c 0,75,76
 337 719 337 719 330 722.5 c 128,-1,77
 323 726 323 726 318 732 c 1,78,-1
 344 748 l 1,79,-1
 368 764 l 1,69,70
EndSplineSet
EndChar

StartChar: Q
Encoding: 81 81 52
Width: 1024
Flags: W
LayerCount: 2
Fore
SplineSet
516 940 m 1,0,-1
 408 866 l 1,1,2
 417 857 417 857 425.5 849.5 c 128,-1,3
 434 842 434 842 442 834 c 0,4,5
 454 827 454 827 458.5 817.5 c 128,-1,6
 463 808 463 808 454 796 c 1,7,8
 451 781 451 781 438.5 775 c 128,-1,9
 426 769 426 769 412 766 c 0,10,11
 375 754 375 754 337.5 738 c 128,-1,12
 300 722 300 722 264 704 c 1,13,14
 234 694 234 694 211 673 c 128,-1,15
 188 652 188 652 164 634 c 1,16,17
 154 621 154 621 143 606 c 128,-1,18
 132 591 132 591 124 576 c 0,19,20
 118 557 118 557 109.5 537 c 128,-1,21
 101 517 101 517 102 496 c 0,22,23
 101 468 101 468 111.5 442 c 128,-1,24
 122 416 122 416 130 390 c 0,25,26
 140 366 140 366 156 345.5 c 128,-1,27
 172 325 172 325 184 304 c 0,28,29
 215 262 215 262 252.5 226 c 128,-1,30
 290 190 290 190 328 154 c 0,31,32
 352 133 352 133 380.5 116.5 c 128,-1,33
 409 100 409 100 436 82 c 1,34,35
 376 81 376 81 317.5 79.5 c 128,-1,36
 259 78 259 78 200 78 c 1,37,38
 199 47 199 47 198.5 16.5 c 128,-1,39
 198 -14 198 -14 198 -46 c 1,40,-1
 832 -46 l 1,41,-1
 834 74 l 1,42,43
 774 75 774 75 714 76.5 c 128,-1,44
 654 78 654 78 594 80 c 1,45,46
 607 89 607 89 619.5 99 c 128,-1,47
 632 109 632 109 646 118 c 0,48,49
 673 139 673 139 702.5 158.5 c 128,-1,50
 732 178 732 178 756 204 c 0,51,52
 780 231 780 231 806 255.5 c 128,-1,53
 832 280 832 280 850 310 c 0,54,55
 866 331 866 331 878.5 355.5 c 128,-1,56
 891 380 891 380 902 404 c 0,57,58
 914 426 914 426 918.5 451 c 128,-1,59
 923 476 923 476 922 502 c 0,60,61
 921 524 921 524 916.5 547 c 128,-1,62
 912 570 912 570 898 590 c 0,63,64
 889 609 889 609 874 624 c 128,-1,65
 859 639 859 639 842 654 c 0,66,67
 829 669 829 669 812.5 680 c 128,-1,68
 796 691 796 691 778 700 c 0,69,70
 735 725 735 725 687 742.5 c 128,-1,71
 639 760 639 760 592 780 c 0,72,73
 582 786 582 786 579 797.5 c 128,-1,74
 576 809 576 809 570 820 c 1,75,-1
 622 860 l 1,76,77
 595 879 595 879 569 899.5 c 128,-1,78
 543 920 543 920 516 940 c 1,0,-1
368 660 m 0,79,80
 369 660 369 660 371 657 c 128,-1,81
 373 654 373 654 376 648 c 0,82,83
 413 570 413 570 444.5 501 c 128,-1,84
 476 432 476 432 502 370 c 0,85,86
 509 357 509 357 512.5 349.5 c 128,-1,87
 516 342 516 342 518 342 c 0,88,89
 519 342 519 342 522 347.5 c 128,-1,90
 525 353 525 353 530 364 c 0,91,92
 551 412 551 412 579.5 482.5 c 128,-1,93
 608 553 608 553 646 646 c 0,94,95
 647 652 647 652 650 655 c 128,-1,96
 653 658 653 658 656 658 c 0,97,98
 660 658 660 658 667.5 658 c 128,-1,99
 675 658 675 658 686 656 c 0,100,101
 696 656 696 656 704 656 c 128,-1,102
 712 656 712 656 718 656 c 0,103,104
 721 656 721 656 723.5 654.5 c 128,-1,105
 726 653 726 653 726 648 c 0,106,107
 726 632 726 632 725 606.5 c 128,-1,108
 724 581 724 581 722 548 c 0,109,110
 722 514 722 514 721 488.5 c 128,-1,111
 720 463 720 463 720 446 c 0,112,113
 720 430 720 430 721 406 c 128,-1,114
 722 382 722 382 724 350 c 0,115,116
 725 317 725 317 725.5 293 c 128,-1,117
 726 269 726 269 726 254 c 0,118,119
 726 250 726 250 724.5 248 c 128,-1,120
 723 246 723 246 718 246 c 0,121,122
 715 246 715 246 711.5 246 c 128,-1,123
 708 246 708 246 702 246 c 0,124,125
 696 247 696 247 692 247.5 c 128,-1,126
 688 248 688 248 686 248 c 0,127,128
 683 248 683 248 678.5 248 c 128,-1,129
 674 248 674 248 668 246 c 0,130,131
 662 246 662 246 658.5 246 c 128,-1,132
 655 246 655 246 652 246 c 0,133,134
 648 246 648 246 646 248.5 c 128,-1,135
 644 251 644 251 644 256 c 0,136,137
 644 274 644 274 644 302 c 128,-1,138
 644 330 644 330 646 368 c 0,139,140
 647 404 647 404 647.5 432 c 128,-1,141
 648 460 648 460 648 478 c 0,142,143
 648 481 648 481 648 482.5 c 128,-1,144
 648 484 648 484 646 484 c 0,145,146
 645 484 645 484 644.5 484 c 128,-1,147
 644 484 644 484 642 482 c 0,148,149
 635 466 635 466 617 423.5 c 128,-1,150
 599 381 599 381 570 310 c 0,151,152
 564 298 564 298 557.5 281 c 128,-1,153
 551 264 551 264 542 244 c 0,154,155
 541 243 541 243 536 241.5 c 128,-1,156
 531 240 531 240 520 240 c 0,157,158
 505 240 505 240 497.5 241.5 c 128,-1,159
 490 243 490 243 488 246 c 0,160,161
 484 258 484 258 476.5 274.5 c 128,-1,162
 469 291 469 291 458 312 c 0,163,164
 446 340 446 340 427 383.5 c 128,-1,165
 408 427 408 427 382 484 c 0,166,167
 381 485 381 485 380.5 486.5 c 128,-1,168
 380 488 380 488 378 488 c 0,169,170
 377 488 377 488 376.5 486.5 c 128,-1,171
 376 485 376 485 376 482 c 0,172,173
 376 464 376 464 376 436 c 128,-1,174
 376 408 376 408 376 370 c 0,175,176
 377 331 377 331 377.5 302.5 c 128,-1,177
 378 274 378 274 378 256 c 0,178,179
 378 252 378 252 376.5 249 c 128,-1,180
 375 246 375 246 370 246 c 0,181,182
 367 246 367 246 363.5 246 c 128,-1,183
 360 246 360 246 354 246 c 0,184,185
 350 247 350 247 345.5 247.5 c 128,-1,186
 341 248 341 248 338 248 c 256,187,188
 335 248 335 248 331.5 248 c 128,-1,189
 328 248 328 248 322 246 c 0,190,191
 318 246 318 246 313.5 246 c 128,-1,192
 309 246 309 246 306 246 c 0,193,194
 302 246 302 246 300 247.5 c 128,-1,195
 298 249 298 249 298 252 c 0,196,197
 298 268 298 268 299 292 c 128,-1,198
 300 316 300 316 302 348 c 0,199,200
 303 381 303 381 303.5 405 c 128,-1,201
 304 429 304 429 304 446 c 0,202,203
 304 462 304 462 304 487.5 c 128,-1,204
 304 513 304 513 302 548 c 0,205,206
 301 581 301 581 299.5 606 c 128,-1,207
 298 631 298 631 298 648 c 0,208,209
 298 651 298 651 299.5 652.5 c 128,-1,210
 301 654 301 654 306 656 c 0,211,212
 325 657 325 657 341 658.5 c 128,-1,213
 357 660 357 660 368 660 c 0,79,80
EndSplineSet
EndChar

StartChar: R
Encoding: 82 82 53
Width: 1024
Flags: W
LayerCount: 2
Fore
SplineSet
518 856 m 0,0,1
 502 856 502 856 492 836.5 c 128,-1,2
 482 817 482 817 470 790 c 0,3,4
 470 789 470 789 470 788.5 c 128,-1,5
 470 788 470 788 472 788 c 1,6,7
 438 773 438 773 402.5 749 c 128,-1,8
 367 725 367 725 350 702 c 1,9,-1
 344 702 l 2,10,11
 295 702 295 702 260.5 667 c 128,-1,12
 226 632 226 632 226 582 c 2,13,-1
 226 528 l 2,14,15
 226 507 226 507 232 488 c 128,-1,16
 238 469 238 469 252 454 c 1,17,18
 233 416 233 416 212 378 c 0,19,20
 190 341 190 341 164 303.5 c 128,-1,21
 138 266 138 266 107 230 c 0,22,23
 76 193 76 193 38 156 c 1,24,25
 51 135 51 135 119.5 128 c 128,-1,26
 188 121 188 121 254 44 c 1,27,28
 261 52 261 52 273 89 c 0,29,30
 284 126 284 126 296.5 178.5 c 128,-1,31
 309 231 309 231 323 292 c 0,32,33
 336 352 336 352 348 408 c 1,34,-1
 678 408 l 1,35,36
 689 353 689 353 702 291 c 0,37,38
 715 230 715 230 727.5 177.5 c 128,-1,39
 740 125 740 125 751 87 c 0,40,41
 761 49 761 49 768 40 c 1,42,43
 835 115 835 115 903.5 122 c 128,-1,44
 972 129 972 129 986 150 c 1,45,46
 949 187 949 187 917 225 c 0,47,48
 886 263 886 263 860.5 301 c 128,-1,49
 835 339 835 339 813 378 c 0,50,51
 792 416 792 416 774 454 c 1,52,53
 786 469 786 469 792 488 c 128,-1,54
 798 507 798 507 798 528 c 2,55,-1
 798 582 l 2,56,57
 798 631 798 631 764 666.5 c 128,-1,58
 730 702 730 702 680 702 c 2,59,-1
 676 702 l 1,60,61
 660 723 660 723 626.5 747 c 128,-1,62
 593 771 593 771 560 786 c 1,63,64
 561 786 561 786 562.5 787 c 128,-1,65
 564 788 564 788 564 788 c 1,66,67
 555 815 555 815 545 835.5 c 128,-1,68
 535 856 535 856 518 856 c 0,0,1
390 366 m 1,69,-1
 328 118 l 1,70,71
 455 82 455 82 517 82 c 128,-1,72
 579 82 579 82 696 118 c 1,73,-1
 634 366 l 1,74,-1
 390 366 l 1,69,-1
EndSplineSet
EndChar

StartChar: S
Encoding: 83 83 54
Width: 1024
Flags: W
LayerCount: 2
Fore
SplineSet
102 858 m 1,0,-1
 308 858 l 1,1,-1
 308 652 l 1,2,-1
 102 652 l 1,3,-1
 102 858 l 1,0,-1
410 858 m 1,4,-1
 614 858 l 1,5,-1
 614 652 l 1,6,-1
 410 652 l 1,7,-1
 410 858 l 1,4,-1
102 244 m 1,8,-1
 308 244 l 1,9,-1
 308 38 l 1,10,-1
 102 38 l 1,11,-1
 102 244 l 1,8,-1
716 858 m 1,12,-1
 922 858 l 1,13,-1
 922 652 l 1,14,-1
 716 652 l 1,15,-1
 716 858 l 1,12,-1
410 244 m 1,16,-1
 614 244 l 1,17,-1
 614 38 l 1,18,-1
 410 38 l 1,19,-1
 410 244 l 1,16,-1
716 244 m 1,20,-1
 922 244 l 1,21,-1
 922 38 l 1,22,-1
 716 38 l 1,23,-1
 716 244 l 1,20,-1
EndSplineSet
EndChar

StartChar: T
Encoding: 84 84 55
Width: 1024
Flags: W
LayerCount: 2
Fore
SplineSet
960 704 m 2,0,-1
 606 704 l 1,1,-1
 746 844 l 2,2,3
 755 853 755 853 755 866 c 128,-1,4
 755 879 755 879 746 888 c 0,5,6
 736 898 736 898 722.5 898 c 128,-1,7
 709 898 709 898 700 888 c 2,8,-1
 516 704 l 1,9,-1
 478 704 l 1,10,-1
 292 888 l 2,11,12
 283 898 283 898 270 898 c 128,-1,13
 257 898 257 898 248 888 c 0,14,15
 239 879 239 879 239 866 c 128,-1,16
 239 853 239 853 248 844 c 2,17,-1
 388 704 l 1,18,-1
 64 704 l 2,19,20
 37 704 37 704 18.5 685.5 c 128,-1,21
 0 667 0 667 0 640 c 2,22,-1
 0 64 l 2,23,24
 0 37 0 37 18.5 18.5 c 128,-1,25
 37 0 37 0 64 0 c 2,26,-1
 960 0 l 2,27,28
 987 0 987 0 1005.5 18.5 c 128,-1,29
 1024 37 1024 37 1024 64 c 2,30,-1
 1024 640 l 2,31,32
 1024 667 1024 667 1005.5 685.5 c 128,-1,33
 987 704 987 704 960 704 c 2,0,-1
704 128 m 1,34,-1
 128 128 l 1,35,-1
 128 576 l 1,36,-1
 704 576 l 1,37,-1
 704 128 l 1,34,-1
896 320 m 1,38,-1
 832 320 l 1,39,-1
 832 384 l 1,40,-1
 896 384 l 1,41,-1
 896 320 l 1,38,-1
896 448 m 1,42,-1
 832 448 l 1,43,-1
 832 512 l 1,44,-1
 896 512 l 1,45,-1
 896 448 l 1,42,-1
EndSplineSet
EndChar

StartChar: U
Encoding: 85 85 56
Width: 1024
Flags: W
LayerCount: 2
Fore
SplineSet
694 100 m 256,0,1
 694 97 694 97 693.5 94 c 128,-1,2
 693 91 693 91 690 88 c 256,3,4
 687 85 687 85 684 83.5 c 128,-1,5
 681 82 681 82 676 82 c 2,6,-1
 128 82 l 2,7,8
 125 82 125 82 123.5 82 c 128,-1,9
 122 82 122 82 120 84 c 0,10,11
 119 84 119 84 117.5 85 c 128,-1,12
 116 86 116 86 116 88 c 0,13,14
 115 89 115 89 113.5 89.5 c 128,-1,15
 112 90 112 90 112 92 c 0,16,17
 112 93 112 93 111 94.5 c 128,-1,18
 110 96 110 96 110 98 c 0,19,20
 110 101 110 101 110 102.5 c 128,-1,21
 110 104 110 104 110 106 c 2,22,-1
 110 448 l 1,23,-1
 0 448 l 2,24,25
 -7 448 -7 448 -13.5 450.5 c 128,-1,26
 -20 453 -20 453 -26 458 c 0,27,28
 -30 464 -30 464 -33 470 c 128,-1,29
 -36 476 -36 476 -36 484 c 0,30,31
 -36 491 -36 491 -34.5 497 c 128,-1,32
 -33 503 -33 503 -28 508 c 2,33,-1
 154 728 l 2,34,35
 160 734 160 734 167 737 c 128,-1,36
 174 740 174 740 182 740 c 0,37,38
 191 740 191 740 198 737 c 128,-1,39
 205 734 205 734 210 728 c 2,40,-1
 394 508 l 2,41,42
 398 504 398 504 400 498 c 128,-1,43
 402 492 402 492 402 484 c 0,44,45
 402 477 402 477 399.5 470.5 c 128,-1,46
 397 464 397 464 392 458 c 0,47,48
 386 454 386 454 380 451 c 128,-1,49
 374 448 374 448 366 448 c 2,50,-1
 256 448 l 1,51,-1
 256 228 l 1,52,-1
 586 228 l 2,53,54
 590 228 590 228 593.5 226.5 c 128,-1,55
 597 225 597 225 600 222 c 2,56,-1
 690 112 l 2,57,58
 693 109 693 109 693.5 106 c 128,-1,59
 694 103 694 103 694 100 c 256,0,1
1060 338 m 0,60,61
 1060 332 1060 332 1058.5 326 c 128,-1,62
 1057 320 1057 320 1052 314 c 2,63,-1
 870 96 l 2,64,65
 864 89 864 89 857 85.5 c 128,-1,66
 850 82 850 82 842 82 c 0,67,68
 833 82 833 82 826 85 c 128,-1,69
 819 88 819 88 814 96 c 2,70,-1
 630 314 l 2,71,72
 626 320 626 320 624 326 c 128,-1,73
 622 332 622 332 622 338 c 0,74,75
 622 345 622 345 624.5 351.5 c 128,-1,76
 627 358 627 358 632 364 c 0,77,78
 638 370 638 370 644 372 c 128,-1,79
 650 374 650 374 658 374 c 2,80,-1
 768 374 l 1,81,-1
 768 594 l 1,82,-1
 438 594 l 2,83,84
 434 594 434 594 430.5 595.5 c 128,-1,85
 427 597 427 597 424 602 c 2,86,-1
 334 710 l 2,87,88
 331 713 331 713 330.5 716 c 128,-1,89
 330 719 330 719 330 722 c 0,90,91
 330 726 330 726 330.5 729.5 c 128,-1,92
 331 733 331 733 334 736 c 0,93,94
 337 737 337 737 340 738.5 c 128,-1,95
 343 740 343 740 348 740 c 2,96,-1
 896 740 l 2,97,98
 899 740 899 740 900.5 740 c 128,-1,99
 902 740 902 740 904 740 c 0,100,101
 905 739 905 739 906.5 738.5 c 128,-1,102
 908 738 908 738 908 736 c 0,103,104
 909 735 909 735 910.5 733.5 c 128,-1,105
 912 732 912 732 912 730 c 2,106,107
 912 730 912 730 913 728.5 c 128,-1,108
 914 727 914 727 914 724 c 0,109,110
 914 723 914 723 914 720.5 c 128,-1,111
 914 718 914 718 914 718 c 1,112,-1
 914 374 l 1,113,-1
 1024 374 l 2,114,115
 1031 374 1031 374 1037.5 372 c 128,-1,116
 1044 370 1044 370 1050 364 c 0,117,118
 1054 358 1054 358 1057 352 c 128,-1,119
 1060 346 1060 346 1060 338 c 0,60,61
EndSplineSet
EndChar

StartChar: V
Encoding: 86 86 57
Width: 1024
Flags: W
LayerCount: 2
Fore
SplineSet
250 858 m 2,0,-1
 774 858 l 2,1,2
 835 858 835 858 878.5 815 c 128,-1,3
 922 772 922 772 922 710 c 2,4,-1
 922 186 l 2,5,6
 922 125 922 125 879 81.5 c 128,-1,7
 836 38 836 38 774 38 c 2,8,-1
 250 38 l 2,9,10
 189 38 189 38 145.5 81 c 128,-1,11
 102 124 102 124 102 186 c 2,12,-1
 102 710 l 2,13,14
 102 771 102 771 145 814.5 c 128,-1,15
 188 858 188 858 250 858 c 2,0,-1
828 684 m 0,16,17
 828 726 828 726 798 756 c 128,-1,18
 768 786 768 786 726 786 c 0,19,20
 683 786 683 786 653.5 756 c 128,-1,21
 624 726 624 726 624 684 c 0,22,23
 624 641 624 641 653 610.5 c 128,-1,24
 682 580 682 580 726 580 c 0,25,26
 768 580 768 580 798 610 c 128,-1,27
 828 640 828 640 828 684 c 0,16,17
828 458 m 256,28,29
 828 500 828 500 798 530 c 128,-1,30
 768 560 768 560 726 560 c 0,31,32
 683 560 683 560 653.5 530 c 128,-1,33
 624 500 624 500 624 458 c 256,34,35
 624 416 624 416 653 386 c 128,-1,36
 682 356 682 356 726 356 c 0,37,38
 768 356 768 356 798 386 c 128,-1,39
 828 416 828 416 828 458 c 256,28,29
828 232 m 0,40,41
 828 275 828 275 798 305.5 c 128,-1,42
 768 336 768 336 726 336 c 0,43,44
 683 336 683 336 653.5 306 c 128,-1,45
 624 276 624 276 624 232 c 0,46,47
 624 190 624 190 653 160 c 128,-1,48
 682 130 682 130 726 130 c 0,49,50
 768 130 768 130 798 160 c 128,-1,51
 828 190 828 190 828 232 c 0,40,41
394 678 m 256,52,53
 394 720 394 720 364 750 c 128,-1,54
 334 780 334 780 290 780 c 0,55,56
 248 780 248 780 218 750 c 128,-1,57
 188 720 188 720 188 678 c 256,58,59
 188 636 188 636 218 606 c 128,-1,60
 248 576 248 576 290 576 c 0,61,62
 333 576 333 576 363.5 606 c 128,-1,63
 394 636 394 636 394 678 c 256,52,53
394 452 m 0,64,65
 394 495 394 495 364 525.5 c 128,-1,66
 334 556 334 556 290 556 c 0,67,68
 248 556 248 556 218 526 c 128,-1,69
 188 496 188 496 188 452 c 0,70,71
 188 410 188 410 218 380 c 128,-1,72
 248 350 248 350 290 350 c 0,73,74
 333 350 333 350 363.5 380 c 128,-1,75
 394 410 394 410 394 452 c 0,64,65
394 228 m 0,76,77
 394 270 394 270 364 300 c 128,-1,78
 334 330 334 330 290 330 c 0,79,80
 248 330 248 330 218 300 c 128,-1,81
 188 270 188 270 188 228 c 0,82,83
 188 185 188 185 218 155.5 c 128,-1,84
 248 126 248 126 290 126 c 0,85,86
 333 126 333 126 363.5 155 c 128,-1,87
 394 184 394 184 394 228 c 0,76,77
EndSplineSet
EndChar

StartChar: W
Encoding: 87 87 58
Width: 1024
Flags: W
LayerCount: 2
Fore
SplineSet
804 412 m 2,0,-1
 804 484 l 2,1,2
 804 491 804 491 801.5 498 c 128,-1,3
 799 505 799 505 794 510 c 0,4,5
 788 516 788 516 782 519 c 128,-1,6
 776 522 776 522 768 522 c 2,7,-1
 586 522 l 1,8,-1
 586 704 l 2,9,10
 586 711 586 711 583 717.5 c 128,-1,11
 580 724 580 724 574 730 c 0,12,13
 570 734 570 734 563 737 c 128,-1,14
 556 740 556 740 548 740 c 2,15,-1
 476 740 l 2,16,17
 469 740 469 740 462 737.5 c 128,-1,18
 455 735 455 735 450 730 c 0,19,20
 444 724 444 724 441 718 c 128,-1,21
 438 712 438 712 438 704 c 2,22,-1
 438 522 l 1,23,-1
 256 522 l 2,24,25
 249 522 249 522 242.5 519 c 128,-1,26
 236 516 236 516 230 510 c 0,27,28
 226 506 226 506 223 499 c 128,-1,29
 220 492 220 492 220 484 c 2,30,-1
 220 412 l 2,31,32
 220 405 220 405 222.5 398 c 128,-1,33
 225 391 225 391 230 386 c 0,34,35
 236 380 236 380 242 377 c 128,-1,36
 248 374 248 374 256 374 c 2,37,-1
 438 374 l 1,38,-1
 438 192 l 2,39,40
 438 185 438 185 441 178.5 c 128,-1,41
 444 172 444 172 450 166 c 0,42,43
 454 162 454 162 461 159 c 128,-1,44
 468 156 468 156 476 156 c 2,45,-1
 548 156 l 2,46,47
 555 156 555 156 562 158.5 c 128,-1,48
 569 161 569 161 574 166 c 0,49,50
 580 172 580 172 583 178 c 128,-1,51
 586 184 586 184 586 192 c 2,52,-1
 586 374 l 1,53,-1
 768 374 l 2,54,55
 775 374 775 374 781.5 377 c 128,-1,56
 788 380 788 380 794 386 c 0,57,58
 798 390 798 390 801 397 c 128,-1,59
 804 404 804 404 804 412 c 2,0,-1
950 722 m 2,60,-1
 950 174 l 2,61,62
 950 140 950 140 938 111 c 128,-1,63
 926 82 926 82 902 58 c 256,64,65
 878 34 878 34 849.5 22 c 128,-1,66
 821 10 821 10 786 10 c 2,67,-1
 238 10 l 2,68,69
 204 10 204 10 175 22 c 128,-1,70
 146 34 146 34 122 58 c 256,71,72
 98 82 98 82 86 110.5 c 128,-1,73
 74 139 74 139 74 174 c 2,74,-1
 74 722 l 2,75,76
 74 756 74 756 86 785 c 128,-1,77
 98 814 98 814 122 838 c 256,78,79
 146 862 146 862 174.5 874 c 128,-1,80
 203 886 203 886 238 886 c 2,81,-1
 786 886 l 2,82,83
 820 886 820 886 849 874 c 128,-1,84
 878 862 878 862 902 838 c 256,85,86
 926 814 926 814 938 785.5 c 128,-1,87
 950 757 950 757 950 722 c 2,60,-1
EndSplineSet
EndChar

StartChar: X
Encoding: 88 88 59
Width: 1024
Flags: W
LayerCount: 2
Fore
SplineSet
1024 320 m 0,0,1
 1024 272 1024 272 1006 207.5 c 128,-1,2
 988 143 988 143 952 62 c 0,3,4
 951 61 951 61 949.5 57.5 c 128,-1,5
 948 54 948 54 946 48 c 0,6,7
 943 44 943 44 941.5 39.5 c 128,-1,8
 940 35 940 35 938 32 c 0,9,10
 937 28 937 28 934.5 24.5 c 128,-1,11
 932 21 932 21 930 18 c 0,12,13
 927 14 927 14 923 12 c 128,-1,14
 919 10 919 10 914 10 c 0,15,16
 910 10 910 10 906.5 11 c 128,-1,17
 903 12 903 12 900 14 c 0,18,19
 899 17 899 17 897.5 21 c 128,-1,20
 896 25 896 25 896 30 c 0,21,22
 896 31 896 31 896 35 c 128,-1,23
 896 39 896 39 898 44 c 0,24,25
 898 48 898 48 898 52 c 128,-1,26
 898 56 898 56 898 58 c 0,27,28
 899 77 899 77 900.5 95 c 128,-1,29
 902 113 902 113 902 128 c 0,30,31
 902 156 902 156 899.5 182 c 128,-1,32
 897 208 897 208 892 232 c 0,33,34
 888 254 888 254 880.5 273.5 c 128,-1,35
 873 293 873 293 864 310 c 0,36,37
 855 326 855 326 843.5 341 c 128,-1,38
 832 356 832 356 818 368 c 0,39,40
 805 380 805 380 790 390 c 128,-1,41
 775 400 775 400 758 408 c 0,42,43
 742 415 742 415 723.5 421 c 128,-1,44
 705 427 705 427 682 432 c 0,45,46
 660 436 660 436 638.5 439 c 128,-1,47
 617 442 617 442 594 444 c 0,48,49
 572 445 572 445 547.5 446.5 c 128,-1,50
 523 448 523 448 494 448 c 2,51,-1
 366 448 l 1,52,-1
 366 302 l 2,53,54
 366 295 366 295 363 288.5 c 128,-1,55
 360 282 360 282 354 276 c 0,56,57
 350 270 350 270 344 268 c 128,-1,58
 338 266 338 266 330 266 c 0,59,60
 323 266 323 266 316 268 c 128,-1,61
 309 270 309 270 304 276 c 2,62,-1
 10 568 l 2,63,64
 6 574 6 574 3 580 c 128,-1,65
 0 586 0 586 0 594 c 0,66,67
 0 601 0 601 2.5 607.5 c 128,-1,68
 5 614 5 614 10 620 c 2,69,-1
 304 912 l 2,70,71
 308 918 308 918 315 921 c 128,-1,72
 322 924 322 924 330 924 c 0,73,74
 337 924 337 924 343 921 c 128,-1,75
 349 918 349 918 354 912 c 0,76,77
 360 908 360 908 363 901 c 128,-1,78
 366 894 366 894 366 886 c 2,79,-1
 366 740 l 1,80,-1
 494 740 l 2,81,82
 596 740 596 740 678 726 c 0,83,84
 760 711 760 711 822.5 682.5 c 128,-1,85
 885 654 885 654 928 611 c 256,86,87
 971 568 971 568 994 510 c 0,88,89
 1009 473 1009 473 1016.5 425 c 128,-1,90
 1024 377 1024 377 1024 320 c 0,0,1
EndSplineSet
EndChar

StartChar: Y
Encoding: 89 89 60
Width: 1024
Flags: W
LayerCount: 2
Fore
SplineSet
832 0 m 2,0,-1
 788 0 l 1,1,2
 827 25 827 25 859 60 c 0,3,4
 890 94 890 94 912.5 135 c 128,-1,5
 935 176 935 176 948 223 c 0,6,7
 960 270 960 270 960 320 c 0,8,9
 960 387 960 387 938 448 c 256,10,11
 916 509 916 509 877 558 c 128,-1,12
 838 607 838 607 785 641 c 0,13,14
 732 676 732 676 670 692 c 1,15,-1
 742 828 l 2,16,17
 748 841 748 841 744 854.5 c 128,-1,18
 740 868 740 868 728 874 c 2,19,-1
 556 956 l 2,20,21
 550 959 550 959 544 959 c 128,-1,22
 538 959 538 959 530 958 c 0,23,24
 524 955 524 955 519.5 950.5 c 128,-1,25
 515 946 515 946 512 940 c 2,26,-1
 308 552 l 2,27,28
 296 527 296 527 304 501 c 128,-1,29
 312 475 312 475 336 464 c 1,30,-1
 308 406 l 1,31,-1
 422 350 l 1,32,-1
 450 408 l 1,33,34
 474 396 474 396 500 406 c 128,-1,35
 526 416 526 416 538 442 c 2,36,-1
 608 572 l 1,37,38
 655 567 655 567 696 545 c 256,39,40
 737 523 737 523 767 489.5 c 128,-1,41
 797 456 797 456 815 412 c 0,42,43
 832 369 832 369 832 320 c 0,44,45
 832 267 832 267 812 220 c 256,46,47
 792 173 792 173 757.5 138.5 c 128,-1,48
 723 104 723 104 676 84 c 256,49,50
 629 64 629 64 576 64 c 0,51,52
 528 64 528 64 472.5 81 c 128,-1,53
 417 98 417 98 384 128 c 1,54,-1
 384 160 l 2,55,56
 384 173 384 173 393 182.5 c 128,-1,57
 402 192 402 192 416 192 c 2,58,-1
 576 192 l 1,59,-1
 576 256 l 1,60,-1
 64 256 l 1,61,-1
 64 192 l 1,62,-1
 224 192 l 2,63,64
 237 192 237 192 246.5 183 c 128,-1,65
 256 174 256 174 256 160 c 2,66,-1
 256 0 l 1,67,68
 204 0 204 0 166 -5.5 c 128,-1,69
 128 -11 128 -11 128 -64 c 1,70,-1
 960 -64 l 1,71,72
 960 -12 960 -12 922.5 -6 c 128,-1,73
 885 0 885 0 832 0 c 2,0,-1
608 874 m 1,74,75
 602 871 602 871 596.5 866.5 c 128,-1,76
 591 862 591 862 588 854 c 2,77,-1
 440 576 l 1,78,-1
 384 604 l 2,79,80
 385 607 385 607 385.5 610 c 128,-1,81
 386 613 386 613 388 616 c 2,82,-1
 528 876 l 2,83,84
 531 882 531 882 535.5 886.5 c 128,-1,85
 540 891 540 891 546 894 c 0,86,87
 553 895 553 895 559.5 895 c 128,-1,88
 566 895 566 895 572 892 c 2,89,-1
 608 874 l 1,90,91
 608 874 608 874 608 874 c 129,-1,92
 608 874 608 874 608 874 c 1,93,-1
 608 874 l 1,74,75
EndSplineSet
EndChar

StartChar: Z
Encoding: 90 90 61
Width: 1024
Flags: W
LayerCount: 2
Fore
SplineSet
438 10 m 1,0,-1
 950 10 l 1,1,-1
 950 374 l 1,2,-1
 714 374 l 2,3,4
 702 374 702 374 692 378 c 128,-1,5
 682 382 682 382 674 390 c 0,6,7
 667 399 667 399 662.5 408.5 c 128,-1,8
 658 418 658 418 658 430 c 2,9,-1
 658 668 l 1,10,-1
 438 668 l 1,11,-1
 438 10 l 1,0,-1
586 832 m 2,12,-1
 586 868 l 2,13,14
 586 872 586 872 584.5 875.5 c 128,-1,15
 583 879 583 879 580 882 c 256,16,17
 577 885 577 885 574 885.5 c 128,-1,18
 571 886 571 886 566 886 c 2,19,-1
 164 886 l 2,20,21
 161 886 161 886 158 885.5 c 128,-1,22
 155 885 155 885 152 882 c 256,23,24
 149 879 149 879 147.5 876 c 128,-1,25
 146 873 146 873 146 868 c 2,26,-1
 146 832 l 2,27,28
 146 829 146 829 147.5 825.5 c 128,-1,29
 149 822 149 822 152 820 c 0,30,31
 155 817 155 817 158 815.5 c 128,-1,32
 161 814 161 814 164 814 c 2,33,-1
 566 814 l 2,34,35
 570 814 570 814 573.5 815.5 c 128,-1,36
 577 817 577 817 580 820 c 0,37,38
 583 821 583 821 584.5 825 c 128,-1,39
 586 829 586 829 586 832 c 2,12,-1
732 448 m 1,40,-1
 902 448 l 1,41,-1
 732 618 l 1,42,-1
 732 448 l 1,40,-1
1024 374 m 2,43,-1
 1024 -10 l 2,44,45
 1024 -20 1024 -20 1020 -30 c 128,-1,46
 1016 -40 1016 -40 1008 -48 c 0,47,48
 1001 -55 1001 -55 991 -59.5 c 128,-1,49
 981 -64 981 -64 970 -64 c 2,50,-1
 420 -64 l 2,51,52
 410 -64 410 -64 400 -60 c 128,-1,53
 390 -56 390 -56 382 -48 c 0,54,55
 375 -41 375 -41 370.5 -31 c 128,-1,56
 366 -21 366 -21 366 -10 c 2,57,-1
 366 82 l 1,58,-1
 54 82 l 2,59,60
 44 82 44 82 34 86 c 128,-1,61
 24 90 24 90 16 98 c 0,62,63
 9 105 9 105 4.5 115.5 c 128,-1,64
 0 126 0 126 0 138 c 2,65,-1
 0 906 l 2,66,67
 0 916 0 916 4 926 c 128,-1,68
 8 936 8 936 16 944 c 0,69,70
 23 951 23 951 33 955.5 c 128,-1,71
 43 960 43 960 54 960 c 2,72,-1
 676 960 l 2,73,74
 688 960 688 960 697.5 956 c 128,-1,75
 707 952 707 952 716 944 c 0,76,77
 723 937 723 937 727.5 927 c 128,-1,78
 732 917 732 917 732 906 c 2,79,-1
 732 718 l 1,80,81
 738 714 738 714 742.5 710.5 c 128,-1,82
 747 707 747 707 752 702 c 2,83,-1
 986 468 l 2,84,85
 993 461 993 461 999.5 450.5 c 128,-1,86
 1006 440 1006 440 1012 426 c 0,87,88
 1018 411 1018 411 1021 398.5 c 128,-1,89
 1024 386 1024 386 1024 374 c 2,43,-1
EndSplineSet
EndChar

StartChar: bracketleft
Encoding: 91 91 62
Width: 1024
Flags: W
LayerCount: 2
Fore
SplineSet
816 788 m 2,0,-1
 512 484 l 1,1,-1
 816 182 l 2,2,3
 820 176 820 176 823 170 c 128,-1,4
 826 164 826 164 826 156 c 0,5,6
 826 149 826 149 823.5 142 c 128,-1,7
 821 135 821 135 816 130 c 2,8,-1
 720 34 l 2,9,10
 716 30 716 30 709 27 c 128,-1,11
 702 24 702 24 694 24 c 0,12,13
 687 24 687 24 681 26.5 c 128,-1,14
 675 29 675 29 670 34 c 2,15,-1
 246 458 l 2,16,17
 240 464 240 464 237 470 c 128,-1,18
 234 476 234 476 234 484 c 0,19,20
 234 491 234 491 237 498 c 128,-1,21
 240 505 240 505 246 510 c 2,22,-1
 670 934 l 2,23,24
 674 940 674 940 680 943 c 128,-1,25
 686 946 686 946 694 946 c 0,26,27
 701 946 701 946 708 943 c 128,-1,28
 715 940 715 940 720 934 c 2,29,-1
 816 840 l 2,30,31
 820 834 820 834 823 828 c 128,-1,32
 826 822 826 822 826 814 c 0,33,34
 826 807 826 807 823.5 800.5 c 128,-1,35
 821 794 821 794 816 788 c 2,0,-1
EndSplineSet
EndChar

